<svg width="48" height="48" viewBox="0 0 48 48" fill="none" xmlns="http://www.w3.org/2000/svg">
<path opacity="0.2" d="M8.51252 33.1876C6.27918 29.4197 5.49799 24.9661 6.31559 20.6629C7.1332 16.3598 9.49338 12.5031 12.953 9.81676C16.4127 7.13046 20.7339 5.79935 25.1055 6.07331C29.477 6.34728 33.5983 8.20748 36.6955 11.3047C39.7927 14.4019 41.6529 18.5231 41.9268 22.8947C42.2008 27.2662 40.8697 31.5875 38.1834 35.0471C35.4971 38.5068 31.6404 40.867 27.3372 41.6846C23.0341 42.5022 18.5805 41.721 14.8125 39.4876L8.58752 41.2501C8.33248 41.3247 8.06206 41.3293 7.80463 41.2635C7.54719 41.1976 7.3122 41.0638 7.12431 40.8759C6.93641 40.688 6.80252 40.453 6.73667 40.1955C6.67081 39.9381 6.67542 39.6677 6.75002 39.4126L8.51252 33.1876Z" fill="#2DB324"/>
<path d="M8.51252 33.1876C6.27918 29.4197 5.49799 24.9661 6.31559 20.6629C7.1332 16.3598 9.49338 12.5031 12.953 9.81676C16.4127 7.13046 20.7339 5.79935 25.1055 6.07331C29.477 6.34728 33.5983 8.20748 36.6955 11.3047C39.7927 14.4019 41.6529 18.5231 41.9268 22.8947C42.2008 27.2662 40.8697 31.5875 38.1834 35.0471C35.4971 38.5068 31.6404 40.867 27.3372 41.6846C23.0341 42.5022 18.5805 41.721 14.8125 39.4876L8.58752 41.2501C8.33248 41.3247 8.06206 41.3293 7.80463 41.2635C7.54719 41.1976 7.3122 41.0638 7.12431 40.8759C6.93641 40.688 6.80252 40.453 6.73667 40.1955C6.67081 39.9381 6.67542 39.6677 6.75002 39.4126L8.51252 33.1876Z" stroke="#2DB324" stroke-width="3" stroke-linecap="round" stroke-linejoin="round"/>
<path d="M24 26.25C25.2426 26.25 26.25 25.2426 26.25 24C26.25 22.7574 25.2426 21.75 24 21.75C22.7574 21.75 21.75 22.7574 21.75 24C21.75 25.2426 22.7574 26.25 24 26.25Z" fill="#2DB324"/>
<path d="M15 26.25C16.2426 26.25 17.25 25.2426 17.25 24C17.25 22.7574 16.2426 21.75 15 21.75C13.7574 21.75 12.75 22.7574 12.75 24C12.75 25.2426 13.7574 26.25 15 26.25Z" fill="#2DB324"/>
<path d="M33 26.25C34.2426 26.25 35.25 25.2426 35.25 24C35.25 22.7574 34.2426 21.75 33 21.75C31.7574 21.75 30.75 22.7574 30.75 24C30.75 25.2426 31.7574 26.25 33 26.25Z" fill="#2DB324"/>
</svg>
