<svg width="190" height="48" viewBox="0 0 190 48" fill="none" xmlns="http://www.w3.org/2000/svg">
<path d="M24.864 36V32.288H28.224V36H24.864ZM11.808 36C8.37333 36 5.76 35.3387 3.968 34.016C2.176 32.672 1.28 30.688 1.28 28.064C1.28 27.552 1.312 27.0187 1.376 26.464C1.44 25.888 1.51467 25.344 1.6 24.832C1.70667 24.2987 1.80267 23.8293 1.888 23.424C1.97333 23.0187 2.03733 22.72 2.08 22.528L6.24 23.328C6.176 23.6693 6.09067 24.1067 5.984 24.64C5.87733 25.1733 5.78133 25.7387 5.696 26.336C5.61067 26.912 5.568 27.4667 5.568 28C5.568 29.1093 5.80267 29.984 6.272 30.624C6.74133 31.2427 7.456 31.68 8.416 31.936C9.376 32.1707 10.5813 32.288 12.032 32.288H23.072L20.576 34.368V13.376H24.864V36H11.808ZM28.224 36V32.288C28.48 32.288 28.6507 32.4587 28.736 32.8C28.8213 33.12 28.864 33.568 28.864 34.144C28.864 34.6987 28.8213 35.1467 28.736 35.488C28.6507 35.8293 28.48 36 28.224 36ZM11.136 23.936C10.7307 23.4453 10.4213 22.976 10.208 22.528C9.99467 22.08 9.888 21.6 9.888 21.088C9.888 20.3627 10.08 19.712 10.464 19.136C10.848 18.5387 11.3493 18.08 11.968 17.76C12.5867 17.4187 13.2693 17.248 14.016 17.248C14.4213 17.248 14.8373 17.3013 15.264 17.408C15.6907 17.5147 16.0533 17.6747 16.352 17.888L15.264 19.84C15.072 19.7333 14.88 19.6693 14.688 19.648C14.5173 19.6053 14.336 19.584 14.144 19.584C13.632 19.584 13.2373 19.7227 12.96 20C12.6827 20.256 12.544 20.608 12.544 21.056C12.544 21.312 12.5973 21.5573 12.704 21.792C12.8107 22.0267 12.9707 22.2827 13.184 22.56L11.136 23.936ZM9.184 24.192V21.856H16.928V24.192H9.184ZM27.5788 36V32.288H35.1628L32.6668 34.368V19.936H36.9228V36H27.5788ZM27.5788 36C27.3228 36 27.1521 35.8293 27.0668 35.488C26.9814 35.1467 26.9388 34.6987 26.9388 34.144C26.9388 33.568 26.9814 33.12 27.0668 32.8C27.1521 32.4587 27.3228 32.288 27.5788 32.288V36ZM28.8588 18.016V14.368H33.1468V18.016H28.8588ZM33.2428 18.016V14.368H37.5308V18.016H33.2428ZM45.7623 36V32.288H49.4103V36H45.7623ZM41.5063 36V13.376H45.7623V36H41.5063ZM49.4103 36V32.288C49.6663 32.288 49.8369 32.4587 49.9223 32.8C50.0076 33.12 50.0503 33.568 50.0503 34.144C50.0503 34.6987 50.0076 35.1467 49.9223 35.488C49.8369 35.8293 49.6663 36 49.4103 36ZM48.7675 36V32.288H56.3515L53.8555 34.368V19.936H58.1115V36H48.7675ZM48.7675 36C48.5115 36 48.3408 35.8293 48.2555 35.488C48.1702 35.1467 48.1275 34.6987 48.1275 34.144C48.1275 33.568 48.1702 33.12 48.2555 32.8C48.3408 32.4587 48.5115 32.288 48.7675 32.288V36ZM50.0475 42.656V39.008H54.3355V42.656H50.0475ZM54.4315 42.656V39.008H58.7195V42.656H54.4315ZM74.727 36V19.936H79.015V34.368L76.519 32.288H83.015V36H74.727ZM68.007 26.848V23.104H74.727V26.848H68.007ZM61.031 43.936C60.7537 43.936 60.455 43.9253 60.135 43.904C59.815 43.8827 59.4843 43.8507 59.143 43.808L59.303 40.16C59.6443 40.1813 59.9643 40.2027 60.263 40.224C60.583 40.2453 60.8177 40.256 60.967 40.256C61.799 40.256 62.4603 39.9253 62.951 39.264C63.463 38.6027 63.719 37.6747 63.719 36.48V19.936H68.007V36.48C68.007 37.9307 67.7083 39.2213 67.111 40.352C66.535 41.4827 65.7243 42.3573 64.679 42.976C63.6337 43.616 62.4177 43.936 61.031 43.936ZM83.015 36V32.288C83.2497 32.288 83.4097 32.4587 83.495 32.8C83.6017 33.12 83.655 33.568 83.655 34.144C83.655 34.6987 83.6017 35.1467 83.495 35.488C83.4097 35.8293 83.2497 36 83.015 36ZM70.695 18.016V14.368H74.983V18.016H70.695ZM75.079 18.016V14.368H79.367V18.016H75.079ZM109.211 36V32.288H112.603V36H109.211ZM101.179 36C100.304 36 99.4292 35.84 98.5545 35.52C97.7012 35.1787 96.9118 34.6773 96.1865 34.016L98.8105 31.296C99.2372 31.6373 99.6318 31.8933 99.9945 32.064C100.379 32.2133 100.773 32.288 101.179 32.288H107.163L104.955 34.304V27.2C104.955 26.8587 104.912 26.3467 104.827 25.664C104.763 24.96 104.656 24.1707 104.507 23.296C104.379 22.4 104.219 21.4933 104.027 20.576L108.251 19.936C108.4 20.704 108.539 21.568 108.667 22.528C108.816 23.4667 108.944 24.3627 109.051 25.216C109.157 26.048 109.211 26.7093 109.211 27.2V36H101.179ZM82.3625 36V32.288H87.0345L86.0745 33.28V23.2H90.3625V36H82.3625ZM90.3625 36V32.288H92.9545C93.6372 32.288 94.1598 32.192 94.5225 32C94.8852 31.7867 95.1305 31.3707 95.2585 30.752C95.4078 30.112 95.4825 29.1627 95.4825 27.904V21.6H99.7705V27.904C99.7705 29.8027 99.5252 31.3493 99.0345 32.544C98.5652 33.7387 97.8292 34.6133 96.8265 35.168C95.8238 35.7227 94.5332 36 92.9545 36H90.3625ZM82.3625 36C82.1065 36 81.9358 35.8293 81.8505 35.488C81.7652 35.1467 81.7225 34.6987 81.7225 34.144C81.7225 33.568 81.7652 33.12 81.8505 32.8C81.9358 32.4587 82.1065 32.288 82.3625 32.288V36ZM112.603 36V32.288C112.859 32.288 113.029 32.4587 113.115 32.8C113.2 33.12 113.243 33.568 113.243 34.144C113.243 34.6987 113.2 35.1467 113.115 35.488C113.029 35.8293 112.859 36 112.603 36ZM95.8025 12.096V8.896H99.5145V12.096H95.8025ZM92.6985 16.992V13.344H96.8265V16.992H92.6985ZM98.5225 16.992V13.344H102.651V16.992H98.5225ZM111.973 36V32.288H128.581L126.629 33.952V28.064C126.629 26.912 126.501 26.016 126.245 25.376C125.989 24.7147 125.541 24.256 124.901 24C124.282 23.7227 123.418 23.584 122.309 23.584C121.434 23.584 120.57 23.648 119.717 23.776C118.885 23.8827 118.234 24.032 117.765 24.224L120.421 21.728C120.293 22.2187 120.165 22.8373 120.037 23.584C119.93 24.3307 119.834 25.1307 119.749 25.984C119.663 26.816 119.621 27.6373 119.621 28.448C119.621 29.1947 119.653 29.9733 119.717 30.784C119.802 31.5947 119.887 32.3093 119.973 32.928C120.079 33.5467 120.165 33.9733 120.229 34.208L116.165 35.328C116.079 35.0293 115.973 34.5387 115.845 33.856C115.717 33.1733 115.599 32.3627 115.493 31.424C115.407 30.4853 115.365 29.4933 115.365 28.448C115.365 27.3813 115.418 26.3573 115.525 25.376C115.631 24.3733 115.749 23.4773 115.877 22.688C116.026 21.8773 116.165 21.2267 116.293 20.736C116.805 20.544 117.605 20.352 118.693 20.16C119.781 19.968 120.986 19.872 122.309 19.872C124.229 19.872 125.818 20.1387 127.077 20.672C128.357 21.2053 129.306 22.0693 129.925 23.264C130.565 24.4587 130.885 26.0693 130.885 28.096V36H111.973ZM111.973 36C111.717 36 111.546 35.8293 111.461 35.488C111.375 35.1467 111.333 34.6987 111.333 34.144C111.333 33.568 111.375 33.12 111.461 32.8C111.546 32.4587 111.717 32.288 111.973 32.288V36Z" fill="white"/>
<path fill-rule="evenodd" clip-rule="evenodd" d="M190 24C190 37.2548 179.255 48 166 48C152.745 48 142 37.2548 142 24C142 10.7452 152.745 0 166 0C179.255 0 190 10.7452 190 24ZM178 24C178 30.6274 172.627 36 166 36C159.373 36 154 30.6274 154 24C154 17.3726 159.373 12 166 12C172.627 12 178 17.3726 178 24ZM166 32C170.418 32 174 28.4183 174 24C174 19.5817 170.418 16 166 16C161.582 16 158 19.5817 158 24C158 28.4183 161.582 32 166 32Z" fill="white"/>
</svg>
