<svg width="18" height="20" viewBox="0 0 18 20" fill="none" xmlns="http://www.w3.org/2000/svg">
<path d="M14.6318 10.534C14.6229 8.90075 15.3619 7.668 16.8577 6.76012C16.0208 5.56297 14.7564 4.90432 13.087 4.77525C11.5065 4.65064 9.77918 5.69648 9.14701 5.69648C8.47922 5.69648 6.94776 4.81976 5.74574 4.81976C3.26157 4.85981 0.621582 6.80018 0.621582 10.7477C0.621582 11.9137 0.835274 13.1182 1.26266 14.3614C1.8325 15.9947 3.88929 20 6.03512 19.9332C7.157 19.9065 7.94944 19.1366 9.40967 19.1366C10.8254 19.1366 11.5599 19.9332 12.8109 19.9332C14.9746 19.9021 16.8355 16.2617 17.3786 14.6239C14.476 13.2577 14.6318 10.6186 14.6318 10.534ZM12.112 3.22652C13.3274 1.7846 13.2161 0.47174 13.1804 0C12.1075 0.0623053 10.8654 0.729862 10.1576 1.55318C9.37851 2.43436 8.91996 3.5247 9.0179 4.753C10.1799 4.84201 11.2394 4.24566 12.112 3.22652Z" fill="black"/>
</svg>
