<svg xmlns="http://www.w3.org/2000/svg" xmlns:xlink="http://www.w3.org/1999/xlink" width="80" height="171" viewBox="0 0 80 171">
  <defs>
    <clipPath id="clip-path">
      <rect id="Rectangle_36633" data-name="Rectangle 36633" width="80" height="171" transform="translate(1286 453)" fill="#fff" opacity="0"/>
    </clipPath>
  </defs>
  <g id="Mask_Group_4" data-name="Mask Group 4" transform="translate(-1286 -453)" clip-path="url(#clip-path)">
    <g id="Group_99982" data-name="Group 99982" transform="translate(1289.397 456)" opacity="0.47">
      <path id="Path_2" data-name="Path 2" d="M4.292,94.419a4.292,4.292,0,1,0,4.292,4.292A4.3,4.3,0,0,0,4.292,94.419Zm0-34.335a4.292,4.292,0,1,0,4.292,4.292,4.3,4.3,0,0,0-4.292-4.292ZM64.377,154.5a4.292,4.292,0,1,0,4.292,4.292A4.3,4.3,0,0,0,64.377,154.5ZM30.043,21.459a8.584,8.584,0,1,0,8.583,8.584A8.609,8.609,0,0,0,30.043,21.459Zm0,34.335a8.583,8.583,0,1,0,8.583,8.583,8.609,8.609,0,0,0-8.583-8.583Zm0,34.334a8.583,8.583,0,1,0,8.583,8.583A8.609,8.609,0,0,0,30.043,90.127ZM158.8,68.669a4.292,4.292,0,1,0-4.292-4.292,4.3,4.3,0,0,0,4.292,4.292ZM98.711,8.583a4.292,4.292,0,1,0-4.292-4.292A4.3,4.3,0,0,0,98.711,8.583ZM64.377,38.626a8.583,8.583,0,1,0-8.583-8.583A8.609,8.609,0,0,0,64.377,38.626Zm0-30.043a4.292,4.292,0,1,0-4.292-4.292A4.3,4.3,0,0,0,64.377,8.583ZM98.711,38.626a8.583,8.583,0,1,0-8.583-8.583A8.609,8.609,0,0,0,98.711,38.626ZM30.043,124.461a8.583,8.583,0,1,0,8.583,8.584A8.609,8.609,0,0,0,30.043,124.461ZM98.711,51.5a12.875,12.875,0,1,0,12.875,12.875A12.858,12.858,0,0,0,98.711,51.5Zm34.335,38.626a8.583,8.583,0,1,0,8.583,8.583A8.609,8.609,0,0,0,133.045,90.127Zm0,34.334a8.583,8.583,0,1,0,8.583,8.584A8.609,8.609,0,0,0,133.045,124.461Zm0-68.668a8.583,8.583,0,1,0,8.583,8.583,8.609,8.609,0,0,0-8.583-8.583ZM158.8,94.419a4.292,4.292,0,1,0,4.292,4.292A4.3,4.3,0,0,0,158.8,94.419ZM133.045,21.459a8.584,8.584,0,1,0,8.583,8.584A8.609,8.609,0,0,0,133.045,21.459ZM64.377,85.835A12.875,12.875,0,1,0,77.252,98.711,12.858,12.858,0,0,0,64.377,85.835Zm0,38.626a8.583,8.583,0,1,0,8.583,8.583A8.609,8.609,0,0,0,64.377,124.461Zm0-72.96A12.875,12.875,0,1,0,77.252,64.377,12.858,12.858,0,0,0,64.377,51.5Zm34.334,72.96a8.584,8.584,0,1,0,8.583,8.584A8.609,8.609,0,0,0,98.711,124.461Zm0,30.043A4.292,4.292,0,1,0,103,158.8,4.3,4.3,0,0,0,98.711,154.5Zm0-68.669a12.875,12.875,0,1,0,12.875,12.875A12.858,12.858,0,0,0,98.711,85.835Z" fill="rgba(34,122,254,0.65)"/>
    </g>
  </g>
</svg>
