<svg id="account" xmlns="http://www.w3.org/2000/svg" width="18" height="18" viewBox="0 0 18 18">
  <path id="Path_101450" data-name="Path 101450" d="M11.5,4A7.5,7.5,0,1,0,19,11.5,7.5,7.5,0,0,0,11.5,4Zm0,2.25A2.25,2.25,0,1,1,9.25,8.5,2.252,2.252,0,0,1,11.5,6.25Zm0,10.65A5.4,5.4,0,0,1,7,14.485c.019-1.489,3-2.31,4.5-2.31s4.477.821,4.5,2.31A5.4,5.4,0,0,1,11.5,16.9Z" transform="translate(-2.5 -2.5)" fill="#fff"/>
  <path id="Path_101451" data-name="Path 101451" d="M0,0H18V18H0Z" fill="none"/>
</svg>
