<svg xmlns="http://www.w3.org/2000/svg" xmlns:xlink="http://www.w3.org/1999/xlink" width="98" height="233" viewBox="0 0 98 233">
  <defs>
    <clipPath id="clip-path">
      <rect id="Rectangle_36633" data-name="Rectangle 36633" width="98" height="233" transform="translate(0 879)" fill="#fff" opacity="0"/>
    </clipPath>
  </defs>
  <g id="Mask_Group_4" data-name="Mask Group 4" transform="translate(0 -879)" clip-path="url(#clip-path)">
    <g id="Group_99982" data-name="Group 99982" transform="translate(-135.247 878.753)" opacity="0.47">
      <path id="Path_2" data-name="Path 2" d="M6.138,135.038a6.138,6.138,0,1,0,6.138,6.138A6.156,6.156,0,0,0,6.138,135.038Zm0-49.1a6.138,6.138,0,1,0,6.138,6.138,6.156,6.156,0,0,0-6.138-6.138ZM92.071,220.971a6.138,6.138,0,1,0,6.138,6.138A6.156,6.156,0,0,0,92.071,220.971ZM42.967,30.69A12.276,12.276,0,1,0,55.243,42.967,12.312,12.312,0,0,0,42.967,30.69Zm0,49.1A12.276,12.276,0,1,0,55.243,92.071,12.312,12.312,0,0,0,42.967,79.8Zm0,49.1a12.276,12.276,0,1,0,12.276,12.276A12.312,12.312,0,0,0,42.967,128.9Zm184.142-30.69a6.138,6.138,0,1,0-6.138-6.138,6.156,6.156,0,0,0,6.138,6.138ZM141.175,12.276a6.138,6.138,0,1,0-6.138-6.138A6.156,6.156,0,0,0,141.175,12.276Zm-49.1,42.967A12.276,12.276,0,1,0,79.8,42.967,12.312,12.312,0,0,0,92.071,55.243Zm0-42.967a6.138,6.138,0,1,0-6.138-6.138A6.156,6.156,0,0,0,92.071,12.276Zm49.1,42.967A12.276,12.276,0,1,0,128.9,42.967,12.312,12.312,0,0,0,141.175,55.243ZM42.967,178A12.276,12.276,0,1,0,55.243,190.28,12.312,12.312,0,0,0,42.967,178ZM141.175,73.657A18.414,18.414,0,1,0,159.59,92.071a18.389,18.389,0,0,0-18.414-18.414Zm49.1,55.243a12.276,12.276,0,1,0,12.276,12.276A12.312,12.312,0,0,0,190.28,128.9Zm0,49.1a12.276,12.276,0,1,0,12.276,12.277A12.312,12.312,0,0,0,190.28,178Zm0-98.209a12.276,12.276,0,1,0,12.276,12.276A12.312,12.312,0,0,0,190.28,79.8Zm36.828,55.243a6.138,6.138,0,1,0,6.138,6.138A6.156,6.156,0,0,0,227.109,135.038ZM190.28,30.69a12.276,12.276,0,1,0,12.276,12.277A12.312,12.312,0,0,0,190.28,30.69ZM92.071,122.761a18.414,18.414,0,1,0,18.414,18.414,18.389,18.389,0,0,0-18.414-18.414Zm0,55.243a12.276,12.276,0,1,0,12.276,12.276A12.312,12.312,0,0,0,92.071,178Zm0-104.347a18.414,18.414,0,1,0,18.414,18.414A18.389,18.389,0,0,0,92.071,73.657ZM141.175,178a12.276,12.276,0,1,0,12.276,12.277A12.312,12.312,0,0,0,141.175,178Zm0,42.967a6.138,6.138,0,1,0,6.138,6.138A6.156,6.156,0,0,0,141.175,220.971Zm0-98.209a18.414,18.414,0,1,0,18.414,18.414,18.389,18.389,0,0,0-18.414-18.414Z" fill="rgba(34,122,254,0.65)"/>
    </g>
  </g>
</svg>
