<svg xmlns="http://www.w3.org/2000/svg" xmlns:xlink="http://www.w3.org/1999/xlink" width="16.945" height="12.709" viewBox="0 0 16.945 12.709">
  <defs>
    <clipPath id="clip-path">
      <path id="Path_103032" data-name="Path 103032" d="M-80,0h16.945V12.709H-80Z" fill="rgba(0,0,0,0.67)"/>
    </clipPath>
  </defs>
  <g id="saudi_1_" data-name="saudi (1)" transform="translate(80)" clip-path="url(#clip-path)">
    <path id="Path_103015" data-name="Path 103015" d="M-120,0h19.063V12.709H-120Z" transform="translate(38.941)" fill="#199d00" fill-rule="evenodd"/>
    <path id="Path_103016" data-name="Path 103016" d="M60.953,118.955c-.022.3-.048.819.2.873.305.029.137-.516.247-.615.021-.049.059-.049.063.013v.463a.222.222,0,0,0,.173.226c.08-.006.133,0,.165.074l.038.8s.186.053.194-.45a4.7,4.7,0,0,1-.019-.6c0-.057.074-.06.124-.032.08.056.115.126.239.1.189-.052.3-.144.3-.289a1.255,1.255,0,0,0-.086-.413c.008-.025-.036-.09-.028-.115.034.053.085.049.1,0a.413.413,0,0,0-.163-.251c-.067-.059-.164-.047-.2.076a.668.668,0,0,0,.154.446.436.436,0,0,1,.039.222.119.119,0,0,1-.155-.03s-.15-.113-.15-.138a.538.538,0,0,0-.013-.355.481.481,0,0,0-.1-.2c-.038-.04-.088-.04-.113,0a.673.673,0,0,0,.013.473c.035.1.088.166.063.166-.021.057-.063.044-.094-.022a1.652,1.652,0,0,1-.053-.434c-.013-.114-.028-.358-.1-.42-.046-.062-.114-.032-.138.025a2.045,2.045,0,0,0,.007.331,3.62,3.62,0,0,1,.093.532c.007.251-.145.109-.138-.016a1.133,1.133,0,0,0-.005-.481c-.025-.065-.054-.081-.114-.07s-.171.131-.205.354a2.014,2.014,0,0,0-.042.216c-.017.115-.093.2-.146-.016-.046-.154-.074-.534-.151-.445Z" transform="translate(-137.207 -115.352)" fill="#fff" fill-rule="evenodd"/>
    <path id="Path_103017" data-name="Path 103017" d="M63.545,177.36c-.269.132-.53.254-.795.382a.808.808,0,0,1,.629-.51c.163,0,.122.063.166.128Z" transform="translate(-138.971 -172.539)" fill="#fff" fill-rule="evenodd"/>
    <path id="Path_103018" data-name="Path 103018" d="M77.578,120.491c-.419,1.079.981,1.23,1.137.044.015-.049.074-.1.084-.018-.032,1.074-1.082,1.147-1.261.81a1.04,1.04,0,0,1-.062-.363c-.027-.211-.137-.13-.155.08a1.306,1.306,0,0,0-.013.261c.056.848,1.408.484,1.628-.217.116-.388-.019-.674.044-.672.134.145.321.019.363-.031a.061.061,0,0,1,.093-.009.218.218,0,0,0,.327-.093,2.945,2.945,0,0,0,.044-.4c-.086.027-.149.044-.155.08l-.018.115c-.007.037-.081.038-.084-.009-.032-.147-.167-.167-.248.062-.055.044-.153.053-.164-.013.013-.153-.049-.174-.173-.1-.04-.3-.08-.594-.119-.9.052,0,.1.037.146-.022a1.637,1.637,0,0,0-.221-.513c-.029-.035-.055-.013-.093,0a.151.151,0,0,0-.106.186c.077.466.127.821.2,1.287.012.055-.034.127-.093.119-.1-.068-.125-.2-.3-.2a.333.333,0,0,0-.283.265.647.647,0,0,0,0,.305.249.249,0,0,0,.283.071c.075-.031.137-.106.164-.088s0,.27-.354.46c-.217.1-.389.119-.482-.058-.058-.111,0-.531-.137-.434Z" transform="translate(-153.143 -115.422)" fill="#fff" fill-rule="evenodd"/>
    <path id="Path_103019" data-name="Path 103019" d="M61.394,115.973a4.1,4.1,0,0,0,.482-.487l-.06-.049a.034.034,0,0,1,0-.058.158.158,0,0,0,.015-.241.24.24,0,0,0-.215,0,.18.18,0,0,0-.031.239c.053.025.106.079.071.108-.163.174-.609.474-.557.484A1.009,1.009,0,0,0,61.394,115.973Zm-2.4,1.613a.788.788,0,0,0-.08.7.174.174,0,0,0,.169.056.311.311,0,0,0,.113-.3c-.031-.049-.056-.057-.087-.015-.066.134-.093.042-.1-.033a1.724,1.724,0,0,1,.019-.377C59.039,117.51,59.023,117.543,58.989,117.586Zm6.381-.381c-.144-.311-.344-.618-.408-.736s-.544-.815-.614-.893c-.156-.185.253.077-.052-.291l-.22-.187c-.049-.035-.168-.1-.189.007a.6.6,0,0,0,.011.219.778.778,0,0,0,.123.187,13.926,13.926,0,0,1,1.336,2.147c.066-.031.051-.4.013-.453Z" transform="translate(-135.182 -112.001)" fill="#fff" fill-rule="evenodd"/>
    <path id="Path_103020" data-name="Path 103020" d="M280.685,120.8c-.028.032.07.168.2.168a.753.753,0,0,0,.577-.462.821.821,0,0,0,.131-.354,7.74,7.74,0,0,0-.143-1.8.3.3,0,0,1,.006-.125c.014-.017.061,0,.086-.041s-.1-.347-.173-.466c-.027-.053-.036-.089-.081.006a.671.671,0,0,0-.075.338c.1.707.133,1.325.2,2.032a.279.279,0,0,1-.05.207A1.992,1.992,0,0,1,280.685,120.8Zm2.892,0c-.154.089-.154.191-.03.195a.765.765,0,0,0,.641-.306,1.017,1.017,0,0,0,.1-.4,7.673,7.673,0,0,0-.117-1.773.966.966,0,0,1-.021-.182c.014-.036.084,0,.109-.037s-.181-.316-.257-.436c-.027-.053-.037-.089-.081.006a.553.553,0,0,0-.045.338,16.007,16.007,0,0,1,.215,2.025.711.711,0,0,1-.042.181,1.446,1.446,0,0,1-.211.245c-.07.052-.218.1-.266.14Z" transform="translate(-351.13 -114.558)" fill="#fff" fill-rule="evenodd"/>
    <path id="Path_103021" data-name="Path 103021" d="M270.031,120.987c0-.18,0-.335,0-.468a.84.84,0,0,0-.076-.338,1.213,1.213,0,0,1-.037-.292c-.021-.109-.016-.271-.047-.4a1.386,1.386,0,0,1-.027-.227c.013-.036.061,0,.085-.041a1.443,1.443,0,0,0-.2-.564c-.029-.052-.081-.034-.146.051-.06.056-.038.184-.015.3a10.217,10.217,0,0,1,.243,2.29C269.8,121.368,270.032,121.109,270.031,120.987Zm-1.135-.994c-.1,0-.3-.188-.358-.3a.2.2,0,0,1,.012-.159c.036-.023.091-.049.132-.024,0,0,.043.06.034.067.053.025.075.011.081-.011,0-.038-.016-.06-.016-.1a.112.112,0,0,1,.2-.058.423.423,0,0,1,.054.2c0,.032-.052-.006-.082,0s-.036.042-.039.072c-.005.081-.015.212-.017.31Zm-1.783,1.193a7.336,7.336,0,0,0-.012-.822c-.01-.34-.065-1-.092-1.107-.03-.207.085.023.069-.1a1.323,1.323,0,0,0-.287-.536c-.043-.062-.042-.074-.109.015a.625.625,0,0,0,.009.415,7.752,7.752,0,0,1,.18,1.209,9.766,9.766,0,0,1,.01,1.218c.073,0,.19-.118.231-.294Z" transform="translate(-337.469 -115.435)" fill="#fff" fill-rule="evenodd"/>
    <path id="Path_103022" data-name="Path 103022" d="M347.362,123.3c-.17-.286-.427-.6-.5-.711s-.65-.865-.724-.94c-.213-.223.1-.036-.041-.209a1.651,1.651,0,0,0-.251-.246c-.05-.032-.081-.094-.1.011a2.07,2.07,0,0,0-.007.278.375.375,0,0,0,.084.173,14.3,14.3,0,0,1,1.529,2.092C347.424,123.716,347.4,123.352,347.362,123.3Z" transform="translate(-414.471 -117.941)" fill="#fff" fill-rule="evenodd"/>
    <path id="Path_103023" data-name="Path 103023" d="M113.742,181.533c-.012.021-.04.049-.03.078a.071.071,0,0,0,.066.033c.028,0,.066.007.075-.01a.082.082,0,0,0,.014-.081A.073.073,0,0,0,113.742,181.533Z" transform="translate(-188.581 -176.7)" fill="#1ba400" fill-rule="evenodd"/>
    <path id="Path_103024" data-name="Path 103024" d="M114.147,119.538c.228.008.377.01.58.034,0,0,.175-.017.237-.027.264-.025.275.377.275.377,0,.236-.094.248-.21.273-.066.008-.1-.04-.136-.091a.344.344,0,0,1-.175.011c-.095-.006-.19-.006-.285-.011s-.154.01-.255,0c-.021.033-.048.078-.109.063s-.112-.15-.094-.259c.037-.079.027-.053.023-.088-.931-.024-1.872-.065-2.786-.053-.715,0-1.421.033-2.127.062a.938.938,0,0,1-.863-.356c.018,0,.961.053,1.237.036.51-.006.976-.047,1.5-.062,1.023.018,2.038.018,3.061.089a.143.143,0,0,1,.049-.264c.013-.009.019.079.042.077.121-.009.068.154.041.188Zm-4.109-5.641c-.155.443.089.928.258.881.122.051.2-.182.25-.436.034-.071.06-.079.078-.042,0,.338.024.413.111.516a.281.281,0,0,0,.367.007l.151-.151a.091.091,0,0,1,.126-.006c.046.042.04.114.138.165a.306.306,0,0,0,.3-.064c.055-.095.069-.128.094-.164.04-.053.107-.029.107-.013s-.046.059-.019.112c.047.035.058.013.086,0,.1-.047.172-.261.172-.261,0-.08-.04-.073-.069-.057s-.04.03-.078.054c-.048.007-.141.039-.188-.032a2.838,2.838,0,0,1-.084-.292c0-.006-.062-.136,0-.145.029.005.092.022.1-.031.031-.051-.066-.2-.132-.271a.143.143,0,0,0-.214-.006c-.054.05-.046.1-.057.157a.245.245,0,0,0,.05.214.654.654,0,0,1,.12.434.175.175,0,0,1-.157.079c-.042-.009-.109-.027-.145-.293-.027-.2.006-.483-.079-.615-.031-.08-.053-.157-.129-.02a.316.316,0,0,0-.044.3.454.454,0,0,1-.041.6.149.149,0,0,1-.192.026.205.205,0,0,1-.114-.161,2.2,2.2,0,0,0-.018-.52.094.094,0,0,0-.157-.031,1.186,1.186,0,0,0-.285.585c-.044.142-.091.1-.124.044-.08-.075-.086-.663-.182-.566Z" transform="translate(-183.237 -110.539)" fill="#fff" fill-rule="evenodd"/>
    <path id="Path_103025" data-name="Path 103025" d="M104.36,118.751c.07-.05.038-.085.143.021a1.788,1.788,0,0,1,.229.776c-.006.064.039.1.06.09.012-.15.376-.358.71-.389.051-.011.026-.109.035-.159a.3.3,0,1,1,.6-.013c-.026.37-.411.433-.628.463-.033.013-.047.028,0,.046l.908,0,.046.027c.006.022-.013,0-.049.063a.735.735,0,0,0-.091.286,4.449,4.449,0,0,1-.835.16c-.1.05-.148.117-.128.192s.252.166.252.17c.042.026.091.087-.012.212a1,1,0,0,1-.905-.474c-.036-.028-.074,0-.1.036a1.4,1.4,0,0,1-.638.53.431.431,0,0,1-.441-.142c-.057-.066-.055-.138-.076-.154-.1.042-.913.39-.809.228a5.691,5.691,0,0,1,.848-.58c.022-.07.062-.309.182-.386.007,0-.019.14-.016.2s0,.067.007.055a2.2,2.2,0,0,0,.418-.392c.036-.051.011-.18.011-.184-.069-.179-.166-.194-.2-.282-.032-.118-.018-.252.05-.29a.135.135,0,0,1,.2.012.6.6,0,0,1,.16.295c-.013.038-.1-.026-.127-.006a.394.394,0,0,1,.1.192.59.59,0,0,1-.015.415,1.305,1.305,0,0,1-.557.575.14.14,0,0,0,.061.134.281.281,0,0,0,.232,0,1.353,1.353,0,0,0,.555-.58,1.265,1.265,0,0,0-.06-.549c-.072-.166-.157-.4-.157-.408,0-.1.006-.14.051-.191Zm-2.378-.959c.1.05.3.029.293-.14,0-.015,0-.065-.005-.079-.021-.05-.08-.037-.093.014,0,.017.007.044-.008.053s-.042,0-.041-.043a.079.079,0,0,0-.018-.04.034.034,0,0,0-.023-.006c-.015,0-.014,0-.022.017a.143.143,0,0,0-.008.039c0,.017-.008.022-.02.025s-.011,0-.022-.006-.015-.01-.015-.022a.133.133,0,0,0-.007-.042.044.044,0,0,0-.026-.014c-.057,0-.061.065-.058.09C101.907,117.643,101.9,117.76,101.982,117.792Z" transform="translate(-177.093 -114.429)" fill="#fff" fill-rule="evenodd"/>
    <path id="Path_103026" data-name="Path 103026" d="M217.735,120.161c.1.05.353.021.293-.14,0-.015,0-.065-.005-.079-.021-.05-.08-.037-.093.014,0,.017.007.044-.008.053s-.042,0-.041-.043a.08.08,0,0,0-.018-.04.034.034,0,0,0-.023-.006c-.015,0-.014,0-.022.017a.144.144,0,0,0-.008.039c0,.017-.008.022-.02.025s-.011,0-.022-.006-.015-.01-.015-.022a.132.132,0,0,0-.007-.042.044.044,0,0,0-.026-.014c-.057,0-.061.065-.058.09C217.66,120.012,217.658,120.129,217.735,120.161Zm1.787-.537c.1.05.3.029.293-.14,0-.015,0-.065-.005-.079-.021-.05-.08-.037-.093.014,0,.017.007.044-.008.053s-.042,0-.041-.043a.08.08,0,0,0-.018-.04.034.034,0,0,0-.023-.006c-.015,0-.014,0-.022.017a.143.143,0,0,0-.008.039c0,.017-.008.022-.02.025s-.011,0-.022-.006-.015-.01-.015-.022a.133.133,0,0,0-.007-.042.044.044,0,0,0-.026-.014c-.057,0-.061.065-.058.09C219.447,119.475,219.445,119.592,219.523,119.624Zm.926,1.349a.635.635,0,0,0-.061.618.485.485,0,0,0,.225.257.158.158,0,0,0,.235-.025c.107-.111.108-.395.159-.451a.094.094,0,0,1,.167-.04.409.409,0,0,0,.152.132.256.256,0,0,0,.337.024.39.39,0,0,0,.18-.219,6.809,6.809,0,0,0,.013-1.168c0-.03-.1-.526-.1-.532s-.013-.253-.024-.312c0-.024-.008-.031.017-.028a.146.146,0,0,0,.047.031c.027,0,.051-.041.035-.083l-.249-.46c-.02-.02-.046-.041-.078.006a.18.18,0,0,0-.062.137c.007.109.027.22.034.329l.1.56c.031.4.039.726.071,1.125,0,.169-.057.316-.106.338,0,0-.075.043-.125,0a1.509,1.509,0,0,1-.183-.244.111.111,0,0,0-.177,0,2.454,2.454,0,0,0-.313.59c-.026.041-.1.076-.179,0A.83.83,0,0,1,220.448,120.973Zm-.879-2.327a.345.345,0,0,1,.138.322c-.019.115-.068.238-.1.222s.026-.114-.011-.218c-.021-.068-.149-.192-.135-.229-.026-.077.054-.11.112-.1Z" transform="translate(-289.781 -115.501)" fill="#fff" fill-rule="evenodd"/>
    <path id="Path_103027" data-name="Path 103027" d="M156.029,121.825a2.813,2.813,0,0,0-.019-.5c-.006-.134-.151-1.156-.181-1.257-.036-.192.141-.026.122-.137-.061-.141-.214-.345-.262-.467-.029-.052-.017-.1-.081-.014a1.048,1.048,0,0,0-.058.477,9.82,9.82,0,0,1,.286,2.231c.073,0,.157-.167.193-.332Zm1.6-2.117c.085.042.135.28.126.348-.017.124-.062.258-.095.241s.007-.184-.01-.236c-.019-.074-.135-.208-.123-.248A.081.081,0,0,1,157.629,119.708Zm-6.346,1.686c.082.031.13.206.121.256-.016.091-.06.19-.091.177s.007-.135-.009-.174c-.007-.093-.12-.142-.118-.182-.021-.074.047-.088.1-.077Z" transform="translate(-225.06 -116.241)" fill="#fff" fill-rule="evenodd"/>
    <path id="Path_103028" data-name="Path 103028" d="M211.713,202.96c.105.007.158.089.059.124s-.191.059-.191.2c.036.2-.049.129-.1.1a.513.513,0,0,1-.253-.371.1.1,0,0,1,.105-.1A2.821,2.821,0,0,0,211.713,202.96Z" transform="translate(-283.516 -197.545)" fill="#1b9d00" fill-rule="evenodd"/>
    <path id="Path_103029" data-name="Path 103029" d="M68.864,113.469c.121.036.128.213.119.265-.016.095-.059.2-.089.183s0-.14-.017-.18c-.018-.056-.12-.158-.108-.189C68.745,113.486,68.815,113.458,68.864,113.469Zm2.38.835a.216.216,0,0,0-.071.286.139.139,0,0,0,.15.048c.091.011.144-.17.144-.17s0-.051-.1.045c-.045.008-.051-.009-.062-.034a.223.223,0,0,1,.014-.142C71.331,114.293,71.3,114.273,71.244,114.3Zm.694-.9a.336.336,0,0,0-.142.237c0,.062-.014.062.026.1s.059.039.119.008a.127.127,0,0,0,.057-.084c.014-.071-.075.034-.086-.045s.037-.1.091-.174C72,113.4,72,113.362,71.938,113.4Zm.559.1a1.46,1.46,0,0,0-.04.275c-.016.069.072.1.112.01a.839.839,0,0,0,.064-.3C72.614,113.38,72.543,113.384,72.5,113.5Zm3.523,1.793c.012-.012.5-.356.5-.356.049-.017.039.177.016.176a1.927,1.927,0,0,1-.512.356c-.024.017-.048-.133,0-.176Zm.442,0c.085.042.119.292.11.36,0,.132-.082.238-.115.221s0-.164-.014-.216c-.019-.074-.091-.212-.079-.252A.083.083,0,0,1,76.461,115.29Zm-2.881,1.076a.637.637,0,0,1,.14-.12.092.092,0,0,1,.092.016c.008.048-.03.093-.018.157.01.026.018.054.065.044a.349.349,0,0,1,.225-.068c.059,0,.061.1.024.1a1.687,1.687,0,0,0-.307.108.071.071,0,0,1-.089-.012.093.093,0,0,1-.008-.091c0-.051-.017-.079-.06-.073s-.06.029-.076-.008S73.559,116.381,73.58,116.366Zm3.391.135a.062.062,0,0,1,0,.094c-.034.031-.058.048-.092.079-.016.027-.026.069.023.082.091.025.3-.11.3-.113a.066.066,0,0,0,.02-.074c-.02-.023-.064-.009-.094-.013-.014,0-.061-.007-.039-.049a.284.284,0,0,0,.038-.073c.014-.031,0-.052-.049-.069a.4.4,0,0,0-.13,0c-.031.007-.042.021-.047.058C76.9,116.481,76.935,116.477,76.97,116.5Z" transform="translate(-144.825 -110.382)" fill="#fff" fill-rule="evenodd"/>
    <path id="Path_103030" data-name="Path 103030" d="M167.075,124.428c-.013.023-.058.022-.1,0s-.065-.063-.052-.086.058-.022.1,0S167.088,124.4,167.075,124.428Zm-2.211-1.33a.075.075,0,0,1-.073-.05c-.015-.034-.007-.066.018-.072a.075.075,0,0,1,.073.05C164.9,123.059,164.889,123.091,164.864,123.1Z" transform="translate(-238.301 -119.718)" fill="#259f00" fill-rule="evenodd"/>
    <path id="Path_103031" data-name="Path 103031" d="M331.94,351.534c.232.011.45,0,.682.014.042.036.012.124-.016.117l-.194-.006c0-.074-.191-.062-.186,0a1.82,1.82,0,0,1-.3-.007C331.9,351.617,331.9,351.55,331.94,351.534Z" transform="translate(-401.004 -342.227)" fill="#209000" fill-rule="evenodd"/>
  </g>
</svg>
