<svg xmlns="http://www.w3.org/2000/svg" width="27" height="27" viewBox="0 0 27 27">
  <g id="Group_457" data-name="Group 457" transform="translate(-1228 -201)">
    <g id="Frame" transform="translate(1228 201)">
      <rect id="Frame-2" data-name="Frame" width="27" height="27" fill="none"/>
      <g id="Group" transform="translate(0 0)">
        <path id="Vector" d="M1.649,21.392A15.6,15.6,0,0,1,0,14.355C0,6.427,5.756,0,12.855,0S25.711,6.427,25.711,14.355a15.6,15.6,0,0,1-1.649,7.037Z" transform="translate(0 1.289)" fill="#1d3ba8"/>
        <path id="Vector-2" data-name="Vector" d="M22.182,3.325V9.918H12.265a.626.626,0,0,0-.657.588V25.68A14.583,14.583,0,0,1,0,19.1V6.606A14.689,14.689,0,0,1,12.547,0a15.273,15.273,0,0,1,9.635,3.325Z" transform="translate(1.808 1.289)" fill="#f29b00"/>
        <path id="Vector-3" data-name="Vector" d="M3.147.75V13.892A14.417,14.417,0,0,1,0,10.022V0A12.923,12.923,0,0,1,3.147.75Z" transform="translate(1.808 9.6)" fill="#e58303"/>
        <path id="Vector-4" data-name="Vector" d="M.584,0A.634.634,0,0,1,.65,0H21.531a.65.65,0,0,1,.651.651V12.366H12.265a.657.657,0,0,0-.657.657v.687c-1.653,1.143-3.043,2.041-7.325.206A14.437,14.437,0,0,0,0,12.717V.651A.651.651,0,0,1,.584,0Z" transform="translate(1.808 0)" fill="#f4b500"/>
        <path id="Vector-5" data-name="Vector" d="M2.971,13.405A12.7,12.7,0,0,0,0,12.717V.651A.651.651,0,0,1,.584,0,.634.634,0,0,1,.65,0H2.971Z" transform="translate(1.808 0)" fill="#f29b00"/>
        <path id="Vector-6" data-name="Vector" d="M.469,4.349A.469.469,0,0,1,0,3.88c0-.565.695-1.134,2.246-1.134a.469.469,0,0,1,0,.938,2.5,2.5,0,0,0-1.315.277.469.469,0,0,1-.462.388Zm0-2.745A.469.469,0,0,1,0,1.134C0,.57.695,0,2.246,0a.469.469,0,0,1,0,.938,2.5,2.5,0,0,0-1.315.277A.469.469,0,0,1,.469,1.6Zm0,5.49A.469.469,0,0,1,0,6.625C0,6.06.695,5.49,2.246,5.49a.469.469,0,0,1,0,.939,2.5,2.5,0,0,0-1.315.277.469.469,0,0,1-.462.388Zm0,2.745A.469.469,0,0,1,0,9.37c0-.565.695-1.134,2.246-1.134a.469.469,0,0,1,0,.939,2.5,2.5,0,0,0-1.315.277.469.469,0,0,1-.462.388Zm0,2.745A.469.469,0,0,1,0,12.115c0-.565.695-1.134,2.246-1.134a.469.469,0,0,1,0,.938A2.5,2.5,0,0,0,.931,12.2a.469.469,0,0,1-.462.388Zm0,2.745A.469.469,0,0,1,0,14.86c0-.565.695-1.134,2.246-1.134a.469.469,0,0,1,0,.938,2.5,2.5,0,0,0-1.315.277.469.469,0,0,1-.462.388Z" transform="translate(9.785 10.945)" fill="#b7dbf6"/>
        <path id="Vector-7" data-name="Vector" d="M.938,3.88h0m0-2.745h0m0,5.49h0m0,2.745h0m0,2.745h0m0,2.745h0" transform="translate(9.808 10.945)" fill="#b7dbf6"/>
        <path id="Vector-8" data-name="Vector" d="M2.891,3.49v1H0v-1L1.233.148a.226.226,0,0,1,.425,0Z" transform="translate(5.881 11.16)" fill="#fcecac"/>
        <path id="Vector-9" data-name="Vector" d="M1.658.148s-1.12,3.1-.212,3.673v.668H0v-1L1.233.148a.226.226,0,0,1,.425,0Z" transform="translate(5.916 11.16)" fill="#fce275"/>
        <path id="Vector-10" data-name="Vector" d="M1.445,0V10.528H0V.331A.142.142,0,0,1,.068.349.142.142,0,0,1,.119.4a.721.721,0,0,0,.6.327A.723.723,0,0,0,1.445,0Z" transform="translate(7.208 13.137)" fill="#06daf7"/>
        <path id="Vector-11" data-name="Vector" d="M1.445,10.528H0V0A.723.723,0,0,0,.723.723.721.721,0,0,0,1.327.4.142.142,0,0,1,1.445.331Z" transform="translate(5.922 13.137)" fill="#05b8e2"/>
        <path id="Vector-12" data-name="Vector" d="M1.445,0V3.326H0V0A.723.723,0,0,0,.723.723.723.723,0,0,0,1.445,0Z" transform="translate(7.208 20.34)" fill="#05b8e2"/>
        <path id="Vector-13" data-name="Vector" d="M1.445,0V3.326H0V0A.723.723,0,0,0,.723.723.723.723,0,0,0,1.445,0Z" transform="translate(5.922 20.34)" fill="#07a3d3"/>
        <path id="Vector-14" data-name="Vector" d="M4.3.723a.722.722,0,0,1-.723.723h-2.3A14.377,14.377,0,0,1,0,.618.722.722,0,0,1,.714,0H3.581A.722.722,0,0,1,4.3.723Z" transform="translate(5.22 23.666)" fill="#e8f3fc"/>
        <path id="Vector-15" data-name="Vector" d="M2.222,1.445h-.94A14.362,14.362,0,0,1,0,.618.722.722,0,0,1,.714,0H2.222a.723.723,0,0,0,0,1.445Zm1.359,0a.722.722,0,0,1,.514,1.23,14.277,14.277,0,0,1-2.813-1.23h2.3Z" transform="translate(5.22 23.666)" fill="#b7dbf6"/>
        <path id="Vector-16" data-name="Vector" d="M.79.418Q.388.221,0,0H.848A.248.248,0,0,0,.79.418Z" transform="translate(6.454 25.111)" fill="#97cbef"/>
        <path id="Vector-17" data-name="Vector" d="M0,1.638.55.148a.226.226,0,0,1,.425,0l.55,1.491a2.208,2.208,0,0,1-.762.136A2.207,2.207,0,0,1,0,1.638Z" transform="translate(6.527 11.303)" fill="#1d3ba8"/>
        <path id="Vector-18" data-name="Vector" d="M.975.148A12.562,12.562,0,0,0,.53,1.762,2.215,2.215,0,0,1,0,1.638L.55.148a.226.226,0,0,1,.425,0Z" transform="translate(6.543 11.304)" fill="#122894"/>
        <path id="Vector-19" data-name="Vector" d="M13.58,10.351A14.351,14.351,0,0,1,1.033,17.728c-.347,0-.691-.013-1.033-.037V.751A.753.753,0,0,1,.751,0H12.829a.753.753,0,0,1,.751.751Z" transform="translate(10.323 9.272)" fill="#55f3ff"/>
        <path id="Vector-20" data-name="Vector" d="M9.733,0a.753.753,0,0,1,.751.751V6.915c-1.311.7-2.893.912-6.2-.506A14.423,14.423,0,0,0,0,5.211V0H9.733Z" transform="translate(13.419 10.638)" fill="#06daf7"/>
        <path id="Vector-21" data-name="Vector" d="M.751,0H3.223V17.562a14.483,14.483,0,0,1-2.19.166c-.347,0-.691-.013-1.033-.037V.751A.753.753,0,0,1,.751,0Z" transform="translate(11.755 9.272)" fill="#05b8e2"/>
        <g id="Group-2" data-name="Group" transform="translate(9.018 11.61)">
          <path id="Vector-22" data-name="Vector" d="M0,3.215a.469.469,0,0,1,.931-.081,2.5,2.5,0,0,0,1.315.277,2.5,2.5,0,0,0,1.315-.277.469.469,0,0,1,.932.081C4.493,4.729,0,4.738,0,3.215ZM0,.47A.469.469,0,0,1,.931.388,2.5,2.5,0,0,0,2.246.666,2.5,2.5,0,0,0,3.561.388.469.469,0,0,1,4.493.47C4.493,1.984,0,1.993,0,.47ZM0,5.96a.469.469,0,0,1,.931-.081,2.5,2.5,0,0,0,1.315.277,2.493,2.493,0,0,0,1.315-.277.469.469,0,0,1,.932.081C4.493,7.474,0,7.483,0,5.96ZM0,8.7a.469.469,0,0,1,.931-.081A2.494,2.494,0,0,0,2.246,8.9a2.493,2.493,0,0,0,1.315-.277.469.469,0,0,1,.932.081c0,1.514-4.493,1.524-4.493,0ZM0,11.45a.469.469,0,0,1,.931-.081,2.5,2.5,0,0,0,1.315.277,2.494,2.494,0,0,0,1.315-.277.469.469,0,0,1,.932.081c0,1.514-4.493,1.523-4.493,0ZM0,14.2a.469.469,0,0,1,.931-.081,2.494,2.494,0,0,0,1.315.277,2.493,2.493,0,0,0,1.315-.277.469.469,0,0,1,.932.081C4.493,15.71,0,15.719,0,14.2Zm7.409-2.836v-2.2A.753.753,0,0,1,8.16,8.4h3.559a.753.753,0,0,1,.751.751v2.2a.258.258,0,0,0-.077-.013H7.486a.259.259,0,0,0-.077.013Z" transform="translate(0 0)" fill="#e8f3fc"/>
          <path id="Vector-23" data-name="Vector" d="M3.555,3.214h0m-2.616,0h0M3.555.469h0M.938.469h0M3.555,5.96h0m-2.616,0h0M3.555,8.7h0M.938,8.7h0M3.555,11.45h0m-2.616,0h0m2.616,2.745h0m-2.616,0h0" transform="translate(0 0)" fill="#e8f3fc"/>
        </g>
        <path id="Vector-24" data-name="Vector" d="M1.856,2.942H.077A.259.259,0,0,0,0,2.955V.751A.753.753,0,0,1,.751,0H2.606a.753.753,0,0,0-.751.751Zm3.205,0v.013a.258.258,0,0,0-.077-.013Z" transform="translate(16.128 20.014)" fill="#b7dbf6"/>
        <path id="Vector-25" data-name="Vector" d="M5.273.02a.264.264,0,0,1,.163.244V.819A14.327,14.327,0,0,1,0,3.75V.265A.264.264,0,0,1,.264,0H5.172a.264.264,0,0,1,.1.02Z" transform="translate(15.926 22.706)" fill="#f95d95"/>
        <path id="Vector-26" data-name="Vector" d="M1.83,3.092A14.285,14.285,0,0,1,0,3.75V.265A.264.264,0,0,1,.264,0h1.83A.265.265,0,0,0,1.83.265Z" transform="translate(16.222 22.706)" fill="#ef4a8a"/>
        <path id="Vector-27" data-name="Vector" d="M1.875.073A.455.455,0,0,0,1.869,0h.943c0,.024,0,.049,0,.073V1.69a1.4,1.4,0,0,1-.024.257,1.556,1.556,0,0,0-.914-.774ZM.024,1.947A1.4,1.4,0,0,1,0,1.69V.073C0,.049,0,.025,0,0H.945A.454.454,0,0,0,.938.073v1.1a1.557,1.557,0,0,0-.914.774Z" transform="translate(10.161 4.124)" fill="#f29b00"/>
        <path id="Vector-28" data-name="Vector" d="M3.105,1.553A1.553,1.553,0,1,1,1.553,0,1.553,1.553,0,0,1,3.105,1.553Z" transform="translate(10.017 4.53)" fill="#fce275"/>
        <path id="Vector-29" data-name="Vector" d="M.887.443A.443.443,0,1,1,.443,0,.443.443,0,0,1,.887.443Zm1.31,0A.443.443,0,1,1,2.067.13.443.443,0,0,1,2.2.443Z" transform="translate(10.466 5.569)" fill="#f4b500"/>
        <path id="Vector-30" data-name="Vector" d="M22.182.651v.9a2.7,2.7,0,0,1-2.7,2.7H2.7A2.7,2.7,0,0,1,0,1.552v-.9A.65.65,0,0,1,.65,0H21.531a.651.651,0,0,1,.651.651Z" transform="translate(1.808 0)" fill="#f9ce00"/>
        <path id="Vector-31" data-name="Vector" d="M3.967,4.249H2.7A2.7,2.7,0,0,1,0,1.552v-.9A.65.65,0,0,1,.65,0h2.5a.7.7,0,0,0-.242.53V2.59A1.832,1.832,0,0,0,3.967,4.249Z" transform="translate(1.808 0)" fill="#f4b500"/>
        <path id="Vector-32" data-name="Vector" d="M5.273.02a.264.264,0,0,1,.163.244V.819A14.382,14.382,0,0,1,2.568,2.743C1.44,2.387,1.02,2.133,0,1.753V.265A.264.264,0,0,1,.264,0H5.172a.264.264,0,0,1,.1.02Z" transform="translate(15.926 22.706)" fill="#ef4a8a"/>
        <path id="Vector-33" data-name="Vector" d="M0,1.753V.265A.264.264,0,0,1,.264,0h1.83A.265.265,0,0,0,1.83.265V2.488C1.062,2.2.794,2.049,0,1.753Z" transform="translate(16.222 22.706)" fill="#d32976"/>
      </g>
    </g>
  </g>
</svg>
