<svg xmlns="http://www.w3.org/2000/svg" width="27.101" height="27" viewBox="0 0 27.101 27">
  <g id="Group_463" data-name="Group 463" transform="translate(0 -0.258)">
    <g id="Frame" transform="translate(0)">
      <rect id="Frame-2" data-name="Frame" width="27" height="27" transform="translate(0.101 0.258)" fill="none"/>
      <g id="Group" transform="translate(0 3.224)">
        <path id="Vector" d="M10.447,17.066a.535.535,0,0,1-.27-.079l-4.525-3.54L1.222,19.813H19.655L15.241,13.43,10.7,16.987a.527.527,0,0,1-.254.079ZM.079,20.464c-.016-.016-.016-.032-.032-.048V20.4l-.016-.016A.8.8,0,0,1,0,20.194V8.826a.424.424,0,0,1,.429-.413h2.6l-.619-2.3a.43.43,0,0,1,.3-.508L23.576.015a.427.427,0,0,1,.524.3L27.085,11.43a.422.422,0,0,1-.3.508c-.587.159-4.572,1.254-5.906,1.588v6.7a.444.444,0,0,1-.3.413H20.5v.016H.4l-.016-.016A.333.333,0,0,1,.1,20.48ZM.841,9.684v9.192l4.144-5.954Zm19.194,9.208V9.7l-4.128,3.223Zm.841-9.986v3.747l5.271-1.413L23.4.936,3.334,6.3l.572,2.112H20.464a.413.413,0,0,1,.413.492ZM19.02,6.858a.424.424,0,0,1-.4-.3l-.587-2.191a.422.422,0,0,1,.3-.508l3.429-.921a.415.415,0,0,1,.524.3l.572,2.175a.424.424,0,0,1-.286.524c-.429.1-3.413.921-3.556.921Zm-.064-2.3.365,1.381,2.62-.714-.365-1.365Zm-17.3,4.7,8.8,6.858,8.8-6.858H1.651Z" transform="translate(0 0)" fill="#333"/>
        <g id="Group-2" data-name="Group" transform="translate(0.841 9.255)">
          <path id="Vector-2" data-name="Vector" d="M18.385.445V9.637L14.257,3.667ZM0,0H17.591L8.8,6.858Z" transform="translate(0.81)" fill="#ffa721"/>
          <path id="Vector-3" data-name="Vector" d="M18.813,10.129H.381L4.81,3.763,9.335,7.3a.535.535,0,0,0,.27.079A.527.527,0,0,0,9.859,7.3L14.4,3.747ZM0,0,4.144,3.239,0,9.192Z" transform="translate(0 0.429)" fill="#ffa721"/>
        </g>
        <path id="Vector-4" data-name="Vector" d="M.572,7.478,0,5.366,20.067,0l2.747,10.3-5.271,1.413V7.97a.413.413,0,0,0-.413-.492H.572ZM19.242,5a.424.424,0,0,0,.286-.524L18.956,2.3a.415.415,0,0,0-.524-.3L15,2.921a.422.422,0,0,0-.3.508l.587,2.191a.424.424,0,0,0,.4.3c.143,0,3.128-.826,3.556-.921Z" transform="translate(3.334 0.936)" fill="#ffe4af"/>
        <path id="Vector-5" data-name="Vector" d="M2.62,0l.365,1.365L.365,2.08,0,.7Z" transform="translate(18.956 3.857)" fill="#1aa1ff"/>
      </g>
    </g>
  </g>
</svg>
