<svg xmlns="http://www.w3.org/2000/svg" width="27" height="27.426" viewBox="0 0 27 27.426">
  <g id="Group_462" data-name="Group 462" transform="translate(-0.101)">
    <g id="Frame" transform="translate(0)">
      <rect id="Frame-2" data-name="Frame" width="27" height="27" transform="translate(0.101 0.426)" fill="none"/>
      <g id="Group" transform="translate(4.314)">
        <path id="Vector" d="M3.992,16.906a3.2,3.2,0,0,1-3.2-3.2V7.264a2.362,2.362,0,0,1,4.723,0v4.754a.4.4,0,1,1-.794,0V7.264a1.567,1.567,0,0,0-3.135,0v6.444a2.4,2.4,0,0,0,4.806,0V3.595a2.8,2.8,0,0,0-5.6,0V9.186a.4.4,0,1,1-.794,0V3.595a3.595,3.595,0,0,1,7.189,0V13.709a3.2,3.2,0,0,1-3.2,3.2Z" transform="translate(3.831 0)" fill="#95d6a4"/>
        <path id="Vector-2" data-name="Vector" d="M3.595,16.906A3.6,3.6,0,0,1,0,13.311V7.72a.4.4,0,1,1,.794,0V3.2a3.2,3.2,0,1,1,6.395,0V13.311A3.6,3.6,0,0,1,3.595,16.906ZM.794,9.642v3.67a2.8,2.8,0,0,0,5.6,0V3.2a2.4,2.4,0,1,0-4.806,0V9.642a1.567,1.567,0,0,0,3.135,0V4.888a.4.4,0,0,1,.794,0V9.642a2.362,2.362,0,1,1-4.724,0Z" transform="translate(11.282 10.194)" fill="#e28086"/>
        <path id="Vector-3" data-name="Vector" d="M10.63,13.663A3.571,3.571,0,0,1,8.088,12.61L.936,5.458A3.2,3.2,0,1,1,5.458.937l4.557,4.557a2.362,2.362,0,0,1-3.34,3.34L3.314,5.472a.4.4,0,1,1,.562-.562L7.237,8.272A1.567,1.567,0,0,0,9.453,6.055L4.9,1.5A2.4,2.4,0,0,0,1.5,4.9L8.65,12.048a2.8,2.8,0,0,0,3.96-3.96L8.656,4.135a.4.4,0,1,1,.562-.562l3.954,3.954a3.595,3.595,0,0,1-2.542,6.136Z" transform="translate(0 11.01)" fill="#80b4fb"/>
      </g>
    </g>
  </g>
</svg>
