<svg xmlns="http://www.w3.org/2000/svg" width="27.101" height="28" viewBox="0 0 27.101 28">
  <g id="Group_461" data-name="Group 461" transform="translate(0 0.406)">
    <g id="Frame" transform="translate(0)">
      <rect id="Frame-2" data-name="Frame" width="27" height="28" transform="translate(0.101 -0.406)" fill="none"/>
      <g id="Group" transform="translate(0 1.985)">
        <path id="Vector" d="M4.234,4.845a2.089,2.089,0,0,1-.206.9,2.7,2.7,0,0,1-1.6.789C.956,6.539,0,5.749,0,3.939,0,2.348,2.036,0,2.036,0a.458.458,0,0,1,.145.153C3.649,2.6,4.234,3.506,4.234,4.845Z" transform="translate(0.926 15.665)" fill="#9ec8fc"/>
        <path id="Vector-2" data-name="Vector" d="M3.463,6.066a2.457,2.457,0,0,0,1.094-.26A2.378,2.378,0,0,1,2.4,7.124,2.368,2.368,0,0,1,0,4.763C0,3.562.655,2.534,2.052.207A.359.359,0,0,1,2.566.056C1.543,1.767,1.059,2.672,1.059,3.7a2.368,2.368,0,0,0,2.4,2.361Z" transform="translate(0.397 15.61)" fill="#62a4fb"/>
        <path id="Vector-3" data-name="Vector" d="M4.234,0V10.978L0,11.507.529,0Z" transform="translate(0.926 1.985)" fill="#9ec8fc"/>
        <path id="Vector-4" data-name="Vector" d="M1.175,10.862a.4.4,0,0,0,.281.116H4.764v.662a.4.4,0,0,1-.4.4H.4a.4.4,0,0,1-.4-.4V0H1.059V10.581a.4.4,0,0,0,.116.281Z" transform="translate(0.397 1.985)" fill="#62a4fb"/>
        <path id="Vector-5" data-name="Vector" d="M1.853,2.677A6.113,6.113,0,0,1,.529,2.556L0,1.14.529,0H3.837a.4.4,0,0,1,.4.4V1.588C4.234,2.43,3.168,2.677,1.853,2.677Z" transform="translate(0.926 0.397)" fill="#dce6eb"/>
        <path id="Vector-6" data-name="Vector" d="M1.059,0V2.556C.42,2.411,0,2.116,0,1.588V.4A.4.4,0,0,1,.4,0Z" transform="translate(0.397 0.397)" fill="#b9c3cd"/>
        <path id="Vector-7" data-name="Vector" d="M4.234,4.845a2.089,2.089,0,0,1-.206.9,2.7,2.7,0,0,1-1.6.789C.956,6.539,0,5.749,0,3.939,0,2.348,2.036,0,2.036,0a.458.458,0,0,1,.145.153C3.649,2.6,4.235,3.506,4.234,4.845Z" transform="translate(8.107 15.665)" fill="#e175a5"/>
        <path id="Vector-8" data-name="Vector" d="M3.463,6.066a2.457,2.457,0,0,0,1.094-.26A2.378,2.378,0,0,1,2.4,7.124,2.368,2.368,0,0,1,0,4.763C0,3.562.655,2.534,2.052.207A.359.359,0,0,1,2.566.056C1.543,1.767,1.059,2.672,1.059,3.7a2.368,2.368,0,0,0,2.4,2.361Z" transform="translate(7.578 15.61)" fill="#de5791"/>
        <path id="Vector-9" data-name="Vector" d="M4.234,0V3.038L0,3.567.529,0Z" transform="translate(8.107 9.925)" fill="#e175a5"/>
        <path id="Vector-10" data-name="Vector" d="M1.175,2.922a.4.4,0,0,0,.281.116H4.764V3.7a.4.4,0,0,1-.4.4H.4A.4.4,0,0,1,0,3.7V0H1.059V2.641a.4.4,0,0,0,.116.281Z" transform="translate(7.578 9.925)" fill="#de5791"/>
        <path id="Vector-11" data-name="Vector" d="M1.853,10.617A6.113,6.113,0,0,1,.529,10.5L0,9.08.529,0H3.837a.4.4,0,0,1,.4.4V9.528C4.234,10.369,3.168,10.617,1.853,10.617Z" transform="translate(8.107 0.397)" fill="#dce6eb"/>
        <path id="Vector-12" data-name="Vector" d="M1.059,0V10.5C.42,10.35,0,10.056,0,9.528V.4A.4.4,0,0,1,.4,0Z" transform="translate(7.578 0.397)" fill="#b9c3cd"/>
        <path id="Vector-13" data-name="Vector" d="M4.234,4.845a2.089,2.089,0,0,1-.206.9,2.7,2.7,0,0,1-1.6.789C.956,6.539,0,5.749,0,3.939,0,2.348,2.036,0,2.036,0a.458.458,0,0,1,.145.153C3.649,2.6,4.234,3.506,4.234,4.845Z" transform="translate(15.288 15.665)" fill="#fbf490"/>
        <path id="Vector-14" data-name="Vector" d="M3.463,6.066a2.457,2.457,0,0,0,1.094-.26A2.378,2.378,0,0,1,2.4,7.124,2.368,2.368,0,0,1,0,4.763C0,3.562.655,2.534,2.052.207A.359.359,0,0,1,2.566.056C1.543,1.767,1.059,2.672,1.059,3.7a2.368,2.368,0,0,0,2.4,2.361Z" transform="translate(14.759 15.61)" fill="#f8e837"/>
        <path id="Vector-15" data-name="Vector" d="M4.234,0V6.743L0,7.273.529,0Z" transform="translate(15.288 6.219)" fill="#fbf490"/>
        <path id="Vector-16" data-name="Vector" d="M1.175,6.627a.4.4,0,0,0,.281.116H4.764V7.4a.4.4,0,0,1-.4.4H.4A.4.4,0,0,1,0,7.4V0H1.059V6.346a.4.4,0,0,0,.116.281Z" transform="translate(14.759 6.219)" fill="#f8e837"/>
        <path id="Vector-17" data-name="Vector" d="M1.853,6.912A6.113,6.113,0,0,1,.529,6.791L0,5.375.529,0H3.837a.4.4,0,0,1,.4.4V5.822c0,.842-1.066,1.089-2.382,1.089Z" transform="translate(15.288 0.397)" fill="#dce6eb"/>
        <path id="Vector-18" data-name="Vector" d="M1.059,0V6.791C.42,6.645,0,6.351,0,5.822V.4A.4.4,0,0,1,.4,0Z" transform="translate(14.759 0.397)" fill="#b9c3cd"/>
        <path id="Vector-19" data-name="Vector" d="M4.234,4.845a2.089,2.089,0,0,1-.206.9,2.7,2.7,0,0,1-1.6.789C.956,6.539,0,5.749,0,3.939,0,2.348,2.036,0,2.036,0a.458.458,0,0,1,.145.153C3.649,2.6,4.234,3.506,4.234,4.845Z" transform="translate(22.469 15.665)" fill="#4e5a61"/>
        <path id="Vector-20" data-name="Vector" d="M3.463,6.066a2.457,2.457,0,0,0,1.094-.26A2.378,2.378,0,0,1,2.4,7.124,2.368,2.368,0,0,1,0,4.763C0,3.562.655,2.534,2.052.207A.359.359,0,0,1,2.566.056C1.543,1.767,1.059,2.672,1.059,3.7a2.368,2.368,0,0,0,2.4,2.361Z" transform="translate(21.94 15.61)" fill="#3f4a4a"/>
        <path id="Vector-21" data-name="Vector" d="M4.234,0V8.861L0,9.39.529,0Z" transform="translate(22.469 4.102)" fill="#4e5a61"/>
        <path id="Vector-22" data-name="Vector" d="M1.175,8.744a.4.4,0,0,0,.281.116H4.764v.662a.4.4,0,0,1-.4.4H.4a.4.4,0,0,1-.4-.4V0H1.059V8.464a.4.4,0,0,0,.116.281Z" transform="translate(21.94 4.102)" fill="#3f4a4a"/>
        <path id="Vector-23" data-name="Vector" d="M1.853,4.794A6.113,6.113,0,0,1,.529,4.674L0,3.257.529,0H3.837a.4.4,0,0,1,.4.4V3.705C4.234,4.547,3.168,4.794,1.853,4.794Z" transform="translate(22.469 0.397)" fill="#dce6eb"/>
        <path id="Vector-24" data-name="Vector" d="M1.059,0V4.674C.42,4.528,0,4.234,0,3.705V.4A.4.4,0,0,1,.4,0Z" transform="translate(21.94 0.397)" fill="#b9c3cd"/>
        <path id="Vector-25" data-name="Vector" d="M2.778,23.131A2.794,2.794,0,0,1,0,20.373c0-1.253.639-2.316,1.912-4.433l.2-.327a.786.786,0,0,1,.669-.4h0a.788.788,0,0,1,.67.4l.2.326c.272.452.506.842.713,1.2a.4.4,0,1,1-.686.4c-.2-.35-.438-.738-.708-1.188l-.185-.308-.185.309C1.357,18.4.794,19.34.794,20.373a2.007,2.007,0,0,0,2,1.964,1.909,1.909,0,0,0,1.966-1.826A3.723,3.723,0,0,0,4.395,18.9a.4.4,0,1,1,.726-.322,4.517,4.517,0,0,1,.437,1.933,2.71,2.71,0,0,1-2.753,2.62H2.778Zm1.986-8.712H.794A.8.8,0,0,1,0,13.624V.794A.8.8,0,0,1,.794,0h3.97a.8.8,0,0,1,.794.794v12.83A.8.8,0,0,1,4.764,14.418ZM.794,3.148V13.624h3.97V3.148a4.583,4.583,0,0,1-1.985.324A4.582,4.582,0,0,1,.794,3.148Zm0-1.163c0,.6,1.244.692,1.985.692s1.985-.09,1.985-.692V.794H.794ZM17.14,23.131a2.794,2.794,0,0,1-2.778-2.758c0-1.253.639-2.316,1.912-4.433l.2-.327a.786.786,0,0,1,.669-.4h0a.788.788,0,0,1,.67.4l.2.326c.272.452.506.842.713,1.2a.4.4,0,1,1-.686.4c-.2-.35-.438-.738-.708-1.188l-.185-.308-.185.309c-1.235,2.053-1.8,2.991-1.8,4.024a2.007,2.007,0,0,0,2,1.964,1.909,1.909,0,0,0,1.966-1.826,3.723,3.723,0,0,0-.369-1.611.4.4,0,1,1,.726-.322,4.517,4.517,0,0,1,.437,1.933,2.71,2.71,0,0,1-2.753,2.62H17.14Zm1.986-8.712h-3.97a.8.8,0,0,1-.794-.794V.794A.8.8,0,0,1,15.156,0h3.97a.8.8,0,0,1,.794.794v12.83A.8.8,0,0,1,19.126,14.418Zm-3.97-7.036v6.242h3.97V7.382a4.583,4.583,0,0,1-1.985.324,4.582,4.582,0,0,1-1.985-.324Zm0-1.163c0,.6,1.244.692,1.985.692s1.985-.09,1.985-.692V.794h-3.97Zm9.165,16.911a2.794,2.794,0,0,1-2.778-2.758c0-1.253.639-2.316,1.912-4.433l.2-.327a.786.786,0,0,1,.669-.4h0a.788.788,0,0,1,.67.4l.2.326c.272.452.506.842.713,1.2a.4.4,0,1,1-.686.4c-.2-.35-.438-.738-.708-1.188l-.185-.308-.185.309c-1.235,2.054-1.8,2.991-1.8,4.024a2.007,2.007,0,0,0,2,1.964,1.909,1.909,0,0,0,1.966-1.826,3.723,3.723,0,0,0-.369-1.611.4.4,0,1,1,.726-.322,4.517,4.517,0,0,1,.437,1.933,2.71,2.71,0,0,1-2.753,2.62h-.027Zm1.986-8.712h-3.97a.8.8,0,0,1-.794-.794V.794A.8.8,0,0,1,22.337,0h3.97A.8.8,0,0,1,27.1.794v12.83A.8.8,0,0,1,26.307,14.418Zm-3.97-9.153v8.359h3.97V5.265a4.583,4.583,0,0,1-1.985.324,4.582,4.582,0,0,1-1.985-.324Zm0-1.163c0,.6,1.244.692,1.985.692s1.985-.09,1.985-.692V.794h-3.97ZM9.959,23.131a2.794,2.794,0,0,1-2.778-2.758c0-1.253.639-2.316,1.912-4.433l.2-.327a.786.786,0,0,1,.669-.4h0a.788.788,0,0,1,.67.4l.2.326c.272.452.506.842.713,1.2a.4.4,0,1,1-.686.4c-.2-.35-.438-.738-.708-1.188l-.185-.308-.185.309c-1.235,2.053-1.8,2.991-1.8,4.024a2.007,2.007,0,0,0,2,1.964,1.909,1.909,0,0,0,1.966-1.826,3.723,3.723,0,0,0-.369-1.611.4.4,0,1,1,.726-.322,4.517,4.517,0,0,1,.437,1.933,2.71,2.71,0,0,1-2.753,2.62H9.959Zm1.986-8.712H7.975a.8.8,0,0,1-.794-.794V.794A.8.8,0,0,1,7.975,0h3.97a.8.8,0,0,1,.794.794v12.83a.8.8,0,0,1-.794.794Zm-3.97-3.331v2.537h3.97V11.087a4.583,4.583,0,0,1-1.985.324,4.582,4.582,0,0,1-1.985-.324Zm0-1.163c0,.6,1.244.692,1.985.692s1.985-.09,1.985-.692V.794H7.975Z" transform="translate(0 0)"/>
      </g>
    </g>
  </g>
</svg>
