<svg xmlns="http://www.w3.org/2000/svg" width="27" height="27.101" viewBox="0 0 27 27.101">
  <g id="Group_458" data-name="Group 458" transform="translate(-0.101)">
    <g id="Frame" transform="translate(0 0)">
      <rect id="Frame-2" data-name="Frame" width="27" height="27" transform="translate(0.101)" fill="none"/>
      <g id="Group" transform="translate(2.258 0)">
        <path id="Vector" d="M18.97,24.391H0V0H12.647L18.97,6.323Z" transform="translate(0.452 2.258)" fill="#fcf05a"/>
        <path id="Vector-2" data-name="Vector" d="M18.97,23.487H0V0H12.647L18.97,6.323Z" transform="translate(3.162 0.452)" fill="#fdbd40"/>
        <path id="Vector-3" data-name="Vector" d="M0,0,6.323,6.323H0Z" transform="translate(15.809 0.452)" fill="#f49e21"/>
        <path id="Vector-4" data-name="Vector" d="M1.355,15.809h-.9a.452.452,0,0,1,0-.9h.9a.452.452,0,0,1,0,.9Zm12.647,0H3.162a.452.452,0,0,1,0-.9H14a.452.452,0,0,1,0,.9ZM1.355,13.1h-.9a.452.452,0,0,1,0-.9h.9a.452.452,0,0,1,0,.9ZM14,13.1H3.162a.452.452,0,0,1,0-.9H14a.452.452,0,0,1,0,.9ZM1.355,10.389h-.9a.452.452,0,0,1,0-.9h.9a.452.452,0,0,1,0,.9Zm12.647,0H3.162a.452.452,0,0,1,0-.9H14a.452.452,0,0,1,0,.9ZM1.355,7.678h-.9a.452.452,0,0,1,0-.9h.9a.452.452,0,0,1,0,.9ZM14,7.678H3.162a.452.452,0,0,1,0-.9H14a.452.452,0,0,1,0,.9ZM1.355,4.968h-.9a.452.452,0,0,1,0-.9h.9a.452.452,0,0,1,0,.9ZM14,4.968H3.162a.452.452,0,0,1,0-.9H14a.452.452,0,0,1,0,.9ZM.452,0h2.71V2.71H.452Z" transform="translate(5.42 4.517)" fill="#e9686a"/>
        <path id="Vector-5" data-name="Vector" d="M.132,11.611a.452.452,0,0,1,.319-.771h.9a.452.452,0,0,1,0,.9h-.9a.452.452,0,0,1-.319-.132Zm14.189-.639a.452.452,0,0,1-.319.771H3.162a.452.452,0,0,1,0-.9H14A.452.452,0,0,1,14.321,10.973ZM.132,8.9A.452.452,0,0,1,.452,8.13h.9a.452.452,0,0,1,0,.9h-.9A.452.452,0,0,1,.132,8.9Zm14.189-.639A.452.452,0,0,1,14,9.034H3.162a.452.452,0,0,1,0-.9H14A.452.452,0,0,1,14.321,8.262ZM.132,6.191A.452.452,0,0,1,.452,5.42h.9a.452.452,0,0,1,0,.9h-.9a.452.452,0,0,1-.319-.132Zm14.189-.639A.452.452,0,0,1,14,6.323H3.162a.452.452,0,0,1,0-.9H14A.452.452,0,0,1,14.321,5.552ZM.132,3.481A.452.452,0,0,1,.452,2.71h.9a.452.452,0,0,1,0,.9h-.9a.452.452,0,0,1-.319-.132Zm14.189-.639A.452.452,0,0,1,14,3.613H3.162a.452.452,0,0,1,0-.9H14A.452.452,0,0,1,14.321,2.842ZM.132.771A.452.452,0,0,1,.452,0h.9a.452.452,0,0,1,0,.9h-.9A.452.452,0,0,1,.132.771ZM2.842.132A.452.452,0,0,1,3.162,0H14a.452.452,0,0,1,0,.9H3.162A.452.452,0,0,1,2.842.132Z" transform="translate(5.42 8.582)"/>
        <path id="Vector-6" data-name="Vector" d="M.132,26.968A.452.452,0,0,1,0,26.649V2.258a.452.452,0,0,1,.452-.452H2.71V.452A.452.452,0,0,1,3.162,0H15.809c.01,0,.019,0,.026,0a.45.45,0,0,1,.117.023c.014,0,.028.009.042.015a.452.452,0,0,1,.132.09L22.45,6.456a.452.452,0,0,1,.09.132c.006.014.01.028.015.042a.427.427,0,0,1,.023.116c0,.01.006.019.006.028V23.939a.452.452,0,0,1-.452.452H19.874v2.258a.452.452,0,0,1-.452.452H.452a.452.452,0,0,1-.319-.132ZM16.26,1.542V6.323h4.781ZM3.613,23.487H21.68V7.227H15.809a.452.452,0,0,1-.452-.452V.9H3.613ZM.9,26.2H18.97V24.391H3.162a.452.452,0,0,1-.452-.452V2.71H.9Z" transform="translate(0 0)"/>
        <path id="Vector-7" data-name="Vector" d="M.132,3.481A.452.452,0,0,1,0,3.162V.452A.452.452,0,0,1,.452,0h2.71a.452.452,0,0,1,.452.452v2.71a.452.452,0,0,1-.452.452H.452a.452.452,0,0,1-.319-.132ZM.9,2.71H2.71V.9H.9Z" transform="translate(5.42 4.065)"/>
      </g>
    </g>
  </g>
</svg>
