<svg xmlns="http://www.w3.org/2000/svg" width="29.914" height="29.952" viewBox="0 0 29.914 29.952">
  <g id="icons8_bank_building_3" transform="translate(0.5 0.537)">
    <path id="Path_78849" data-name="Path 78849" d="M38.419,37.422V34.929h-1.5V20.97h1V18.478h1.5V16.484L25.457,11,11.5,16.484v1.994h1.5V20.97h1V34.929H12.5v2.493H11v2.493H39.914V37.422Z" transform="translate(-11 -11)" fill="none" stroke="#232f3e" stroke-width="1"/>
    <path id="Path_78850" data-name="Path 78850" d="M27.985,44.959H23V31h4.985m6.979,0H39.95V44.959H34.965" transform="translate(-17.018 -21.03)" fill="none" stroke="#232f3e" stroke-linecap="round" stroke-width="1"/>
    <path id="Path_78851" data-name="Path 78851" d="M33.451,43.944a.5.5,0,1,0,.5.5A.5.5,0,0,0,33.451,43.944Zm-1.994,0a.5.5,0,1,0,.5.5A.5.5,0,0,0,31.457,43.944Zm-1.994,0a.5.5,0,1,0,.5.5A.5.5,0,0,0,29.463,43.944Zm-1.994,0a.5.5,0,1,0,.5.5A.5.5,0,0,0,27.469,43.944Zm-1.994,0a.5.5,0,1,0,.5.5A.5.5,0,0,0,25.475,43.944Zm-1.994,0a.5.5,0,1,0,.5.5A.5.5,0,0,0,23.481,43.944Zm-1.994,0a.5.5,0,1,0,.5.5A.5.5,0,0,0,21.487,43.944Zm-1.994,0a.5.5,0,1,0,.5.5A.5.5,0,0,0,19.493,43.944Zm15.953,0a.5.5,0,1,0,.5.5A.5.5,0,0,0,35.445,43.944Zm3.988,0a.5.5,0,1,0,.5.5A.5.5,0,0,0,39.434,43.944Zm-1.994,0a.5.5,0,1,0,.5.5A.5.5,0,0,0,37.44,43.944Zm-19.941,0a.5.5,0,1,0,.5.5A.5.5,0,0,0,17.5,43.944ZM33.451,25a.5.5,0,1,0,.5.5A.5.5,0,0,0,33.451,25Zm-1.994,0a.5.5,0,1,0,.5.5A.5.5,0,0,0,31.457,25Zm-1.994,0a.5.5,0,1,0,.5.5A.5.5,0,0,0,29.463,25Zm-1.994,0a.5.5,0,1,0,.5.5A.5.5,0,0,0,27.469,25Zm-1.994,0a.5.5,0,1,0,.5.5A.5.5,0,0,0,25.475,25Zm-1.994,0a.5.5,0,1,0,.5.5A.5.5,0,0,0,23.481,25Zm-1.994,0a.5.5,0,1,0,.5.5A.5.5,0,0,0,21.487,25Zm-1.994,0a.5.5,0,1,0,.5.5A.5.5,0,0,0,19.493,25Zm15.953,0a.5.5,0,1,0,.5.5A.5.5,0,0,0,35.445,25Zm3.988,0a.5.5,0,1,0,.5.5A.5.5,0,0,0,39.434,25ZM37.44,25a.5.5,0,1,0,.5.5A.5.5,0,0,0,37.44,25ZM17.5,25a.5.5,0,1,0,.5.5A.5.5,0,0,0,17.5,25Zm1,2.493a.5.5,0,1,0,.5.5A.5.5,0,0,0,18.5,27.493Zm19.941,0a.5.5,0,1,0,.5.5A.5.5,0,0,0,38.437,27.493ZM18.5,41.451a.5.5,0,1,0,.5.5A.5.5,0,0,0,18.5,41.451Zm19.941,0a.5.5,0,1,0,.5.5A.5.5,0,0,0,38.437,41.451Zm-10.428-.5v-.9c-1.984-.132-3.232-1.22-3.239-2.83h1.47a1.766,1.766,0,0,0,1.769,1.519V35.578l-.617-.16A2.728,2.728,0,0,1,25,32.741c0-1.6,1.138-2.663,3.01-2.837v-.957h.95V29.9a2.964,2.964,0,0,1,3.017,2.8h-1.45a1.62,1.62,0,0,0-1.567-1.471v2.99l.645.146c1.741.423,2.559,1.3,2.559,2.739,0,1.7-1.173,2.76-3.2,2.934v.908h-.95Zm0-6.928v-2.8a1.471,1.471,0,0,0-1.526,1.387C26.482,33.331,27.009,33.823,28.008,34.024Zm.95,1.734v3c1.1-.063,1.727-.6,1.727-1.484C30.685,36.472,30.138,35.994,28.959,35.758Z" transform="translate(-14.009 -18.021)" fill="#232f3e"/>
  </g>
</svg>
