<svg xmlns="http://www.w3.org/2000/svg" width="16" height="16" viewBox="0 0 16 16">
  <g id="date" transform="translate(-2 -2)">
    <path id="Path_179518" data-name="Path 179518" d="M13.9,14.56a.679.679,0,0,0-.683.676.683.683,0,1,0,1.366,0A.675.675,0,0,0,13.9,14.56Zm0,4.27a.687.687,0,1,0,.683.683A.685.685,0,0,0,13.9,18.83Z" transform="translate(-4.905 -5.97)"/>
    <path id="Path_179519" data-name="Path 179519" d="M15.97,11.277V4.525a1.56,1.56,0,0,0-1.558-1.558H12.763v-.4a.571.571,0,1,0-1.143,0v.4H6.349v-.4a.571.571,0,0,0-1.143,0v.4H3.558A1.56,1.56,0,0,0,2,4.525v9.887A1.56,1.56,0,0,0,3.558,15.97h7.719a3.529,3.529,0,1,0,4.693-4.693Zm-1.5,5.581a2.389,2.389,0,1,1,2.388-2.389A2.391,2.391,0,0,1,14.469,16.857ZM3.143,4.525a.416.416,0,0,1,.415-.415H5.206v.954a.571.571,0,0,0,.325,1.042h.247a.571.571,0,0,0,.571-.571V4.11H11.62v.954a.571.571,0,0,0,.325,1.042h.247a.571.571,0,0,0,.571-.571V4.11h1.649a.416.416,0,0,1,.415.415V7.1H3.143Zm.415,10.3a.416.416,0,0,1-.415-.415V8.241H14.827v2.714a3.532,3.532,0,0,0-3.872,3.872h-7.4Z"/>
    <path id="Path_179520" data-name="Path 179520" d="M16.673,20.2H16.25v-.549a.62.62,0,0,0-.526-.683.62.62,0,0,0-.526.683v1.232a.62.62,0,0,0,.526.683h.948a.707.707,0,0,0,0-1.366Zm-9.4-5.643a.615.615,0,0,0-.526.676.625.625,0,0,0,.526.69c.295,0,.526-.308.526-.69A.611.611,0,0,0,7.276,14.56Zm6.808,0a.615.615,0,0,0-.526.676.625.625,0,0,0,.526.69c.295,0,.526-.308.526-.69A.611.611,0,0,0,14.084,14.56ZM7.276,18.83a.711.711,0,0,0,0,1.373c.295,0,.526-.308.526-.69A.618.618,0,0,0,7.276,18.83Z" transform="translate(-1.505 -6.195)"/>
  </g>
</svg>
