<svg xmlns="http://www.w3.org/2000/svg" width="20.925" height="20" viewBox="0 0 20.925 20">
  <g id="carts_1_" data-name="carts (1)" transform="translate(0 -10.67)">
    <g id="Group_112164" data-name="Group 112164" transform="translate(5.459 26.136)">
      <ellipse id="Ellipse_1945" data-name="Ellipse 1945" cx="2" cy="2.5" rx="2" ry="2.5" transform="translate(9.541 -0.466)" fill="#fff"/>
      <circle id="Ellipse_1946" data-name="Ellipse 1946" cx="2.5" cy="2.5" r="2.5" transform="translate(-0.458 -0.466)" fill="#fff"/>
    </g>
    <path id="Path_179872" data-name="Path 179872" d="M102.5,74.825a.455.455,0,0,0-.341-.154H85.786a.455.455,0,0,0-.446.546l1.82,9.1a.493.493,0,0,0,.506.364l13.646-1.82a.455.455,0,0,0,.391-.395l.91-7.278A.455.455,0,0,0,102.5,74.825Z" transform="translate(-81.692 -61.272)" fill="#fff"/>
    <g id="Group_112165" data-name="Group 112165" transform="translate(6.371 15.209)">
      <path id="Path_179873" data-name="Path 179873" d="M150.748,124.009a.455.455,0,0,1-.448-.38l-.91-5.459a.455.455,0,0,1,.9-.149l.91,5.459a.455.455,0,0,1-.374.523A.437.437,0,0,1,150.748,124.009Z" transform="translate(-149.385 -117.63)" fill="#fff"/>
      <path id="Path_179874" data-name="Path 179874" d="M214.2,123.208a.455.455,0,0,1-.455-.414l-.455-5a.455.455,0,0,1,.41-.5h0a.455.455,0,0,1,.494.412h0l.455,5a.455.455,0,0,1-.412.494h0Z" transform="translate(-210.56 -117.284)" fill="#fff"/>
      <path id="Path_179875" data-name="Path 179875" d="M277.788,122.8a.455.455,0,0,1-.455-.455v-4.549a.455.455,0,0,1,.91,0v4.549A.455.455,0,0,1,277.788,122.8Z" transform="translate(-271.877 -117.327)" fill="#fff"/>
      <path id="Path_179876" data-name="Path 179876" d="M331.052,122.287H331a.455.455,0,0,1-.4-.5v0l.455-4.094a.461.461,0,0,1,.5-.4.455.455,0,0,1,.4.5h0l-.455,4.094A.455.455,0,0,1,331.052,122.287Z" transform="translate(-322.866 -117.273)" fill="#fff"/>
      <path id="Path_179877" data-name="Path 179877" d="M384.458,121.655a.455.455,0,0,1-.441-.565l.91-3.639a.455.455,0,1,1,.888.2l-.005.02-.91,3.639A.455.455,0,0,1,384.458,121.655Z" transform="translate(-373.998 -117.096)" fill="#fff"/>
    </g>
    <path id="Path_179878" data-name="Path 179878" d="M18.65,25.226H8.151a3.193,3.193,0,0,1-3.122-2.559L2.811,11.58H.455a.455.455,0,1,1,0-.91H3.184a.455.455,0,0,1,.446.364L5.921,22.488a2.281,2.281,0,0,0,2.23,1.829h10.5a.455.455,0,1,1,0,.91Z" fill="#fff"/>
  </g>
</svg>
