<svg xmlns="http://www.w3.org/2000/svg" width="25.838" height="25.838" viewBox="0 0 25.838 25.838">
  <g id="Group_100199" data-name="Group 100199" transform="translate(-1238 -116)">
    <circle id="Ellipse_1471" data-name="Ellipse 1471" cx="12.919" cy="12.919" r="12.919" transform="translate(1238 116)" fill="#f5b800"/>
    <path id="cart" d="M51.152,38.56v-.946a2.367,2.367,0,1,1,4.731,0v.946h1.635a.3.3,0,0,1,.3.275l.562,8.279a.3.3,0,0,1-.275.315H48.955a.3.3,0,0,1-.3-.3v-.02l.562-8.279a.3.3,0,0,1,.3-.276Zm.888,0H55v-.946a1.481,1.481,0,1,0-2.957,0Zm-2.452,7.984h7.859l-.481-7.1h-6.9Z" transform="translate(1197.401 86.763)" fill="#fff"/>
  </g>
</svg>
