<svg xmlns="http://www.w3.org/2000/svg" width="17.364" height="16.534" viewBox="0 0 17.364 16.534">
  <g id="Group_100265" data-name="Group 100265" transform="translate(0 -10.915)">
    <path id="Path_176436" data-name="Path 176436" d="M13.151,23.41a2.019,2.019,0,1,0,2.017,2.021v0A2.021,2.021,0,0,0,13.151,23.41Zm3.581-9.669a.777.777,0,0,0-.147-.014H4.292l-.195-1.3a1.752,1.752,0,0,0-1.735-1.509H.779a.779.779,0,0,0,0,1.558H2.364a.2.2,0,0,1,.195.171l1.2,8.221a2.154,2.154,0,0,0,2.121,1.819h8.1a2.142,2.142,0,0,0,2.1-1.712l1.268-6.319a.779.779,0,0,0-.617-.913ZM8.2,25.343A2.019,2.019,0,0,0,6.18,23.412a2.019,2.019,0,0,0,.047,4.037h.049A2.019,2.019,0,0,0,8.2,25.343Z" transform="translate(0 0)" fill="#227afe"/>
  </g>
</svg>
