<svg xmlns="http://www.w3.org/2000/svg" width="25.838" height="25.838" viewBox="0 0 25.838 25.838">
  <g id="Group_100199" data-name="Group 100199" transform="translate(-1238.442 -116)">
    <circle id="Ellipse_1471" data-name="Ellipse 1471" cx="12.919" cy="12.919" r="12.919" transform="translate(1238.442 116)" fill="#f5b800"/>
    <path id="box" d="M25.451,2.638a.388.388,0,0,0-.24-.359L19.732.029a.388.388,0,0,0-.295,0L13.959,2.28a.388.388,0,0,0-.24.359v7.12a.388.388,0,0,0,.24.359l5.478,2.25a.387.387,0,0,0,.294,0l5.479-2.25a.388.388,0,0,0,.24-.359ZM19.585,4.5l-2.018-.829,4.362-1.9,2.153.885ZM14.495,3.25l1.741.715V5.983a.388.388,0,1,0,.776,0v-1.7l2.185.9v6.249L14.495,9.5ZM19.585.807l1.345.552-4.362,1.9-1.48-.608Zm.388,4.374,4.7-1.932V9.5l-4.7,1.932Z" transform="translate(1231.846 123.301)" fill="#fff"/>
  </g>
</svg>
