<svg xmlns="http://www.w3.org/2000/svg" xmlns:xlink="http://www.w3.org/1999/xlink" width="62.915" height="62.959" viewBox="0 0 62.915 62.959">
  <defs>
    <linearGradient id="linear-gradient" x1="0.169" y1="0.167" x2="0.777" y2="0.801" gradientUnits="objectBoundingBox">
      <stop offset="0" stop-color="#009dd9"/>
      <stop offset="1" stop-color="#37c6fd"/>
    </linearGradient>
  </defs>
  <g id="complete" transform="translate(-4.042 -4)">
    <path id="Path_104224" data-name="Path 104224" d="M29.895,44.848a2.249,2.249,0,0,1-1.641-.652l-10.68-10.68a2.25,2.25,0,0,1,3.182-3.182l9.1,9.1,17.1-17.066a2.25,2.25,0,1,1,3.182,3.182L31.48,44.2A2.249,2.249,0,0,1,29.895,44.848Z" transform="translate(1.599 2.2)" fill="#ffcd36"/>
    <path id="Path_104225" data-name="Path 104225" d="M35.474,66.959a31.479,31.479,0,1,1,31.479-33.2,2.252,2.252,0,1,1-4.5.247A27.086,27.086,0,1,0,59.736,47.3a2.249,2.249,0,1,1,4.036,1.967,31.232,31.232,0,0,1-18.28,16.066A31.637,31.637,0,0,1,35.474,66.959Z" transform="translate(0 0)" fill="url(#linear-gradient)"/>
  </g>
</svg>
