<svg xmlns="http://www.w3.org/2000/svg" width="10.193" height="13.292" viewBox="0 0 10.193 13.292">
  <path id="delete" d="M15.963,8.07l-.214,6.48a2.134,2.134,0,0,1-2.141,2.064H9.54A2.134,2.134,0,0,1,7.4,14.552L7.186,8.07a.536.536,0,0,1,1.07-.035l.214,6.481a1.07,1.07,0,0,0,1.07,1.029h4.068a1.07,1.07,0,0,0,1.07-1.031l.214-6.479a.536.536,0,0,1,1.07.035Zm.708-2.156a.535.535,0,0,1-.535.535H7.013a.535.535,0,1,1,0-1.07H8.672a.683.683,0,0,0,.681-.614,1.6,1.6,0,0,1,1.6-1.442H12.2a1.6,1.6,0,0,1,1.6,1.442.683.683,0,0,0,.681.614h1.659a.535.535,0,0,1,.535.535Zm-6.388-.535h2.584a1.766,1.766,0,0,1-.136-.505.535.535,0,0,0-.532-.482H10.951a.535.535,0,0,0-.532.482,1.766,1.766,0,0,1-.137.505Zm.539,8.109V8.93a.535.535,0,1,0-1.07,0v4.559a.535.535,0,0,0,1.07,0Zm2.577,0V8.93a.535.535,0,1,0-1.07,0v4.559a.535.535,0,0,0,1.07,0Z" transform="translate(-6.478 -3.322)" fill="#ee3535"/>
</svg>
