<svg xmlns="http://www.w3.org/2000/svg" width="19.733" height="17.718" viewBox="0 0 19.733 17.718">
  <g id="Flat_Color" data-name="Flat Color" transform="translate(0 0)">
    <path id="Path_176592" data-name="Path 176592" d="M10.11,18.967a8.859,8.859,0,1,1,0-17.717,8.68,8.68,0,0,1,3.973.948.619.619,0,1,1-.56,1.1,7.419,7.419,0,0,0-3.412-.824,7.623,7.623,0,1,0,7.624,7.631,1.649,1.649,0,0,0,0-.206.621.621,0,0,1,1.236-.115v.321a8.868,8.868,0,0,1-8.86,8.859Z" transform="translate(-1.25 -1.25)" fill="#227afe"/>
    <path id="Path_176593" data-name="Path 176593" d="M11.1,13.929a.61.61,0,0,1-.453-.192L6.442,9.608a.653.653,0,0,1,0-.923.671.671,0,0,1,.932,0l3.737,3.685L19.518,4.1a.671.671,0,0,1,.932,0,.653.653,0,0,1,0,.923l-8.869,8.712a.645.645,0,0,1-.479.192Z" transform="translate(-0.908 -3.116)" fill="#227afe"/>
  </g>
</svg>
