<svg xmlns="http://www.w3.org/2000/svg" width="16.946" height="12.709" viewBox="0 0 16.946 12.709">
  <g id="united-states-of-america_1_" data-name="united-states-of-america (1)" transform="translate(0 -85.331)">
    <rect id="Rectangle_9199" data-name="Rectangle 9199" width="16.946" height="12.709" transform="translate(0 85.331)" fill="#f0f0f0"/>
    <rect id="Rectangle_9200" data-name="Rectangle 9200" width="16.946" height="1.412" transform="translate(0 86.743)" fill="#d80027"/>
    <rect id="Rectangle_9201" data-name="Rectangle 9201" width="16.946" height="1.412" transform="translate(0 90.172)" fill="#d80027"/>
    <rect id="Rectangle_9202" data-name="Rectangle 9202" width="16.946" height="1.412" transform="translate(0 93.4)" fill="#d80027"/>
    <rect id="Rectangle_9203" data-name="Rectangle 9203" width="16.946" height="1.412" transform="translate(0 96.628)" fill="#d80027"/>
    <rect id="Rectangle_9204" data-name="Rectangle 9204" width="8.473" height="6.083" transform="translate(0 85.331)" fill="#2e52b2"/>
    <path id="Path_103069" data-name="Path 103069" d="M82.941,160.624l-.136.42h-.441l.357.259-.136.42.357-.259.357.259-.136-.42.357-.259h-.441Z" transform="translate(-79.637 -72.456)" fill="#f0f0f0"/>
    <path id="Path_103070" data-name="Path 103070" d="M83.077,206.817l-.136-.42-.136.42h-.441l.357.259-.136.42.357-.259.357.259-.136-.42.357-.259Z" transform="translate(-79.637 -116.504)" fill="#f0f0f0"/>
    <path id="Path_103071" data-name="Path 103071" d="M26.715,206.817l-.136-.42-.136.42H26l.357.259-.136.42.357-.259.357.259-.136-.42.357-.259Z" transform="translate(-25.14 -116.504)" fill="#f0f0f0"/>
    <path id="Path_103072" data-name="Path 103072" d="M26.579,160.624l-.136.42H26l.357.259-.136.42.357-.259.357.259-.136-.42.357-.259h-.441Z" transform="translate(-25.14 -72.456)" fill="#f0f0f0"/>
    <path id="Path_103073" data-name="Path 103073" d="M82.941,114.85l-.136.42h-.441l.357.259-.136.42.357-.259.357.259-.136-.42.357-.259h-.441Z" transform="translate(-79.637 -28.542)" fill="#f0f0f0"/>
    <path id="Path_103074" data-name="Path 103074" d="M26.579,114.85l-.136.42H26l.357.259-.136.42.357-.259.357.259-.136-.42.357-.259h-.441Z" transform="translate(-25.14 -28.542)" fill="#f0f0f0"/>
    <path id="Path_103075" data-name="Path 103075" d="M139.3,160.624l-.136.42h-.441l.357.259-.136.42.357-.259.357.259-.136-.42.357-.259h-.441Z" transform="translate(-134.134 -72.456)" fill="#f0f0f0"/>
    <path id="Path_103076" data-name="Path 103076" d="M139.439,206.817l-.136-.42-.136.42h-.441l.357.259-.136.42.357-.259.357.259-.136-.42.357-.259Z" transform="translate(-134.134 -116.504)" fill="#f0f0f0"/>
    <path id="Path_103077" data-name="Path 103077" d="M195.8,206.817l-.136-.42-.136.42h-.441l.357.259-.136.42.357-.259.357.259-.136-.42.357-.259Z" transform="translate(-188.631 -116.504)" fill="#f0f0f0"/>
    <path id="Path_103078" data-name="Path 103078" d="M195.666,160.624l-.136.42h-.441l.357.259-.136.42.357-.259.357.259-.136-.42.357-.259H195.8Z" transform="translate(-188.631 -72.456)" fill="#f0f0f0"/>
    <path id="Path_103079" data-name="Path 103079" d="M139.3,114.85l-.136.42h-.441l.357.259-.136.42.357-.259.357.259-.136-.42.357-.259h-.441Z" transform="translate(-134.134 -28.542)" fill="#f0f0f0"/>
    <path id="Path_103080" data-name="Path 103080" d="M195.666,114.85l-.136.42h-.441l.357.259-.136.42.357-.259.357.259-.136-.42.357-.259H195.8Z" transform="translate(-188.631 -28.542)" fill="#f0f0f0"/>
  </g>
</svg>
