<svg xmlns="http://www.w3.org/2000/svg" width="198.405" height="218.254" viewBox="0 0 198.405 218.254">
  <g id="Group_114347" data-name="Group 114347" transform="translate(-150.675 -97.843)">
    <path id="Path_262876" data-name="Path 262876" d="M348.95,184.33c-.02-7.74.03-15.48-.03-23.22a19.168,19.168,0,0,0-.68-5.06c-1.37-4.68-4.62-7.82-8.8-10.1q-18.3-9.99-36.59-20-24.6-13.47-49.15-26.99a7.041,7.041,0,0,0-7.53-.05c-7.03,3.97-14.14,7.81-21.23,11.68Q201.975,123.175,179,135.73c-6.72,3.69-13.5,7.29-20.13,11.13a15.346,15.346,0,0,0-8.15,13.83c-.08,15.41-.03,30.83-.03,46.25h.02c0,15.62-.05,31.24.02,46.86a14.475,14.475,0,0,0,6.79,12.48,101.509,101.509,0,0,0,15.14,8.2c6.3,2.71,12.26,1.19,17.3-3.39,3.65-3.32,5.15-7.64,5.15-12.53q-.015-19.11,0-38.23c0-.62-.02-1.24-.07-1.85a5.166,5.166,0,0,0-2.38-4.11c-1.09-.7-2.22-1.34-3.35-2.01-1.83-1.08-1.91-1.73-.33-3.03,2.27-1.87,4.58-3.7,6.87-5.55,1.28-1.03,2.54-2.1,3.87-3.04,1.28-.9,1.6-.8,2.45.52.3.46.54.95.8,1.44q6.045,11.55,12.07,23.11c.83,1.58.78,1.84-.82,2.7a5.467,5.467,0,0,0-3.23,5.08c0,1.44-.12,2.88-.12,4.31,0,15.49-.03,30.97.02,46.45a24.717,24.717,0,0,0,.62,5.89c1.26,5.02,4.53,8.44,9.04,10.86q12.66,6.81,25.22,13.8a7.668,7.668,0,0,0,8.13.06c9.88-5.48,19.82-10.84,29.72-16.27q21.51-11.79,43.02-23.62c4.56-2.5,9.16-4.92,13.68-7.51,5.68-3.26,8.67-8.12,8.66-14.8-.02-12.61.1-25.2.1-37.81,0-10.2-.09-20.41-.11-30.61Zm-150.79,2.91c-1.04.89-2.13,1.73-3.19,2.59-7.04,5.67-14.01,11.45-21.15,16.98-3.36,2.6-3.69,8.34.85,10.54,2.53,1.22,4.91,2.73,7.4,4.02a3.09,3.09,0,0,1,1.87,3.09c-.03,11.1-.02,22.19-.03,33.29a9.6,9.6,0,0,1-.31,2.44c-.74,2.87-3.63,4.91-6.29,3.7a148.3,148.3,0,0,1-13.84-7.54c-1.3-.77-1.62-2.46-1.61-4.05.02-3.43,0-6.85,0-10.28V176.04c0-.82-.02-1.65.03-2.46.31-4.51,4.28-6.75,8.26-4.59,7.46,4.04,14.9,8.14,22.35,12.21,1.8.99,3.61,1.96,5.41,2.96,1.98,1.11,2.02,1.56.24,3.08Zm45.92,67.42v41.9c0,4.16-.1,4.22-3.69,2.26-4.8-2.62-9.59-5.27-14.42-7.85a6.5,6.5,0,0,1-3.8-6.26c.05-12.74.01-25.47.01-38.2a8.378,8.378,0,0,1,.06-1.23c.19-1.12.65-1.38,1.73-.92a33.942,33.942,0,0,1,3.33,1.6c2.94,1.68,8.19-1.43,7.47-5.92a12.469,12.469,0,0,0-1.24-3.66q-9.885-18.93-19.84-37.82c-.89-1.7-1.83-3.37-2.67-5.09a4.61,4.61,0,0,1-.17-1.51,4.1,4.1,0,0,1,1.51.14c2.61,1.36,5.17,2.8,7.75,4.21,7.26,3.97,14.5,7.99,21.81,11.89a3.691,3.691,0,0,1,2.2,3.73c-.05,14.24-.03,28.48-.03,42.72Zm.28-100.01v38c0,3.46-.37,3.69-3.45,2.02q-20.175-11.025-40.34-22.06c-8.47-4.63-16.95-9.22-25.42-13.85a23.682,23.682,0,0,0-6.99-2.23,8.9,8.9,0,0,1-1.45-.57c.37-.43.67-1.01,1.13-1.27,3.63-2.05,7.29-4.06,10.95-6.06q23.22-12.72,46.44-25.43,7.74-4.245,15.45-8.51c3.17-1.75,3.67-1.46,3.67,2.19v37.8h0Zm47.4,126.53q-11.16,6.135-22.35,12.22-5.145,2.8-10.26,5.64c-3.08,1.71-3.52,1.44-3.52-2.18q-.015-10.08,0-20.14v-22.2c0-13.91.05-27.82-.05-41.73-.02-2.44.73-3.92,2.96-5.01,3.44-1.67,6.71-3.72,10.13-5.45a8.965,8.965,0,0,1,4.24-1.17c2.75.16,4.48,2.34,4.52,5.18.06,3.36.02,6.72.02,10.08,0,8.09-.04,16.17.04,24.25a3.637,3.637,0,0,1-2.27,3.7,81.141,81.141,0,0,0-7.37,4.07,5.816,5.816,0,0,0-.55,9.73c.8.65,1.56,1.33,2.36,1.98q11.19,9.03,22.39,18.07c1.82,1.47,1.82,1.81-.28,2.97Zm4.47-17.62c-1.07,2-1.46,2.14-3.24.75q-5.19-4.035-10.26-8.22c-1.64-1.35-1.62-2.16.28-2.95,4.64-1.94,6.12-5.32,6.01-10.25-.26-11.64-.07-23.29-.09-34.93a20.449,20.449,0,0,0-1.66-8.81,16.487,16.487,0,0,0-21.52-8.08c-2.49,1.13-4.84,2.55-7.25,3.85-2.38,1.29-3,.94-3-1.79-.01-181.06,0-25.75,0-38.63h0V116.7c0-3.46.43-3.72,3.47-2.05q27.615,15.135,55.24,30.29,8.55,4.7,17.1,9.36c.12.07.28.08.37.17.46.46.9.93,1.34,1.4-.6.23-1.2.48-1.81.68a59.742,59.742,0,0,0-6.94,2.39c-3.69,1.79-7.23,3.89-10.81,5.89-5.99,3.36-8.83,8.56-8.83,15.36-.02,16.64.03,33.28-.04,49.93-.02,3.19.86,5.61,3.88,7.02,1.25.58.86,1.53.39,2.43-1.92,3.7-3.83,7.42-5.77,11.11q-3.39,6.45-6.83,12.87Zm37.66-5.41c-9.08,4.94-18.13,9.93-27.22,14.85a8.266,8.266,0,0,1-2.22.48,8.893,8.893,0,0,1,.49-2.08q8.235-15.75,16.51-31.45c2.23-4.24,4.51-8.46,6.58-12.78a5.619,5.619,0,0,0-3.75-7.94,6.989,6.989,0,0,0-3.38.24,27.13,27.13,0,0,0-3.15,1.47c-1.14.48-1.65.17-1.82-1.06a12.837,12.837,0,0,1-.05-1.64c0-12.26.07-24.52-.05-36.78-.03-3.49,1.2-5.87,4.34-7.43,3.12-1.56,6.15-3.3,9.2-5.01a6.574,6.574,0,0,1,4.77-.64,4.777,4.777,0,0,1,3.57,4.07,26.175,26.175,0,0,1,.07,2.66v38.01c0,12.67-.07,25.62.05,38.43a6.793,6.793,0,0,1-3.96,6.58Z" fill="#234f64"/>
    <path id="Path_262877" data-name="Path 262877" d="M291.76,281.19q-11.16,6.135-22.35,12.22-5.13,2.8-10.26,5.64c-3.08,1.71-3.52,1.44-3.52-2.18q-.015-10.065,0-20.14v-22.2c0-13.91.05-27.82-.05-41.73-.02-2.45.74-3.92,2.96-5.01,3.44-1.68,6.71-3.72,10.13-5.45a8.965,8.965,0,0,1,4.24-1.17c2.75.16,4.48,2.34,4.52,5.18.05,3.36.02,6.71.02,10.07,0,8.09-.05,16.17.04,24.25a3.624,3.624,0,0,1-2.27,3.7,81.141,81.141,0,0,0-7.37,4.07,5.82,5.82,0,0,0-.55,9.73c.79.65,1.56,1.34,2.36,1.98q11.19,9.03,22.39,18.06c1.82,1.47,1.81,1.81-.28,2.97Z" fill="#ffcd05"/>
    <path id="Path_262878" data-name="Path 262878" d="M198.16,187.24c-1.04.89-2.13,1.73-3.19,2.59-7.04,5.67-14,11.45-21.15,16.98-3.36,2.6-3.69,8.35.85,10.54,2.52,1.22,4.91,2.73,7.4,4.02a3.09,3.09,0,0,1,1.87,3.09c-.04,11.1-.02,22.2-.04,33.29a9.6,9.6,0,0,1-.31,2.44c-.74,2.87-3.63,4.91-6.28,3.7a148.3,148.3,0,0,1-13.84-7.54c-1.29-.77-1.62-2.46-1.61-4.05.02-3.43,0-6.85,0-10.28V176.04c0-.82-.02-1.65.03-2.47.31-4.51,4.28-6.75,8.26-4.59,7.47,4.04,14.9,8.14,22.35,12.22,1.8.99,3.61,1.95,5.41,2.96,1.98,1.11,2.02,1.56.24,3.08Z" fill="#4974b9"/>
    <path id="Path_262879" data-name="Path 262879" d="M244.08,254.66v41.9c0,4.16-.1,4.22-3.69,2.27-4.81-2.62-9.6-5.27-14.43-7.85a6.5,6.5,0,0,1-3.8-6.26c.05-12.74.02-25.47.02-38.2a8.381,8.381,0,0,1,.05-1.23c.19-1.12.65-1.38,1.73-.92a33.942,33.942,0,0,1,3.33,1.6c2.94,1.68,8.19-1.43,7.47-5.92a12.242,12.242,0,0,0-1.25-3.65q-9.885-18.93-19.84-37.82c-.89-1.7-1.83-3.37-2.67-5.09a4.61,4.61,0,0,1-.17-1.51,4.1,4.1,0,0,1,1.51.14c2.61,1.36,5.17,2.8,7.75,4.21,7.26,3.98,14.5,8,21.81,11.89a3.7,3.7,0,0,1,2.2,3.73c-.05,14.24-.03,28.49-.03,42.73Z" fill="#4974b9"/>
    <path id="Path_262880" data-name="Path 262880" d="M337.85,251.58a6.778,6.778,0,0,1-3.96,6.58c-9.08,4.94-18.13,9.93-27.21,14.85a7.977,7.977,0,0,1-2.22.48,8.776,8.776,0,0,1,.49-2.08c5.48-10.5,11.01-20.97,16.51-31.45,2.23-4.24,4.51-8.46,6.58-12.78a5.616,5.616,0,0,0-3.75-7.93,6.989,6.989,0,0,0-3.38.24,27.13,27.13,0,0,0-3.15,1.47c-1.14.49-1.65.17-1.82-1.06a12.781,12.781,0,0,1-.05-1.64c0-12.26.07-24.52-.05-36.78-.03-3.49,1.2-5.87,4.34-7.43,3.12-1.55,6.15-3.3,9.2-5.01a6.581,6.581,0,0,1,4.77-.64,4.777,4.777,0,0,1,3.57,4.07,26.372,26.372,0,0,1,.07,2.67v38.01c0,12.67-.07,25.62.05,38.43Z" fill="#ffcd05"/>
  </g>
</svg>
