<svg xmlns="http://www.w3.org/2000/svg" xmlns:xlink="http://www.w3.org/1999/xlink" width="46" height="95" viewBox="0 0 46 95">
  <defs>
    <clipPath id="clip-path">
      <rect id="Rectangle_36639" data-name="Rectangle 36639" width="46" height="95" transform="translate(0 1039)" fill="#fff" opacity="0"/>
    </clipPath>
  </defs>
  <g id="Mask_Group_10" data-name="Mask Group 10" transform="translate(0 -1039)" clip-path="url(#clip-path)">
    <g id="Group_99982" data-name="Group 99982" transform="translate(-42.304 1044.912)" opacity="0.47">
      <path id="Path_2" data-name="Path 2" d="M2.227,48.984A2.226,2.226,0,1,0,4.453,51.21,2.233,2.233,0,0,0,2.227,48.984Zm0-17.812A2.227,2.227,0,1,0,4.453,33.4a2.233,2.233,0,0,0-2.227-2.227ZM33.4,80.155a2.227,2.227,0,1,0,2.227,2.227A2.233,2.233,0,0,0,33.4,80.155ZM15.586,11.133a4.453,4.453,0,1,0,4.453,4.453A4.466,4.466,0,0,0,15.586,11.133Zm0,17.812A4.453,4.453,0,1,0,20.039,33.4a4.466,4.466,0,0,0-4.453-4.453Zm0,17.812a4.453,4.453,0,1,0,4.453,4.453A4.466,4.466,0,0,0,15.586,46.757Zm66.8-11.133A2.227,2.227,0,1,0,80.155,33.4a2.233,2.233,0,0,0,2.227,2.227ZM51.21,4.453a2.226,2.226,0,1,0-2.227-2.226A2.233,2.233,0,0,0,51.21,4.453ZM33.4,20.039a4.453,4.453,0,1,0-4.453-4.453A4.466,4.466,0,0,0,33.4,20.039Zm0-15.586a2.226,2.226,0,1,0-2.227-2.226A2.233,2.233,0,0,0,33.4,4.453ZM51.21,20.039a4.453,4.453,0,1,0-4.453-4.453A4.466,4.466,0,0,0,51.21,20.039ZM15.586,64.569a4.453,4.453,0,1,0,4.453,4.453A4.466,4.466,0,0,0,15.586,64.569ZM51.21,26.718a6.68,6.68,0,1,0,6.68,6.68,6.671,6.671,0,0,0-6.68-6.68ZM69.022,46.757a4.453,4.453,0,1,0,4.453,4.453A4.466,4.466,0,0,0,69.022,46.757Zm0,17.812a4.453,4.453,0,1,0,4.453,4.453A4.466,4.466,0,0,0,69.022,64.569Zm0-35.624A4.453,4.453,0,1,0,73.475,33.4a4.466,4.466,0,0,0-4.453-4.453ZM82.382,48.984a2.226,2.226,0,1,0,2.227,2.226A2.233,2.233,0,0,0,82.382,48.984ZM69.022,11.133a4.453,4.453,0,1,0,4.453,4.453A4.466,4.466,0,0,0,69.022,11.133ZM33.4,44.531a6.68,6.68,0,1,0,6.68,6.68,6.671,6.671,0,0,0-6.68-6.68Zm0,20.039a4.453,4.453,0,1,0,4.453,4.453A4.466,4.466,0,0,0,33.4,64.569Zm0-37.851a6.68,6.68,0,1,0,6.68,6.68A6.671,6.671,0,0,0,33.4,26.718ZM51.21,64.569a4.453,4.453,0,1,0,4.453,4.453A4.466,4.466,0,0,0,51.21,64.569Zm0,15.586a2.227,2.227,0,1,0,2.227,2.227A2.233,2.233,0,0,0,51.21,80.155Zm0-35.625a6.68,6.68,0,1,0,6.68,6.68,6.671,6.671,0,0,0-6.68-6.68Z" fill="rgba(34,122,254,0.65)"/>
    </g>
  </g>
</svg>
