<svg id="Component_460_1" data-name="Component 460 – 1" xmlns="http://www.w3.org/2000/svg" width="21.339" height="21.339" viewBox="0 0 21.339 21.339">
  <g id="search_2_" data-name="search (2)" transform="translate(-1.041 -1.042)">
    <g id="Group_112166" data-name="Group 112166" transform="translate(11.562 11.566)">
      <path id="Path_179879" data-name="Path 179879" d="M0,0H2.43V7.856H0Z" transform="translate(0 1.718) rotate(-45)" fill="#e0ebfc"/>
    </g>
    <g id="Group_112167" data-name="Group 112167" transform="translate(11.397 11.398)">
      <path id="Path_179880" data-name="Path 179880" d="M130,131.884a.168.168,0,0,1-.119-.049l-5.555-5.555a.168.168,0,0,1,0-.238l1.718-1.718a.168.168,0,0,1,.238,0l5.555,5.555a.168.168,0,0,1,0,.238l-1.718,1.718A.168.168,0,0,1,130,131.884Zm-5.318-5.723L130,131.478,131.477,130l-5.318-5.318Z" transform="translate(-124.273 -124.274)" fill="#3762cc"/>
    </g>
    <g id="Group_112168" data-name="Group 112168" transform="translate(13.983 13.984)">
      <path id="Path_179881" data-name="Path 179881" d="M162.751,162.751a1.822,1.822,0,0,1-2.577,0l-5-5a.405.405,0,0,1,0-.573l2-2a.405.405,0,0,1,.573,0l5,5A1.823,1.823,0,0,1,162.751,162.751Z" transform="translate(-155.054 -155.054)" fill="#f5b800"/>
    </g>
    <g id="Group_112169" data-name="Group 112169" transform="translate(11.068 11.069)">
      <path id="Path_179882" data-name="Path 179882" d="M124.4,122.6,122.6,124.4a.362.362,0,0,1-.512,0l-1.729-1.729,2.306-2.306,1.729,1.729A.362.362,0,0,1,124.4,122.6Z" transform="translate(-120.363 -120.363)" fill="#feea66"/>
    </g>
    <g id="Group_112170" data-name="Group 112170" transform="translate(13.815 13.816)">
      <path id="Path_179883" data-name="Path 179883" d="M159.633,161.623a1.984,1.984,0,0,1-1.408-.582l-5-5a.574.574,0,0,1,0-.81l2-2a.574.574,0,0,1,.81,0l5,5a1.989,1.989,0,0,1-1.408,3.4Zm-4-8.229a.236.236,0,0,0-.168.069l-2,2a.237.237,0,0,0,0,.335l5,5a1.654,1.654,0,1,0,2.34-2.34l-5-5A.236.236,0,0,0,155.634,153.394Zm5.287,7.529h0Z" transform="translate(-153.057 -153.058)" fill="#3762cc"/>
    </g>
    <g id="Group_112171" data-name="Group 112171" transform="translate(10.9 10.901)">
      <path id="Path_179884" data-name="Path 179884" d="M120.516,122.84a.527.527,0,0,1-.375-.155l-1.729-1.729a.168.168,0,0,1,0-.238l2.306-2.306a.168.168,0,0,1,.238,0l1.729,1.729a.53.53,0,0,1,0,.75l-1.793,1.793A.527.527,0,0,1,120.516,122.84Zm-1.748-2,1.61,1.61a.2.2,0,0,0,.275,0l1.793-1.793a.194.194,0,0,0,0-.275l-1.61-1.61Z" transform="translate(-118.362 -118.363)" fill="#3762cc"/>
    </g>
    <g id="Group_112172" data-name="Group 112172" transform="translate(1.206 1.207)">
      <circle id="Ellipse_1947" data-name="Ellipse 1947" cx="7.257" cy="7.257" r="7.257" transform="translate(0 0)" fill="#feea66"/>
    </g>
    <g id="Group_112173" data-name="Group 112173" transform="translate(3.092 3.093)">
      <circle id="Ellipse_1948" data-name="Ellipse 1948" cx="5.371" cy="5.371" r="5.371" fill="#e0ebfc"/>
    </g>
    <g id="Group_112174" data-name="Group 112174" transform="translate(1.041 1.042)">
      <path id="Path_179885" data-name="Path 179885" d="M8.463,15.889a7.426,7.426,0,1,1,5.25-2.175,7.377,7.377,0,0,1-5.25,2.175Zm0-14.511a7.084,7.084,0,1,0,5.013,2.073A7.067,7.067,0,0,0,8.463,1.378Z" transform="translate(-1.041 -1.042)" fill="#3762cc"/>
    </g>
    <g id="Group_112175" data-name="Group 112175" transform="translate(2.927 2.928)">
      <path id="Path_179886" data-name="Path 179886" d="M29.016,34.553a5.536,5.536,0,1,1,3.917-1.62A5.522,5.522,0,0,1,29.016,34.553Zm0-10.737A5.2,5.2,0,1,0,32.7,25.337,5.186,5.186,0,0,0,29.016,23.816Z" transform="translate(-23.48 -23.48)" fill="#3762cc"/>
    </g>
  </g>
</svg>
