<svg xmlns="http://www.w3.org/2000/svg" xmlns:xlink="http://www.w3.org/1999/xlink" width="95" height="149" viewBox="0 0 95 149">
  <defs>
    <clipPath id="clip-path">
      <rect id="Rectangle_36635" data-name="Rectangle 36635" width="95" height="149" transform="translate(0 197)" fill="#fff" opacity="0"/>
    </clipPath>
  </defs>
  <g id="Mask_Group_6" data-name="Mask Group 6" transform="translate(0 -197)" clip-path="url(#clip-path)">
    <g id="Group_99982" data-name="Group 99982" transform="translate(-53.247 199)" opacity="0.47">
      <path id="Path_2" data-name="Path 2" d="M3.835,84.371A3.835,3.835,0,1,0,7.67,88.206,3.846,3.846,0,0,0,3.835,84.371Zm0-30.681A3.835,3.835,0,1,0,7.67,57.526a3.846,3.846,0,0,0-3.835-3.835Zm53.691,84.371a3.835,3.835,0,1,0,3.835,3.835A3.846,3.846,0,0,0,57.526,138.062ZM26.846,19.175a7.67,7.67,0,1,0,7.67,7.67A7.693,7.693,0,0,0,26.846,19.175Zm0,30.681a7.67,7.67,0,1,0,7.67,7.67,7.693,7.693,0,0,0-7.67-7.67Zm0,30.68a7.67,7.67,0,1,0,7.67,7.67A7.693,7.693,0,0,0,26.846,80.536ZM141.9,61.361a3.835,3.835,0,1,0-3.835-3.835,3.846,3.846,0,0,0,3.835,3.835ZM88.206,7.67a3.835,3.835,0,1,0-3.835-3.835A3.846,3.846,0,0,0,88.206,7.67ZM57.526,34.516a7.67,7.67,0,1,0-7.67-7.67A7.693,7.693,0,0,0,57.526,34.516Zm0-26.846a3.835,3.835,0,1,0-3.835-3.835A3.846,3.846,0,0,0,57.526,7.67Zm30.68,26.846a7.67,7.67,0,1,0-7.67-7.67A7.693,7.693,0,0,0,88.206,34.516Zm-61.361,76.7a7.67,7.67,0,1,0,7.67,7.67A7.693,7.693,0,0,0,26.846,111.217Zm61.361-65.2A11.505,11.505,0,1,0,99.711,57.526,11.49,11.49,0,0,0,88.206,46.021Zm30.681,34.516a7.67,7.67,0,1,0,7.67,7.67A7.693,7.693,0,0,0,118.887,80.536Zm0,30.68a7.67,7.67,0,1,0,7.67,7.67A7.693,7.693,0,0,0,118.887,111.217Zm0-61.361a7.67,7.67,0,1,0,7.67,7.67,7.693,7.693,0,0,0-7.67-7.67ZM141.9,84.371a3.835,3.835,0,1,0,3.835,3.835A3.846,3.846,0,0,0,141.9,84.371Zm-23.01-65.2a7.67,7.67,0,1,0,7.67,7.67A7.693,7.693,0,0,0,118.887,19.175ZM57.526,76.7A11.505,11.505,0,1,0,69.031,88.206,11.49,11.49,0,0,0,57.526,76.7Zm0,34.516a7.67,7.67,0,1,0,7.67,7.67A7.693,7.693,0,0,0,57.526,111.217Zm0-65.2A11.505,11.505,0,1,0,69.031,57.526,11.49,11.49,0,0,0,57.526,46.021Zm30.68,65.2a7.67,7.67,0,1,0,7.67,7.67A7.693,7.693,0,0,0,88.206,111.217Zm0,26.846a3.835,3.835,0,1,0,3.835,3.835A3.846,3.846,0,0,0,88.206,138.062Zm0-61.361A11.505,11.505,0,1,0,99.711,88.206,11.49,11.49,0,0,0,88.206,76.7Z" fill="rgba(34,122,254,0.65)"/>
    </g>
  </g>
</svg>
