<svg xmlns="http://www.w3.org/2000/svg" width="25.838" height="25.838" viewBox="0 0 25.838 25.838">
  <g id="Group_112078" data-name="Group 112078" transform="translate(-1221 -875)">
    <circle id="Ellipse_1925" data-name="Ellipse 1925" cx="12.919" cy="12.919" r="12.919" transform="translate(1221 875)" fill="#f5b800"/>
    <g id="exclamation" transform="translate(1224.25 878.25)">
      <path id="Path_179515" data-name="Path 179515" d="M9.73,4.67a5.06,5.06,0,1,0,5.06,5.06A5.06,5.06,0,0,0,9.73,4.67ZM3.75,9.73a5.98,5.98,0,1,1,5.98,5.98A5.98,5.98,0,0,1,3.75,9.73Z" fill="#fff" fill-rule="evenodd"/>
      <path id="Path_179516" data-name="Path 179516" d="M19.21,12.25a.46.46,0,0,1,.46.46v2.938a.46.46,0,0,1-.92,0V12.71a.46.46,0,0,1,.46-.46Z" transform="translate(-9.48 -5.372)" fill="#fff" fill-rule="evenodd"/>
      <path id="Path_179517" data-name="Path 179517" d="M18.333,26.447a.613.613,0,0,1,.613-.613h.006a.613.613,0,0,1,0,1.227h-.006A.613.613,0,0,1,18.333,26.447Z" transform="translate(-9.216 -13.956)" fill="#fff" fill-rule="evenodd"/>
    </g>
  </g>
</svg>
