<svg xmlns="http://www.w3.org/2000/svg" width="10" height="10" viewBox="0 0 10 10">
  <path id="home" d="M10.231,4.349h0L6.151.269a.921.921,0,0,0-1.3,0L.771,4.346l0,0A.92.92,0,0,0,1.38,5.919h.191v3A1.079,1.079,0,0,0,2.648,10h1.6a.293.293,0,0,0,.293-.293V7.353a.492.492,0,0,1,.492-.492h.941a.492.492,0,0,1,.492.492V9.706A.293.293,0,0,0,6.755,10h1.6A1.079,1.079,0,0,0,9.429,8.922v-3H9.58a.921.921,0,0,0,.652-1.571Zm-.415.887a.333.333,0,0,1-.237.1H9.136a.293.293,0,0,0-.293.293V8.922a.492.492,0,0,1-.492.491h-1.3V7.353A1.079,1.079,0,0,0,5.971,6.275H5.029A1.079,1.079,0,0,0,3.952,7.353V9.413h-1.3a.492.492,0,0,1-.492-.491V5.627a.293.293,0,0,0-.293-.293h-.45a.334.334,0,0,1-.231-.571h0L5.263.683a.335.335,0,0,1,.473,0L9.815,4.761l0,0a.335.335,0,0,1,0,.473Zm0,0" transform="translate(-0.5 0.001)" fill="#3d3d3d"/>
</svg>
