<svg xmlns="http://www.w3.org/2000/svg" xmlns:xlink="http://www.w3.org/1999/xlink" width="21.094" height="21.094" viewBox="0 0 21.094 21.094">
  <defs>
    <linearGradient id="linear-gradient" x1="0.119" y1="0.881" x2="0.83" y2="0.17" gradientUnits="objectBoundingBox">
      <stop offset="0" stop-color="#fee411"/>
      <stop offset="0.052" stop-color="#fedb16"/>
      <stop offset="0.138" stop-color="#fec125"/>
      <stop offset="0.248" stop-color="#fe983d"/>
      <stop offset="0.376" stop-color="#fe5f5e"/>
      <stop offset="0.5" stop-color="#fe2181"/>
      <stop offset="1" stop-color="#9000dc"/>
    </linearGradient>
  </defs>
  <g id="Group" transform="translate(-1.453 -1.453)">
    <g id="Group-2" data-name="Group">
      <path id="Vector" d="M21.094,10.547A10.547,10.547,0,1,1,10.547,0,10.547,10.547,0,0,1,21.094,10.547Z" transform="translate(1.453 1.453)" fill="url(#linear-gradient)"/>
      <g id="Group-3" data-name="Group">
        <path id="Vector-2" data-name="Vector" d="M11.714,3.619V8.1A3.621,3.621,0,0,1,8.1,11.714H3.619A3.621,3.621,0,0,1,0,8.1V3.619A3.621,3.621,0,0,1,3.619,0H8.1A3.621,3.621,0,0,1,11.714,3.619Zm-1.308,0A2.318,2.318,0,0,0,8.091,1.308H3.614A2.318,2.318,0,0,0,1.3,3.623V8.1a2.318,2.318,0,0,0,2.316,2.316H8.091A2.318,2.318,0,0,0,10.406,8.1Z" transform="translate(6.145 6.141)" fill="#fff"/>
        <path id="Vector-3" data-name="Vector" d="M3,0A3,3,0,1,1,0,3,3,3,0,0,1,3,0ZM4.814,3A1.819,1.819,0,1,0,3,4.814,1.82,1.82,0,0,0,4.814,3Z" transform="translate(9.005 9.005)" fill="#fff"/>
        <path id="Vector-4" data-name="Vector" d="M1.012.506A.506.506,0,1,1,.506,0,.506.506,0,0,1,1.012.506Z" transform="translate(14.562 8.415) rotate(-9.208)" fill="#fff"/>
      </g>
    </g>
  </g>
</svg>
