<?xml version="1.0" encoding="UTF-8"?>
<svg id="Layer_1" data-name="Layer 1" xmlns="http://www.w3.org/2000/svg" viewBox="0 0 500 500">
  <defs>
    <style>
      .cls-1 {
        fill: #4974b9;
      }

      .cls-2 {
        fill: #ffcd05;
      }

      .cls-3 {
        fill: #234f64;
      }
    </style>
  </defs>
  <g>
    <path class="cls-3" d="m348.95,184.33c-.02-7.74.03-15.48-.03-23.22-.02-1.69-.21-3.44-.68-5.06-1.37-4.68-4.62-7.82-8.8-10.1-12.2-6.66-24.4-13.32-36.59-20-16.4-8.98-32.79-17.96-49.15-26.99-2.59-1.43-4.92-1.53-7.53-.05-7.03,3.97-14.14,7.81-21.23,11.68-15.31,8.39-30.63,16.76-45.94,25.14-6.72,3.69-13.5,7.29-20.13,11.13-5.23,3.03-8.12,7.72-8.15,13.83-.08,15.41-.03,30.83-.03,46.25h.02c0,15.62-.05,31.24.02,46.86.03,5.31,2.47,9.68,6.79,12.48,4.8,3.12,9.88,5.94,15.14,8.2,6.3,2.71,12.26,1.19,17.3-3.39,3.65-3.32,5.15-7.64,5.15-12.53-.01-12.74,0-25.49,0-38.23,0-.62-.02-1.24-.07-1.85-.16-1.73-.89-3.16-2.38-4.11-1.09-.7-2.22-1.34-3.35-2.01-1.83-1.08-1.91-1.73-.33-3.03,2.27-1.87,4.58-3.7,6.87-5.55,1.28-1.03,2.54-2.1,3.87-3.04,1.28-.9,1.6-.8,2.45.52.3.46.54.95.8,1.44,4.03,7.7,8.05,15.41,12.07,23.11.83,1.58.78,1.84-.82,2.7-2.05,1.1-3.22,2.7-3.23,5.08,0,1.44-.12,2.88-.12,4.31,0,15.49-.03,30.97.02,46.45,0,1.97.15,3.99.62,5.89,1.26,5.02,4.53,8.44,9.04,10.86,8.44,4.54,16.86,9.12,25.22,13.8,2.79,1.55,5.32,1.62,8.13.06,9.88-5.48,19.82-10.84,29.72-16.27,14.34-7.86,28.68-15.75,43.02-23.62,4.56-2.5,9.16-4.92,13.68-7.51,5.68-3.26,8.67-8.12,8.66-14.8-.02-12.61.1-25.2.1-37.81,0-10.2-.09-20.41-.11-30.61Zm-150.79,2.91c-1.04.89-2.13,1.73-3.19,2.59-7.04,5.67-14.01,11.45-21.15,16.98-3.36,2.6-3.69,8.34.85,10.54,2.53,1.22,4.91,2.73,7.4,4.02,1.31.68,1.88,1.59,1.87,3.09-.03,11.1-.02,22.19-.03,33.29,0,.81-.1,1.65-.31,2.44-.74,2.87-3.63,4.91-6.29,3.7-4.77-2.18-9.32-4.86-13.84-7.54-1.3-.77-1.62-2.46-1.61-4.05.02-3.43,0-6.85,0-10.28,0-9.59,0-19.19,0-28.78,0-12.4,0-24.8,0-37.2,0-.82-.02-1.65.03-2.46.31-4.51,4.28-6.75,8.26-4.59,7.46,4.04,14.9,8.14,22.35,12.21,1.8.99,3.61,1.96,5.41,2.96,1.98,1.11,2.02,1.56.24,3.08Zm45.92,67.42c0,13.97,0,27.93,0,41.9,0,4.16-.1,4.22-3.69,2.26-4.8-2.62-9.59-5.27-14.42-7.85-2.53-1.35-3.82-3.31-3.8-6.26.05-12.74.01-25.47.01-38.2,0-.41,0-.83.06-1.23.19-1.12.65-1.38,1.73-.92,1.13.49,2.26.99,3.33,1.6,2.94,1.68,8.19-1.43,7.47-5.92-.2-1.26-.66-2.53-1.24-3.66-6.59-12.62-13.22-25.22-19.84-37.82-.89-1.7-1.83-3.37-2.67-5.09-.21-.43-.12-1-.17-1.51.51.04,1.1-.08,1.51.14,2.61,1.36,5.17,2.8,7.75,4.21,7.26,3.97,14.5,7.99,21.81,11.89,1.63.87,2.2,1.94,2.2,3.73-.05,14.24-.03,28.48-.03,42.72Zm.28-100.01v38c0,3.46-.37,3.69-3.45,2.02-13.45-7.35-26.89-14.71-40.34-22.06-8.47-4.63-16.95-9.22-25.42-13.85-2.2-1.2-4.57-1.76-6.99-2.23-.5-.1-.97-.38-1.45-.57.37-.43.67-1.01,1.13-1.27,3.63-2.05,7.29-4.06,10.95-6.06,15.48-8.48,30.96-16.95,46.44-25.43,5.16-2.83,10.31-5.66,15.45-8.51,3.17-1.75,3.67-1.46,3.67,2.19,0,12.6,0,25.19,0,37.8h0Zm47.4,126.53c-7.44,4.09-14.9,8.15-22.35,12.22-3.43,1.87-6.85,3.75-10.26,5.64-3.08,1.71-3.52,1.44-3.52-2.18-.01-6.72,0-13.43,0-20.14v-22.2c0-13.91.05-27.82-.05-41.73-.02-2.44.73-3.92,2.96-5.01,3.44-1.67,6.71-3.72,10.13-5.45,1.3-.65,2.84-1.25,4.24-1.17,2.75.16,4.48,2.34,4.52,5.18.06,3.36.02,6.72.02,10.08,0,8.09-.04,16.17.04,24.25.01,1.84-.67,2.9-2.27,3.7-2.51,1.26-5.01,2.56-7.37,4.07-3.69,2.36-3.89,6.95-.55,9.73.8.65,1.56,1.33,2.36,1.98,7.46,6.02,14.93,12.04,22.39,18.07,1.82,1.47,1.82,1.81-.28,2.97Zm4.47-17.62c-1.07,2-1.46,2.14-3.24.75-3.46-2.69-6.87-5.44-10.26-8.22-1.64-1.35-1.62-2.16.28-2.95,4.64-1.94,6.12-5.32,6.01-10.25-.26-11.64-.07-23.29-.09-34.93,0-3.03-.35-5.99-1.66-8.81-3.76-8.02-13.44-11.73-21.52-8.08-2.49,1.13-4.84,2.55-7.25,3.85-2.38,1.29-3,.94-3-1.79-.01-181.06,0-25.75,0-38.63h0c0-12.6,0-25.21,0-37.8,0-3.46.43-3.72,3.47-2.05,18.41,10.09,36.82,20.19,55.24,30.29,5.7,3.13,11.4,6.24,17.1,9.36.12.07.28.08.37.17.46.46.9.93,1.34,1.4-.6.23-1.2.48-1.81.68-2.32.79-4.76,1.33-6.94,2.39-3.69,1.79-7.23,3.89-10.81,5.89-5.99,3.36-8.83,8.56-8.83,15.36-.02,16.64.03,33.28-.04,49.93-.02,3.19.86,5.61,3.88,7.02,1.25.58.86,1.53.39,2.43-1.92,3.7-3.83,7.42-5.77,11.11-2.26,4.3-4.54,8.59-6.83,12.87Zm37.66-5.41c-9.08,4.94-18.13,9.93-27.22,14.85-.64.34-1.47.33-2.22.48.16-.69.17-1.46.49-2.08,5.49-10.5,11.01-20.96,16.51-31.45,2.23-4.24,4.51-8.46,6.58-12.78,1.58-3.29-.23-7.04-3.75-7.94-1.04-.27-2.3-.05-3.38.24-1.1.3-2.08,1.02-3.15,1.47-1.14.48-1.65.17-1.82-1.06-.07-.54-.05-1.1-.05-1.64,0-12.26.07-24.52-.05-36.78-.03-3.49,1.2-5.87,4.34-7.43,3.12-1.56,6.15-3.3,9.2-5.01,1.52-.85,3.12-1,4.77-.64,1.86.41,3.36,2.14,3.57,4.07.09.88.07,1.77.07,2.66,0,12.67,0,25.34,0,38.01s-.07,25.62.05,38.43c.03,3.17-1.33,5.14-3.96,6.58Z"/>
    <path class="cls-2" d="m291.76,281.19c-7.44,4.09-14.9,8.15-22.35,12.22-3.42,1.87-6.84,3.75-10.26,5.64-3.08,1.71-3.52,1.44-3.52-2.18-.01-6.71,0-13.43,0-20.14v-22.2c0-13.91.05-27.82-.05-41.73-.02-2.45.74-3.92,2.96-5.01,3.44-1.68,6.71-3.72,10.13-5.45,1.3-.65,2.84-1.25,4.24-1.17,2.75.16,4.48,2.34,4.52,5.18.05,3.36.02,6.71.02,10.07,0,8.09-.05,16.17.04,24.25.02,1.84-.67,2.9-2.27,3.7-2.51,1.26-5.01,2.56-7.37,4.07-3.69,2.36-3.88,6.95-.55,9.73.79.65,1.56,1.34,2.36,1.98,7.46,6.02,14.93,12.04,22.39,18.06,1.82,1.47,1.81,1.81-.28,2.97Z"/>
    <path class="cls-1" d="m198.16,187.24c-1.04.89-2.13,1.73-3.19,2.59-7.04,5.67-14,11.45-21.15,16.98-3.36,2.6-3.69,8.35.85,10.54,2.52,1.22,4.91,2.73,7.4,4.02,1.31.68,1.88,1.59,1.87,3.09-.04,11.1-.02,22.2-.04,33.29,0,.81-.1,1.65-.31,2.44-.74,2.87-3.63,4.91-6.28,3.7-4.77-2.18-9.32-4.86-13.84-7.54-1.29-.77-1.62-2.46-1.61-4.05.02-3.43,0-6.85,0-10.28,0-9.59,0-19.19,0-28.78,0-12.4,0-24.8,0-37.2,0-.82-.02-1.65.03-2.47.31-4.51,4.28-6.75,8.26-4.59,7.47,4.04,14.9,8.14,22.35,12.22,1.8.99,3.61,1.95,5.41,2.96,1.98,1.11,2.02,1.56.24,3.08Z"/>
    <path class="cls-1" d="m244.08,254.66c0,13.97,0,27.93,0,41.9,0,4.16-.1,4.22-3.69,2.27-4.81-2.62-9.6-5.27-14.43-7.85-2.53-1.35-3.82-3.31-3.8-6.26.05-12.74.02-25.47.02-38.2,0-.41-.01-.83.05-1.23.19-1.12.65-1.38,1.73-.92,1.13.49,2.26.99,3.33,1.6,2.94,1.68,8.19-1.43,7.47-5.92-.2-1.25-.66-2.52-1.25-3.65-6.59-12.62-13.22-25.22-19.84-37.82-.89-1.7-1.83-3.37-2.67-5.09-.21-.43-.12-1-.17-1.51.51.04,1.1-.08,1.51.14,2.61,1.36,5.17,2.8,7.75,4.21,7.26,3.98,14.5,8,21.81,11.89,1.62.87,2.2,1.94,2.2,3.73-.05,14.24-.03,28.49-.03,42.73Z"/>
    <path class="cls-2" d="m337.85,251.58c.03,3.17-1.32,5.14-3.96,6.58-9.08,4.94-18.13,9.93-27.21,14.85-.64.35-1.48.33-2.22.48.16-.69.17-1.47.49-2.08,5.48-10.5,11.01-20.97,16.51-31.45,2.23-4.24,4.51-8.46,6.58-12.78,1.57-3.29-.23-7.03-3.75-7.93-1.04-.27-2.3-.05-3.38.24-1.1.3-2.08,1.02-3.15,1.47-1.14.49-1.65.17-1.82-1.06-.07-.54-.05-1.09-.05-1.64,0-12.26.07-24.52-.05-36.78-.03-3.49,1.2-5.87,4.34-7.43,3.12-1.55,6.15-3.3,9.2-5.01,1.53-.85,3.12-1,4.77-.64,1.86.41,3.36,2.14,3.57,4.07.09.88.07,1.78.07,2.67,0,12.67,0,25.34,0,38.01s-.07,25.62.05,38.43Z"/>
  </g>
  <g>
    <path class="cls-3" d="m59.23,389.05c4.72-.96,8.57-3.33,11.54-7.13,2.96-3.79,4.36-8.09,4.16-12.88v-.1c-.32-5.11-2.35-9.45-6.08-13.02-3.73-3.58-8.18-5.36-13.35-5.36H21.89v10.63h33.7c2.43,0,4.5.86,6.22,2.58,1.73,1.73,2.59,3.8,2.59,6.22s-.86,4.5-2.59,6.22c-1.72,1.73-3.79,2.59-6.22,2.59H21.89v38.77h10.62v-28.24h14.46l17.61,28.24h12.44l-17.8-28.53Z"/>
    <path class="cls-3" d="m131.01,350.56l-9,10.63h16.29v-10.63h-7.29Z"/>
    <polygon class="cls-3" points="97.23 389.34 97.23 406.95 138.3 406.95 138.3 417.57 86.6 417.57 86.6 350.56 115.34 350.56 106.33 361.19 97.2 361.19 97.2 378.81 138.3 378.81 138.3 389.34 97.23 389.34"/>
    <path class="cls-3" d="m198.32,393.79c-.77-2.33-1.72-4.19-2.87-5.6-1.12-1.36-2.85-2.66-5.19-3.88l-7.32,8.64c1.23.57,2.16,1.14,2.78,1.71.73.67,1.37,1.53,1.92,2.59.54,1.05.78,2.22.72,3.49-.19,1.34-.7,2.52-1.53,3.54-1.15,1.47-2.87,2.56-5.17,3.26-2.62.83-5.59,1.02-8.9.57-6.25-.76-12.32-3.48-18.19-8.14l-6.7,8.33c7.47,6,15.35,9.51,23.65,10.53,4.79.64,9.25.32,13.4-.96,4.34-1.4,7.79-3.67,10.34-6.8,2.1-2.68,3.38-5.71,3.83-9.09v-.1c.25-3.06,0-5.76-.77-8.09Zm-30.92-33.27c1.66-.77,3.51-1.25,5.55-1.44,5.81-.38,11.3,1.56,16.47,5.84l6.89-8.23c-2.49-2.11-5.14-3.81-7.95-5.12-2.81-1.3-5.55-2.22-8.23-2.73-2.68-.51-5.33-.67-7.95-.48-3.32.25-6.45,1.05-9.38,2.39-3,1.4-5.49,3.29-7.47,5.65-3.39,4.08-4.88,8.84-4.5,14.26v.38c.25,1.73.7,3.33,1.34,4.83.64,1.5,1.33,2.78,2.06,3.83.73,1.06,1.77,2.06,3.11,3.02,1.34.96,2.5,1.73,3.49,2.3.99.57,2.4,1.2,4.21,1.86,1.82.67,3.24,1.17,4.26,1.49.4.12.89.27,1.45.43l7.63-9c-.48-.14-.99-.28-1.51-.43-1.92-.57-3.37-1-4.36-1.29-.99-.29-2.25-.73-3.78-1.34-1.53-.61-2.7-1.2-3.49-1.77-.8-.57-1.56-1.31-2.3-2.2-.73-.9-1.2-1.85-1.39-2.87-.13-2.55.54-4.73,2.01-6.51,1.02-1.21,2.3-2.17,3.83-2.87Z"/>
    <path class="cls-3" d="m208.76,350.56v10.63h54.66v-10.63h-54.66Zm22.02,21.25v45.76h10.63v-45.76h-10.63Z"/>
    <path class="cls-3" d="m340.68,370.38c-1.71-4.02-3.99-7.53-6.82-10.53l-7.19,8.49c3.85,4.44,5.78,9.68,5.78,15.74,0,6.7-2.36,12.41-7.08,17.14-4.73,4.72-10.44,7.08-17.14,7.08s-12.41-2.36-17.14-7.08c-4.72-4.73-7.08-10.44-7.08-17.14s2.36-12.41,7.08-17.14c4.73-4.72,10.44-7.09,17.14-7.09,3.1,0,5.99.5,8.66,1.52h0l7.35-8.67c-.75-.38-1.53-.74-2.32-1.08-4.34-1.85-8.9-2.78-13.69-2.78-6.38,0-12.28,1.58-17.71,4.74-5.42,3.16-9.7,7.43-12.83,12.83-3.13,5.39-4.69,11.28-4.69,17.67s1.56,12.27,4.69,17.66c3.13,5.39,7.4,9.67,12.83,12.83,5.42,3.16,11.33,4.74,17.71,4.74s12.27-1.58,17.67-4.74c5.39-3.16,9.67-7.43,12.83-12.83s4.74-11.28,4.74-17.66c0-4.79-.93-9.35-2.78-13.69Z"/>
    <path class="cls-3" d="m407.7,398.53c-2.23,3.06-5.06,5.47-8.47,7.23-3.42,1.76-7.07,2.63-10.96,2.63-3.56,0-6.84-.67-9.85-2.01l-7.23,8.54c5.26,2.93,10.95,4.39,17.09,4.39,5.36,0,10.42-1.17,15.17-3.49,4.76-2.33,8.76-5.5,12.01-9.52l-7.75-7.75Zm.29-43.56c-2.81-1.91-5.9-3.41-9.28-4.5-3.39-1.08-6.86-1.63-10.44-1.63-6.38,0-12.28,1.58-17.71,4.74-5.42,3.16-9.7,7.43-12.83,12.83-3.13,5.39-4.69,11.28-4.69,17.67s1.56,12.27,4.69,17.66c1.2,2.06,2.56,3.97,4.1,5.7l7.19-8.49c-3.38-4.27-5.07-9.23-5.07-14.87,0-6.7,2.38-12.43,7.13-17.19,4.76-4.75,10.48-7.13,17.18-7.13,3.89,0,7.55.87,10.96,2.63,3.41,1.76,6.24,4.16,8.47,7.23l7.75-7.75c-2.17-2.68-4.66-4.98-7.47-6.89Z"/>
    <path class="cls-3" d="m462.26,350.56l-26.61,25.85v-25.85h-10.63v67.01h10.63v-26.42c9.32-9.06,23.26-22.59,41.83-40.59h-15.22Zm-3.96,43.46h-13.69l19.43,23.55h13.78l-19.53-23.55Z"/>
  </g>
</svg>