<svg id="Mada_Logo" xmlns="http://www.w3.org/2000/svg" width="52.403" height="19.644" viewBox="0 0 52.403 19.644">
  <rect id="Rectangle_8487" data-name="Rectangle 8487" width="22.167" height="8.302" transform="translate(0 11.328)" fill="#84b740"/>
  <rect id="Rectangle_8488" data-name="Rectangle 8488" width="22.167" height="8.309" transform="translate(0)" fill="#259bd6"/>
  <path id="Path_78735" data-name="Path 78735" d="M619.7,140.824l-.1.022a2.894,2.894,0,0,1-.717.1c-.579,0-1.264-.333-1.264-1.9,0-.807.118-1.879,1.2-1.879h.007a2.923,2.923,0,0,1,.79.17l.086.03v3.455Zm.178-7.821-.178.037v2.9l-.158-.052-.046-.015a3.276,3.276,0,0,0-.981-.192c-2.159,0-2.613,1.835-2.613,3.374,0,2.109,1.053,3.322,2.889,3.322a5.261,5.261,0,0,0,1.928-.3.944.944,0,0,0,.724-1.051V132.7c-.513.1-1.047.207-1.566.3" transform="translate(-575.363 -122.882)" fill="#27292d"/>
  <path id="Path_78736" data-name="Path 78736" d="M718.318,177.731l-.092.03-.329.1a3.082,3.082,0,0,1-.8.141.721.721,0,0,1-.81-.762c0-.311.125-.836.954-.836h1.073Zm-.757-5.231a6.561,6.561,0,0,0-2.2.429l-.553.185.184,1.406.54-.2a5.713,5.713,0,0,1,1.8-.34.826.826,0,0,1,.961.88v.385h-1.007c-1.836,0-2.685.659-2.685,2.072a1.857,1.857,0,0,0,2.1,1.931,6.085,6.085,0,0,0,1.461-.222l.026-.007.026.007.165.03c.513.1,1.046.207,1.566.318v-4.617c0-1.495-.8-2.257-2.382-2.257" transform="translate(-667.567 -159.737)" fill="#27292d"/>
  <path id="Path_78737" data-name="Path 78737" d="M524.019,177.731l-.092.03-.329.1a3.037,3.037,0,0,1-.8.141.721.721,0,0,1-.81-.762c0-.311.125-.836.948-.836h1.073l.007,1.332Zm-.75-5.231a6.531,6.531,0,0,0-2.2.429l-.553.185.184,1.406.54-.2a5.713,5.713,0,0,1,1.8-.34.826.826,0,0,1,.961.88v.385h-1.007c-1.836,0-2.692.659-2.692,2.072a1.859,1.859,0,0,0,2.106,1.931,6.084,6.084,0,0,0,1.461-.222l.026-.007.026.007.158.03c.52.1,1.046.207,1.566.326v-4.617c.007-1.509-.8-2.264-2.376-2.264" transform="translate(-486.056 -159.737)" fill="#27292d"/>
  <path id="Path_78738" data-name="Path 78738" d="M383.874,172.607a4.044,4.044,0,0,0-1.784.444l-.066.037-.059-.052a2.474,2.474,0,0,0-1.6-.437,5.878,5.878,0,0,0-1.889.318.986.986,0,0,0-.777,1.065v5.275h1.751v-4.876l.086-.03a2.008,2.008,0,0,1,.77-.155c.507,0,.763.3.763.9v4.173h1.724v-4.254a1.6,1.6,0,0,0-.053-.429l-.059-.126.118-.059a1.882,1.882,0,0,1,.856-.2c.349,0,.764.155.764.9v4.173h1.718V174.9a2,2,0,0,0-2.264-2.294" transform="translate(-352.841 -159.829)" fill="#27292d"/>
  <path id="Path_78739" data-name="Path 78739" d="M592.128,5.416a5.332,5.332,0,0,1-1.02-.1l-.1-.022V2.442a1.555,1.555,0,0,0-.046-.407l-.053-.118.112-.052c.026-.015.053-.022.086-.037l.02-.015.118-.044a.154.154,0,0,1,.046-.015,3.656,3.656,0,0,1,.9-.118h.007c1.073,0,1.2,1.073,1.2,1.879-.007,1.569-.7,1.9-1.27,1.9M592.122,0h-.046a2.907,2.907,0,0,0-2.409.917,2.008,2.008,0,0,0-.316,1.1h0V4.957a.962.962,0,0,1-.053.37l-.059.126H586.06V3.411h-.007c-.039-2.153-1.172-3.337-2.81-3.337h-1.6c-.066.525-.118.9-.184,1.421h1.593c.836,0,1.277.8,1.277,2.027V5.579l-.112-.067a1.087,1.087,0,0,0-.375-.059h-2.751c-.053.392-.118.9-.191,1.413h8.457c.29-.067.625-.126.915-.178a4.3,4.3,0,0,0,1.77.363c1.836,0,3.028-1.384,3.028-3.515C595.064,1.428,593.912.044,592.122,0" transform="translate(-542.667)" fill="#27292d"/>
  <path id="Path_78740" data-name="Path 78740" d="M387.467,8.751h.079c1.836,0,2.692-.681,2.692-2.36a2.036,2.036,0,0,0-2.1-2.168h-1.691a.774.774,0,0,1-.81-.873c0-.37.125-.829.954-.829h3.7c.079-.54.118-.88.191-1.421h-3.844c-1.79,0-2.692.843-2.692,2.249a1.906,1.906,0,0,0,2.1,2.116h1.691a.856.856,0,0,1,.81.925.882.882,0,0,1-.948.954h-.283L381.9,7.33h-.987c-.836,0-1.422-.533-1.422-1.768V4.711c0-1.287.454-2.087,1.422-2.087h1.606c.072-.548.118-.9.184-1.413H380.51c-1.639,0-2.771,1.236-2.81,3.389h0v.962c.04,2.153,1.172,3.182,2.81,3.182h1.6l2.935.007h2.422Z" transform="translate(-352.841 -1.019)" fill="#27292d"/>
</svg>
