<svg xmlns="http://www.w3.org/2000/svg" xmlns:xlink="http://www.w3.org/1999/xlink" width="88" height="170" viewBox="0 0 88 170">
  <defs>
    <clipPath id="clip-path">
      <rect id="Rectangle_36637" data-name="Rectangle 36637" width="88" height="170" transform="translate(1278 1337)" fill="#fff" opacity="0"/>
    </clipPath>
  </defs>
  <g id="Mask_Group_8" data-name="Mask Group 8" transform="translate(-1278 -1337)" clip-path="url(#clip-path)">
    <g id="Group_99980" data-name="Group 99980" transform="translate(1280.901 1343.975)" opacity="0.47">
      <path id="Path_2" data-name="Path 2" d="M4,88.057a4,4,0,1,0,4,4A4.014,4.014,0,0,0,4,88.057ZM4,56.036a4,4,0,1,0,4,4,4.014,4.014,0,0,0-4-4Zm56.036,88.057a4,4,0,1,0,4,4A4.014,4.014,0,0,0,60.039,144.093ZM28.018,20.013a8.005,8.005,0,1,0,8.005,8.005A8.029,8.029,0,0,0,28.018,20.013Zm0,32.021a8.005,8.005,0,1,0,8.005,8.005,8.029,8.029,0,0,0-8.005-8.005Zm0,32.021a8.005,8.005,0,1,0,8.005,8.005A8.029,8.029,0,0,0,28.018,84.054ZM148.1,64.042a4,4,0,1,0-4-4A4.014,4.014,0,0,0,148.1,64.042ZM92.059,8.005a4,4,0,1,0-4-4A4.014,4.014,0,0,0,92.059,8.005ZM60.039,36.023a8.005,8.005,0,1,0-8.005-8.005A8.029,8.029,0,0,0,60.039,36.023Zm0-28.018a4,4,0,1,0-4-4A4.014,4.014,0,0,0,60.039,8.005ZM92.059,36.023a8.005,8.005,0,1,0-8.005-8.005A8.029,8.029,0,0,0,92.059,36.023ZM28.018,116.075a8.005,8.005,0,1,0,8.005,8.005A8.029,8.029,0,0,0,28.018,116.075ZM92.059,48.031a12.008,12.008,0,1,0,12.008,12.008A11.992,11.992,0,0,0,92.059,48.031ZM124.08,84.054a8.005,8.005,0,1,0,8.005,8.005A8.029,8.029,0,0,0,124.08,84.054Zm0,32.021a8.005,8.005,0,1,0,8.005,8.005A8.029,8.029,0,0,0,124.08,116.075Zm0-64.041a8.005,8.005,0,1,0,8.005,8.005,8.029,8.029,0,0,0-8.005-8.005ZM148.1,88.057a4,4,0,1,0,4,4A4.014,4.014,0,0,0,148.1,88.057ZM124.08,20.013a8.005,8.005,0,1,0,8.005,8.005A8.029,8.029,0,0,0,124.08,20.013ZM60.039,80.052A12.008,12.008,0,1,0,72.047,92.059,11.992,11.992,0,0,0,60.039,80.052Zm0,36.023a8.005,8.005,0,1,0,8.005,8.005A8.029,8.029,0,0,0,60.039,116.075Zm0-68.044A12.008,12.008,0,1,0,72.047,60.039,11.992,11.992,0,0,0,60.039,48.031Zm32.021,68.044a8.005,8.005,0,1,0,8.005,8.005A8.029,8.029,0,0,0,92.059,116.075Zm0,28.018a4,4,0,1,0,4,4A4.014,4.014,0,0,0,92.059,144.093Zm0-64.042a12.008,12.008,0,1,0,12.008,12.008A11.992,11.992,0,0,0,92.059,80.052Z" fill="rgba(34,122,254,0.65)"/>
    </g>
  </g>
</svg>
