<svg id="printer" xmlns="http://www.w3.org/2000/svg" width="31.395" height="31.395" viewBox="0 0 31.395 31.395">
  <path id="Path_176459" data-name="Path 176459" d="M28.125,21.7H24.2a.654.654,0,0,1,0-1.308h3.924a1.965,1.965,0,0,0,1.962-1.962V9.27a1.965,1.965,0,0,0-1.962-1.962H3.27A1.965,1.965,0,0,0,1.308,9.27v9.157A1.965,1.965,0,0,0,3.27,20.389H7.195a.654.654,0,0,1,0,1.308H3.27A3.274,3.274,0,0,1,0,18.427V9.27A3.274,3.274,0,0,1,3.27,6H28.125a3.274,3.274,0,0,1,3.27,3.27v9.157A3.274,3.274,0,0,1,28.125,21.7Z" transform="translate(0 1.849)" fill="#009dd9"/>
  <path id="Path_176460" data-name="Path 176460" d="M16.5,21.308H8.654a.654.654,0,0,1,0-1.308H16.5a.654.654,0,0,1,0,1.308Z" transform="translate(2.465 6.162)" fill="#009dd9"/>
  <path id="Path_176461" data-name="Path 176461" d="M16.5,19.308H8.654a.654.654,0,1,1,0-1.308H16.5a.654.654,0,1,1,0,1.308Z" transform="translate(2.465 5.546)" fill="#009dd9"/>
  <path id="Path_176462" data-name="Path 176462" d="M11.27,17.308H8.654a.654.654,0,1,1,0-1.308H11.27a.654.654,0,0,1,0,1.308Z" transform="translate(2.465 4.93)" fill="#009dd9"/>
  <path id="Path_176463" data-name="Path 176463" d="M22.66,9.157a.654.654,0,0,1-.654-.654V3.27a1.965,1.965,0,0,0-1.962-1.962H8.27A1.965,1.965,0,0,0,6.308,3.27V8.5A.654.654,0,1,1,5,8.5V3.27A3.274,3.274,0,0,1,8.27,0H20.043a3.274,3.274,0,0,1,3.27,3.27V8.5A.654.654,0,0,1,22.66,9.157Z" transform="translate(1.541)" fill="#009dd9"/>
  <path id="Path_176464" data-name="Path 176464" d="M20.043,27.389H8.27A3.274,3.274,0,0,1,5,24.119V13.654A.654.654,0,0,1,5.654,13H22.66a.654.654,0,0,1,.654.654V24.119A3.274,3.274,0,0,1,20.043,27.389ZM6.308,14.308v9.811A1.965,1.965,0,0,0,8.27,26.081H20.043a1.965,1.965,0,0,0,1.962-1.962V14.308Z" transform="translate(1.541 4.006)" fill="#009dd9"/>
</svg>
