<svg xmlns="http://www.w3.org/2000/svg" width="30.249" height="26.655" viewBox="0 0 30.249 26.655">
  <g id="suitcase" transform="translate(-14.25 -44.375)">
    <path id="Path_176468" data-name="Path 176468" d="M41.994,105.375H16.755A1.755,1.755,0,0,0,15,107.13v18.053a1.755,1.755,0,0,0,1.755,1.755h25.24a1.755,1.755,0,0,0,1.755-1.755V107.13A1.755,1.755,0,0,0,41.994,105.375Z" transform="translate(0 -56.656)" fill="none" stroke="#009dd9" stroke-linecap="round" stroke-linejoin="round" stroke-miterlimit="10" stroke-width="1.5"/>
    <path id="Path_176469" data-name="Path 176469" d="M286.12,172.631l9.108-2.277a4.581,4.581,0,0,0,3.47-4.444" transform="translate(-254.949 -113.581)" fill="none" stroke="#009dd9" stroke-linecap="round" stroke-linejoin="round" stroke-miterlimit="10" stroke-width="1.5"/>
    <path id="Path_176470" data-name="Path 176470" d="M15,165.91a4.581,4.581,0,0,0,3.47,4.444l9.108,2.277" transform="translate(0 -113.581)" fill="none" stroke="#009dd9" stroke-linecap="round" stroke-linejoin="round" stroke-miterlimit="10" stroke-width="1.5"/>
    <path id="Path_176471" data-name="Path 176471" d="M229.473,256v3l-1.8.6-1.8-.6v-3Z" transform="translate(-198.302 -198.297)" fill="none" stroke="#009dd9" stroke-linecap="round" stroke-linejoin="round" stroke-miterlimit="10" stroke-width="1.5"/>
    <line id="Line_6" data-name="Line 6" x1="3.594" transform="translate(36.562 66.687)" fill="none" stroke="#009dd9" stroke-linecap="round" stroke-linejoin="round" stroke-miterlimit="10" stroke-width="1.5"/>
    <path id="Path_176472" data-name="Path 176472" d="M202.937,48.719V46.527a1.4,1.4,0,0,0-1.4-1.4h-4.384a1.4,1.4,0,0,0-1.4,1.4v2.192" transform="translate(-169.969)" fill="none" stroke="#009dd9" stroke-linejoin="round" stroke-miterlimit="10" stroke-width="1.5"/>
  </g>
</svg>
