<svg xmlns="http://www.w3.org/2000/svg" width="25.07" height="25.067" viewBox="0 0 25.07 25.067">
  <path id="pen" d="M22.19.98a3.452,3.452,0,0,0-4.878,0L16.091,2.208,3.092,15.2l-.028.028c-.007.007-.007.014-.014.014-.014.021-.035.041-.048.062S3,15.31,3,15.317s-.021.035-.035.055-.007.014-.014.021-.014.035-.021.055-.007.007-.007.014L.036,24.134a.679.679,0,0,0,.166.7.694.694,0,0,0,.49.2A.814.814,0,0,0,.912,25l8.666-2.891c.007,0,.007,0,.014-.007a.25.25,0,0,0,.062-.028.024.024,0,0,0,.014-.007c.021-.014.048-.028.069-.042s.041-.034.062-.048.014-.007.014-.014.021-.014.028-.028L24.059,7.72a3.452,3.452,0,0,0,0-4.878ZM9.357,20.491l-4.8-4.8L16.574,3.671l4.8,4.8ZM3.878,16.966l4.2,4.195-6.3,2.1ZM23.087,6.754l-.731.738-4.8-4.8.739-.738a2.07,2.07,0,0,1,2.925,0l1.877,1.877a2.076,2.076,0,0,1-.007,2.925Zm0,0" transform="translate(0.001 0.029)" fill="#009dd9"/>
</svg>
