<svg xmlns="http://www.w3.org/2000/svg" width="30.662" height="30.662" viewBox="0 0 30.662 30.662">
  <g id="desk" transform="translate(-1 -1)">
    <path id="Path_176465" data-name="Path 176465" d="M31.168,13.858H26.222V12.375a.494.494,0,0,0-.495-.495,2.458,2.458,0,0,0-1.881.886,1.874,1.874,0,0,0-.385-.184l-1.014-.339a.987.987,0,0,1-.677-.938v-.414h5.44A.99.99,0,0,0,28.2,9.9V1.989A.99.99,0,0,0,27.211,1H13.364a.99.99,0,0,0-.989.989V9.9a.99.99,0,0,0,.989.989H18.8v.414a.988.988,0,0,1-.677.938l-1.014.338a1.86,1.86,0,0,0-1.205,1.276H9.9V5.451a.494.494,0,0,0-.495-.495H3.473a.494.494,0,0,0-.495.495v8.407H1.495A.494.494,0,0,0,1,14.353V31.168a.494.494,0,0,0,.495.495H3.473a.494.494,0,0,0,.495-.495V27.706H8.913v3.462a.494.494,0,0,0,.495.495h1.978a.494.494,0,0,0,.495-.495V17.815H23.255v3.462H16.826a2.476,2.476,0,0,0-2.473,2.473v.989a.494.494,0,0,0,.495.495H18.8v.375A4.535,4.535,0,0,1,17.6,28.695h-.771a1.484,1.484,0,1,0,0,2.967h6.924a1.484,1.484,0,0,0,0-2.967h-.771a4.535,4.535,0,0,1-1.207-3.087v-.375h2.967a1.485,1.485,0,0,0,1.484-1.484V17.815h2.473V31.168a.494.494,0,0,0,.495.495h1.978a.494.494,0,0,0,.495-.495V14.353A.494.494,0,0,0,31.168,13.858ZM27.211,1.989V7.924H13.364V1.989ZM13.364,8.913H27.212V9.9H13.364Zm4.062,4.607,1.014-.338a1.976,1.976,0,0,0,1.353-1.876v-.414h.989v.414a1.975,1.975,0,0,0,1.353,1.876l1.014.338a.875.875,0,0,1,.225.114,2.323,2.323,0,0,0-.069.225H16.981a.874.874,0,0,1,.445-.339ZM8.913,10.891H3.967V8.913H8.913Zm0-4.946V7.924H3.967V5.946ZM3.967,11.88H8.913v1.978H3.967ZM2.978,30.673H1.989V17.815h.989ZM8.913,17.815v3.956H3.967V17.815Zm-4.946,8.9V22.76H8.913v3.956Zm6.924,3.956H9.9V17.815h.989Zm.495-13.847h-9.4V14.847H23.255v1.978Zm12.858-2.473a1.487,1.487,0,0,1,.989-1.4v8.323h-.989Zm0,15.826a.5.5,0,0,1-.495.495H16.826a.495.495,0,1,1,0-.989h6.924A.5.5,0,0,1,24.244,30.178Zm-2.528-1.484H18.859a5.521,5.521,0,0,0,.934-3.087v-.375h.989v.375A5.521,5.521,0,0,0,21.716,28.695Zm3.517-4.946a.5.5,0,0,1-.495.495h-9.4v-.495a1.485,1.485,0,0,1,1.484-1.484h8.407Zm.989-8.9h4.451v1.978H26.222Zm4.451,15.826h-.989V17.815h.989Z" fill="#009dd9"/>
    <path id="Path_176466" data-name="Path 176466" d="M10,37h2.428v1.214H10Z" transform="translate(-3.537 -18.331)" fill="#009dd9"/>
    <path id="Path_176467" data-name="Path 176467" d="M10,47h2.428v1.214H10Z" transform="translate(-3.537 -23.423)" fill="#009dd9"/>
  </g>
</svg>
