<svg xmlns="http://www.w3.org/2000/svg" width="14.716" height="14.16" viewBox="0 0 14.716 14.16">
  <g id="packaging" transform="translate(-34 -42.392)">
    <path id="Path_179857" data-name="Path 179857" d="M34.1,45.725l5.774-3.333,1.757,1.015L35.857,46.74Zm11.646.172-5.774,3.333V55.9l2.984-1.723-.017-.051a3.2,3.2,0,0,1-.164-1V50.085a.1.1,0,0,1,.079-.1l2.891-.609V45.9Zm-9.789,1.13,1.323.764v2.754l-1.323-.764Zm-.2,2.812V46.913L34,45.9v6.666L39.774,55.9V49.231l-2.3-1.325v2.812a.1.1,0,0,1-.049.086.1.1,0,0,1-.049.013.1.1,0,0,1-.052-.014l-1.52-.878A.1.1,0,0,1,35.759,49.839ZM43.351,44.4l-5.774,3.333,2.3,1.325,5.772-3.333Zm-1.521-.878-5.774,3.333,1.323.763,5.772-3.333Z" fill="#434b66" fill-rule="evenodd"/>
    <path id="Path_179858" data-name="Path 179858" d="M307.652,258.679l2.871.6v2.962a3.557,3.557,0,0,1-1.144,2.479,3.607,3.607,0,0,1-1.712.942l-.014,0-.014,0a3.606,3.606,0,0,1-1.712-.942,3.557,3.557,0,0,1-1.144-2.478v-2.962Zm1.58,1.926-2.131,2.13-1.029-1.03a.1.1,0,0,0-.141.141l1.1,1.1a.1.1,0,0,0,.141,0l2.2-2.2a.1.1,0,1,0-.141-.141Z" transform="translate(-261.806 -209.118)" fill="#ffb229" fill-rule="evenodd"/>
  </g>
</svg>
