<svg xmlns="http://www.w3.org/2000/svg" width="13.481" height="16.624" viewBox="0 0 13.481 16.624">
  <g id="Layer_2_00000161628824174122363150000000951296371228825016_" transform="translate(-48.4 0)">
    <g id="PDF" transform="translate(48.4 0)">
      <path id="Path_180190" data-name="Path 180190" d="M107.354,4.591V14.62a2,2,0,0,1-2,2H97.4a2,2,0,0,1-2-2V2a2,2,0,0,1,2-2h5.36Z" transform="translate(-93.874 0)" fill="#ededed"/>
      <path id="Path_180191" data-name="Path 180191" d="M326.791,4.591h-3.763a.827.827,0,0,1-.828-.828V0Z" transform="translate(-313.31 0)" fill="#f15642"/>
      <path id="Path_180192" data-name="Path 180192" d="M49.627,210.7h9.945a1.226,1.226,0,0,1,1.227,1.227v2.987a1.226,1.226,0,0,1-1.227,1.227H49.627a1.226,1.226,0,0,1-1.227-1.227v-2.987A1.226,1.226,0,0,1,49.627,210.7Z" transform="translate(-48.4 -203.859)" fill="#f15642"/>
      <g id="Group_112245" data-name="Group 112245" transform="translate(3.097 7.896)">
        <path id="Path_180193" data-name="Path 180193" d="M145.686,244.265a.946.946,0,0,1-1.013,1.075h-.4V246.5H143.8v-3.3h.87A.948.948,0,0,1,145.686,244.265Zm-.484,0c0-.406-.175-.614-.532-.614h-.39v1.234h.39C145.027,244.888,145.2,244.69,145.2,244.265Z" transform="translate(-143.8 -243.2)" fill="#fff"/>
        <path id="Path_180194" data-name="Path 180194" d="M214.3,243.2h.818a.934.934,0,0,1,1.016,1.026v1.234a.939.939,0,0,1-1.013,1.036H214.3v-3.3Zm.825,2.844c.338,0,.532-.2.532-.594v-1.214c0-.386-.188-.584-.532-.584h-.351v2.393Z" transform="translate(-212.011 -243.2)" fill="#fff"/>
        <path id="Path_180195" data-name="Path 180195" d="M288.874,243.648v.984h.994v.432h-.994V246.5H288.4v-3.3h1.555v.448Z" transform="translate(-283.705 -243.2)" fill="#fff"/>
      </g>
    </g>
  </g>
</svg>
