<svg xmlns="http://www.w3.org/2000/svg" width="25.838" height="25.838" viewBox="0 0 25.838 25.838">
  <g id="Group_112073" data-name="Group 112073" transform="translate(-1280 -730)">
    <circle id="Ellipse_1924" data-name="Ellipse 1924" cx="12.919" cy="12.919" r="12.919" transform="translate(1280 730)" fill="#f5b800"/>
    <g id="calendar" transform="translate(1286.5 736.5)">
      <path id="Path_179513" data-name="Path 179513" d="M10.767,2.913A1.733,1.733,0,0,0,9.036,1.182H8.724V.867a.367.367,0,0,0-.733,0v.315H3.276V.867a.367.367,0,1,0-.733,0v.315H2.231A1.733,1.733,0,0,0,.5,2.913V9.036a1.733,1.733,0,0,0,1.731,1.731H6.151A3.267,3.267,0,0,0,8.2,11.5a3.3,3.3,0,0,0,3.3-3.3,3.267,3.267,0,0,0-.733-2.049Zm-8.536-1h.312v.313a.367.367,0,1,0,.733,0V1.915H7.99v.313a.367.367,0,0,0,.733,0V1.915h.313a1,1,0,0,1,1,1v.311h-8.8V2.913a1,1,0,0,1,1-1Zm-1,7.121V3.957h8.8v1.5a3.3,3.3,0,0,0-4.575,4.575H2.231a1,1,0,0,1-1-1ZM8.2,10.767A2.567,2.567,0,1,1,10.767,8.2,2.567,2.567,0,0,1,8.2,10.767Z" transform="translate(0)" fill="#fff"/>
      <path id="Path_179514" data-name="Path 179514" d="M11.5,10.793V9a.5.5,0,0,0-1,0v2a.5.5,0,0,0,.146.354l1,1a.5.5,0,1,0,.707-.707Z" transform="translate(-3.077 -2.909)" fill="#fff"/>
    </g>
  </g>
</svg>
