<svg xmlns="http://www.w3.org/2000/svg" width="32.556" height="19.267" viewBox="0 0 32.556 19.267">
  <path id="fast-delivery" d="M23.209.192c2.823.655,3.9,2.306,5.256,4.577H23.209ZM6.713,4.96a.837.837,0,0,1,.954.89.954.954,0,0,1-.951.954H.953a.954.954,0,0,0,0,1.908H9.537a.954.954,0,1,1,0,1.908H.953a.954.954,0,1,0,0,1.908h2.1v2.861a.954.954,0,0,0,.954.954H5.923a3.657,3.657,0,0,0,7.166,0h9.685a3.657,3.657,0,0,0,7.166,0H31.6a.954.954,0,0,0,.954-.954V9.665c0-2.8-2.952-2.984-2.955-2.989H22.255a.954.954,0,0,1-.954-.954V0H4.005a.954.954,0,0,0-.954.954v2.1H1.907a.954.954,0,1,0,0,1.908Zm20.88,9.414a1.749,1.749,0,1,1-2.985,1.236A1.749,1.749,0,0,1,27.593,14.374Zm-16.85,0A1.749,1.749,0,1,1,7.757,15.61,1.749,1.749,0,0,1,10.742,14.374Zm0,0" transform="translate(0 0)" fill="#fff" fill-rule="evenodd"/>
</svg>
