<svg xmlns="http://www.w3.org/2000/svg" width="32.256" height="32.202" viewBox="0 0 32.256 32.202">
  <g id="Icons" transform="translate(-2 -2.086)">
    <path id="Path_180178" data-name="Path 180178" d="M34.152,36H33v2.3h1.152a1.152,1.152,0,0,0,0-2.3Z" transform="translate(-13.146 -14.382)" fill="#fff"/>
    <path id="Path_180179" data-name="Path 180179" d="M30.991,29.153a17.608,17.608,0,0,1-6.811-2.121,17.608,17.608,0,0,1-6.811,2.121l-.985,5.356A5.115,5.115,0,0,0,19.2,40.177l4.978,2.133,4.979-2.131a5.112,5.112,0,0,0,2.817-5.667Zm-7.47,7.931a.576.576,0,1,1-.987.593L21.3,35.62l-1.234,2.057a.576.576,0,1,1-.987-.593l1.55-2.583-1.55-2.583a.576.576,0,1,1,.987-.593L21.3,33.381l1.234-2.057a.576.576,0,1,1,.987.593L21.972,34.5Zm3.538-1.431H25.908V37.38a.576.576,0,0,1-1.152,0V31.621a.576.576,0,0,1,.576-.576h1.728a2.3,2.3,0,0,1,0,4.607Z" transform="translate(-6.054 -10.579)" fill="#fff"/>
    <path id="Path_180180" data-name="Path 180180" d="M5.148,49.111l.7,2.541L9.356,48.5a8.7,8.7,0,0,1-2.534-5.465L2,47.373l2.463.965a1.167,1.167,0,0,1,.685.773Z" transform="translate(0 -17.367)" fill="#fff"/>
    <path id="Path_180181" data-name="Path 180181" d="M32.546,32.075l-1.308-7.109a15.4,15.4,0,0,1-8.754-2.7,15.413,15.413,0,0,1-8.754,2.7l-1.308,7.109a7.429,7.429,0,0,0,4.177,8.2h0l5.885,2.516,5.885-2.519a7.429,7.429,0,0,0,4.177-8.2Zm-4.63,7.141-5.2,2.228a.576.576,0,0,1-.454,0l-5.2-2.228a6.273,6.273,0,0,1-3.5-6.936L14.621,26.5a.576.576,0,0,1,.511-.469,16.5,16.5,0,0,0,7.055-2.18.576.576,0,0,1,.6,0,16.5,16.5,0,0,0,7.054,2.179.576.576,0,0,1,.511.469l1.061,5.785A6.27,6.27,0,0,1,27.916,39.216Z" transform="translate(-4.359 -8.557)" fill="#fff"/>
    <path id="Path_180182" data-name="Path 180182" d="M47.764,43.038A8.7,8.7,0,0,1,45.23,48.5l3.5,3.151.707-2.547a1.161,1.161,0,0,1,.674-.764l2.476-.971Z" transform="translate(-18.333 -17.367)" fill="#fff"/>
    <path id="Path_180183" data-name="Path 180183" d="M31.1,6.148a.576.576,0,0,0-.313-.938l-2.24-.494a.576.576,0,0,1-.381-.288L27.044,2.385a.576.576,0,0,0-1.011,0L24.916,4.432a.576.576,0,0,1-.381.288l-2.24.5a.576.576,0,0,0-.312.938l1.567,1.818a.576.576,0,0,1,.136.434l-.245,2.41a.576.576,0,0,0,.818.579l2.036-.96a.576.576,0,0,1,.491,0l2.038.958a.576.576,0,0,0,.818-.58L29.4,8.4a.576.576,0,0,1,.136-.435Z" transform="translate(-8.416 0)" fill="#fff"/>
    <path id="Path_180184" data-name="Path 180184" d="M42.451,14.809a.576.576,0,0,0,.667.749l1.816-.393a.576.576,0,0,1,.478.111l1.461,1.147a.576.576,0,0,0,.927-.381l.251-1.995a.576.576,0,0,1,.23-.393l1.613-1.182a.576.576,0,0,0-.094-.984l-1.718-.818a.576.576,0,0,1-.307-.365l-.518-1.854a.576.576,0,0,0-.985-.227l-1.28,1.44a.576.576,0,0,1-.435.193l-1.9-.018a.576.576,0,0,0-.518.844l.93,1.765a.576.576,0,0,1,.035.454Z" transform="translate(-16.993 -2.521)" fill="#fff"/>
    <path id="Path_180185" data-name="Path 180185" d="M4.174,12.47l1.613,1.182a.576.576,0,0,1,.23.393l.251,1.995a.576.576,0,0,0,.927.381l1.461-1.149a.576.576,0,0,1,.478-.111l1.816.393a.576.576,0,0,0,.667-.749l-.649-1.9A.576.576,0,0,1,11,12.445l.93-1.768a.576.576,0,0,0-.515-.844l-1.9.018a.576.576,0,0,1-.435-.193L7.8,8.219a.576.576,0,0,0-.985.227L6.295,10.3a.576.576,0,0,1-.307.365l-1.718.818a.576.576,0,0,0-.1.988Z" transform="translate(-0.822 -2.519)" fill="#fff"/>
  </g>
</svg>
