<svg xmlns="http://www.w3.org/2000/svg" width="34.106" height="24.755" viewBox="0 0 34.106 24.755">
  <path id="office" d="M19.545,19H3.876a.55.55,0,0,0-.55.55v8.736a.55.55,0,0,0,.55.55H10v.891h3.411v-.891h6.131a.552.552,0,0,0,.55-.55V19.55A.552.552,0,0,0,19.545,19ZM28,23.283a.549.549,0,0,0-.71.316l-.968,2.528h-.448L25.825,23.9a.551.551,0,0,0-.55-.536h-.014a.55.55,0,0,0-.536.564l.052,2.195H24.32l-1.395-4.552a.55.55,0,0,0-1.051.325l1.3,4.233a.555.555,0,0,0-.369.19.546.546,0,0,0-.118.451l.517,2.954h4.208l.52-2.954a.546.546,0,0,0-.429-.633l.822-2.145A.552.552,0,0,0,28,23.283Zm7.567,7.545H2.55a.552.552,0,0,0-.55.55v2.4a.552.552,0,0,0,.55.55H4.2V43.2a.552.552,0,0,0,.55.55H7.226a.552.552,0,0,0,.55-.55V34.323H22.5V43.2a.55.55,0,0,0,.55.55H33.356a.552.552,0,0,0,.55-.55V34.323h1.656a.545.545,0,0,0,.545-.55v-2.4a.538.538,0,0,0-.536-.55ZM28.93,41.076H27.47a.55.55,0,1,1,0-1.1H28.93a.55.55,0,0,1,0,1.1Zm0-4.61H27.47a.55.55,0,1,1,0-1.1H28.93a.55.55,0,0,1,0,1.1ZM34.365,19H30.487a.552.552,0,0,0-.55.55V29.727h4.978V19.55a.55.55,0,0,0-.55-.55Zm-1.389,3.941a.55.55,0,0,1-1.1,0v-.908a.55.55,0,0,1,1.1,0Z" transform="translate(-2 -19)" fill="#fff"/>
</svg>
