<svg id="Frame" xmlns="http://www.w3.org/2000/svg" width="24" height="24" viewBox="0 0 24 24">
  <rect id="Frame-2" data-name="Frame" width="24" height="24" fill="none"/>
  <g id="Group">
    <g id="Layer_2" data-name="Layer 2">
      <g id="Color">
        <g id="_04.Twitter" data-name="04.Twitter">
          <path id="Background" d="M24,12A12,12,0,1,1,12,0,12,12,0,0,1,24,12Z" fill="#03a9f4"/>
          <path id="Icon" d="M15.542,1.5a6.341,6.341,0,0,1-1.585,1.655c.011.136.011.272.011.412a9.009,9.009,0,0,1-9.073,9.069A8.967,8.967,0,0,1,0,11.2a5.755,5.755,0,0,0,.763.044A6.409,6.409,0,0,0,4.71,9.887a3.219,3.219,0,0,1-2.979-2.22,2.842,2.842,0,0,0,.6.054,3.178,3.178,0,0,0,.835-.1A3.2,3.2,0,0,1,.617,4.487V4.452a3.145,3.145,0,0,0,1.44.393A3.189,3.189,0,0,1,1.077.582,9.025,9.025,0,0,0,4.006,2.95a9.025,9.025,0,0,0,3.641.966,3.3,3.3,0,0,1-.074-.726A3.186,3.186,0,0,1,13.086,1.01,6.366,6.366,0,0,0,15.107.238,3.167,3.167,0,0,1,13.705,2a6.632,6.632,0,0,0,1.836-.5Z" transform="translate(4.232 5.683)" fill="#fff"/>
        </g>
      </g>
    </g>
  </g>
</svg>
