<svg xmlns="http://www.w3.org/2000/svg" width="14.887" height="14.887" viewBox="0 0 14.887 14.887">
  <g id="upload" transform="translate(-2 -3.92)">
    <path id="Path_180187" data-name="Path 180187" d="M16.887,23.612v2.449a1.154,1.154,0,0,1-1.063,1.224H3.063A1.154,1.154,0,0,1,2,26.061V23.612A.576.576,0,0,1,2.532,23a.576.576,0,0,1,.532.612v2.449h12.76V23.612a.537.537,0,1,1,1.063,0Z" transform="translate(0 -8.479)" fill="#227afe"/>
    <path id="Path_180188" data-name="Path 180188" d="M8.138,6.13a.476.476,0,0,1,0-.67l3.3-3.319a.471.471,0,0,1,.667,0l3.3,3.319a.476.476,0,0,1,0,.67.469.469,0,0,1-.666,0L12.241,3.62v8.339a.471.471,0,1,1-.943,0V3.62L8.8,6.13A.469.469,0,0,1,8.138,6.13Z" transform="translate(-2.327 1.918)" fill="#227afe"/>
  </g>
</svg>
