<svg id="Group_42356" data-name="Group 42356" xmlns="http://www.w3.org/2000/svg" width="78.564" height="20.704" viewBox="0 0 78.564 20.704">
  <g id="icons8_mastercard_logo_1" transform="translate(49.624)">
    <path id="Path_78834" data-name="Path 78834" d="M27.208,10C22.123,10,18,14.635,18,20.352S22.123,30.7,27.208,30.7s9.208-4.635,9.208-10.352S32.294,10,27.208,10Z" transform="translate(-7.476 -10)" fill="#ff9800"/>
    <path id="Path_78835" data-name="Path 78835" d="M11.208,10C6.123,10,2,14.635,2,20.352S6.123,30.7,11.208,30.7s9.208-4.635,9.208-10.352S16.294,10,11.208,10Z" transform="translate(-2 -10)" fill="#d50000"/>
    <path id="Path_78836" data-name="Path 78836" d="M18,21.009A10.752,10.752,0,0,0,21.946,29.5a10.752,10.752,0,0,0,3.946-8.489,10.752,10.752,0,0,0-3.946-8.489A10.752,10.752,0,0,0,18,21.009Z" transform="translate(-7.476 -10.657)" fill="#ff3d00"/>
  </g>
  <g id="icons8_visa_1" transform="translate(0 2.757)">
    <path id="Path_78832" data-name="Path 78832" d="M16.891,19l-3.26,10.931s-.828-4.624-.91-5.2c-1.856-4.761-4.595-4.5-4.595-4.5l3.228,14.122v0h3.924L20.705,19ZM20,34.353h3.564L25.718,19H22.109ZM45.225,19H41.475L35.627,34.353h3.541l.73-2.193h4.465l.38,2.193h3.244ZM40.886,29.228l1.941-5.8,1.016,5.8ZM30.775,23.475c0-.846.618-1.475,2.391-1.475a5.252,5.252,0,0,1,2.472.941l.579-3.223A9.857,9.857,0,0,0,32.876,19c-3.748,0-5.681,2.015-5.681,4.567,0,4.614,4.94,3.982,4.94,6.352,0,.406-.287,1.345-2.344,1.345a6.975,6.975,0,0,1-3.425-.85l-.615,3.093a7.628,7.628,0,0,0,3.87.846c2.556,0,6.1-2.149,6.1-5.237C35.723,25.4,30.775,25.133,30.775,23.475Z" transform="translate(-4.534 -18.999)" fill="#1a1f71"/>
    <path id="Path_78833" data-name="Path 78833" d="M13.9,27.231,12.7,20.6a2.252,2.252,0,0,0-1.953-1.436H5.233S12.261,21.5,13.9,27.231Z" transform="translate(-5.233 -18.932)" fill="#1a1f71"/>
  </g>
</svg>
