<svg xmlns="http://www.w3.org/2000/svg" width="24" height="24" viewBox="0 0 24 24">
  <g id="Group_452" data-name="Group 452" transform="translate(-444 -253)">
    <g id="Frame" transform="translate(444 253)">
      <rect id="Frame-2" data-name="Frame" width="24" height="24" fill="none"/>
      <g id="Group">
        <g id="Layer_2" data-name="Layer 2">
          <g id="_09.whatsapp" data-name="09.whatsapp">
            <path id="Vector" d="M24,12A12,12,0,1,1,12,0,12,12,0,0,1,24,12Z" fill="#29a71a"/>
            <g id="Group-2" data-name="Group">
              <path id="Vector-2" data-name="Vector" d="M14.856,6.866A7.44,7.44,0,0,1,4.126,14.1l-3.757.89a.288.288,0,0,1-.305-.119.284.284,0,0,1-.045-.222l.79-3.833A7.44,7.44,0,1,1,14.856,6.866Zm-1.592.591a5.825,5.825,0,0,0-1.676-4.11.312.312,0,0,1-.03-.03,5.826,5.826,0,0,0-9.311,6.762l.256.506L2.026,12.9l-.007.029,2.3-.545.524.259a5.82,5.82,0,0,0,8.418-5.189Z" transform="translate(4.562 4.503)" fill="#fff"/>
              <path id="Vector-3" data-name="Vector" d="M7.663,6A2.42,2.42,0,0,1,6.375,7.128c-.982.237-2.489.008-4.364-1.74l-.023-.02C.339,3.839-.089,2.566.015,1.557A2.412,2.412,0,0,1,.951.128.536.536,0,0,1,1.79.321L2.4,1.684a.533.533,0,0,1-.067.545l-.307.4a.528.528,0,0,0-.048.589,5.733,5.733,0,0,0,1.04,1.155A6.072,6.072,0,0,0,4.457,5.4a.521.521,0,0,0,.571-.12l.356-.359a.545.545,0,0,1,.532-.136L7.358,5.2A.545.545,0,0,1,7.663,6Z" transform="translate(8.252 8.354)" fill="#fff"/>
            </g>
          </g>
        </g>
      </g>
    </g>
  </g>
</svg>
