<svg xmlns="http://www.w3.org/2000/svg" viewBox="0 0 100 100"><path fill="#fff" d="M80.8 31.8A0.7 0.7 0 1 0 80.8 33.2A0.7 0.7 0 1 0 80.8 31.8Z"/><path fill="#f1bc19" d="M78.1 12.5A0.9 0.9 0 1 0 78.1 14.3A0.9 0.9 0 1 0 78.1 12.5Z"/><path fill="#e4e4f9" d="M50.9 13.200000000000003A37.5 37.5 0 1 0 50.9 88.2A37.5 37.5 0 1 0 50.9 13.200000000000003Z"/><path fill="#f1bc19" d="M83.6 11.6A4 4 0 1 0 83.6 19.6A4 4 0 1 0 83.6 11.6Z"/><path fill="#8889b9" d="M13.4 27.3A1.9 1.9 0 1 0 13.4 31.099999999999998A1.9 1.9 0 1 0 13.4 27.3Z"/><path fill="#fbcd59" d="M78.6 75.3A1.9 1.9 0 1 0 78.6 79.10000000000001 1.9 1.9 0 1 0 78.6 75.3zM26.1 72.1A4 4 0 1 0 26.1 80.1 4 4 0 1 0 26.1 72.1z"/><path fill="#8889b9" d="M27.2 84.69999999999999A1.9 1.9 0 1 0 27.2 88.5A1.9 1.9 0 1 0 27.2 84.69999999999999Z"/><path fill="#fff" d="M58.6 77.7A2.6 2.6 0 1 0 58.6 82.89999999999999A2.6 2.6 0 1 0 58.6 77.7Z"/><path fill="#fdfcef" d="M76.4,62.7V32.6c0-2.6-1.7-4.7-3.8-4.7H29.3c-2.1,0-3.8,2.1-3.8,4.7v30.1"/><path fill="#472b29" d="M76.4,63.2c-0.3,0-0.5-0.2-0.5-0.5V32.6c0-2.3-1.5-4.2-3.3-4.2H29.3c-1.8,0-3.3,1.9-3.3,4.2v30.1 c0,0.3-0.2,0.5-0.5,0.5S25,63,25,62.7V32.6c0-2.9,1.9-5.2,4.3-5.2h43.2c2.4,0,4.3,2.3,4.3,5.2v30.1C76.9,63,76.6,63.2,76.4,63.2z"/><path fill="#c0e5e4" d="M73.4 35.4L73.4 59.7 28.5 59.7 28.5 56.6 28.5 46.9 28.5 32.3 72.4 32.3 73.4 32.3z"/><path fill="#e1e0d8" d="M22.8,62.7v2c0,1.8,1.9,3.3,4.2,3.3h47.8c2.3,0,4.2-1.5,4.2-3.3v-2H22.8z"/><path fill="#472b29" d="M74.8 68.6H27.1c-2.6 0-4.7-1.7-4.7-3.9v-2c0-.3.2-.5.5-.5H79c.3 0 .5.2.5.5v2C79.5 66.8 77.4 68.6 74.8 68.6zM23.3 63.2v1.5c0 1.6 1.7 2.9 3.7 2.9h47.8c2 0 3.7-1.3 3.7-2.9v-1.5H23.3zM49.9 29.9h1.4c.2 0 .3.1.3.3v.1c0 .2-.1.3-.3.3h-1.4c-.2 0-.3-.1-.3-.3v-.1C49.6 30.1 49.7 29.9 49.9 29.9z"/><path fill="#472b29" d="M48.6 65.4h4.8c.2 0 .3.1.3.3v.1c0 .2-.1.3-.3.3h-4.8c-.2 0-.3-.1-.3-.3v-.1C48.3 65.5 48.4 65.4 48.6 65.4zM73.4 60.1H28.5c-.2 0-.4-.2-.4-.4V57c0-.2.2-.4.4-.4s.4.2.4.4v2.3H73V35.6c0-.2.2-.4.4-.4s.4.2.4.4v24.1C73.7 59.9 73.6 60.1 73.4 60.1zM28.5 50.7c-.2 0-.4-.2-.4-.4V32.3c0-.2.2-.4.4-.4h44.8c.2 0 .4.2.4.4s-.2.4-.4.4H28.9v17.7C28.9 50.5 28.7 50.7 28.5 50.7z"/><path fill="#fff" d="M23.5 68.5A0.9 0.9 0 1 0 23.5 70.30000000000001A0.9 0.9 0 1 0 23.5 68.5Z"/><path fill="#f1bc19" d="M85.3 30.200000000000003A0.9 0.9 0 1 0 85.3 32A0.9 0.9 0 1 0 85.3 30.200000000000003Z"/><path fill="#fff" d="M78.1 66.5A1.8 1.8 0 1 0 78.1 70.1A1.8 1.8 0 1 0 78.1 66.5Z"/><path fill="#e5ac80" d="M82.4,61.4c-0.1-1.2-0.9-2.2-2.1-2.5l-0.2-0.1l-0.4-0.1c-0.8-0.3-5.4-2-5.4-2 c-0.3-0.1-0.6-0.3-0.8-0.7c-0.2-0.6-0.2-1.2-0.2-1.8c-1,0.4-2.1,0.6-3.1,0.9c-1.2,0.1-3.7-1.4-3.7-1.4s-0.1,1.9-0.1,2.3 c-0.1,0.4-0.4,0.6-0.8,0.7l-4.4,1.6c-0.5,0.1-0.9,0.3-1.3,0.5c-1,0.6-1.7,1.5-2,2.6c0,0-0.3,2.1-0.3,2.1c0,0.3,0,0.6-0.1,0.9 c4.8,3.3,8.7,4.2,15.3,3.9c3.4-0.4,6.7-1.3,9.8-2.8C82.7,62.9,82.4,61.4,82.4,61.4z"/><path fill="#fbcd59" d="M82.4,61.4c-0.1-1.2-0.9-2.2-2.1-2.5l-0.2-0.1l-0.4-0.2c-0.4-0.2-2-0.8-3.3-1.3 c-2,1-4.1,3.7-6.3,3.7s-4.4-2.9-6.4-3.8l0.5-0.2l0,0h-0.2l-2.8,1c-0.5,0.1-0.9,0.3-1.4,0.6c-1,0.6-1.7,1.5-2,2.6c0,0-0.3,2-0.3,2.1 c0,0.3-0.1,3.4-0.1,3.7c4.8,3.3,8.7,4.2,15.3,3.9c3.4-0.3,6.7-1.3,9.8-2.8C82.7,65.7,82.4,61.4,82.4,61.4z"/><path fill="#8889b9" d="M75.6,57.3c-1.7,0.5-3.5,3-5.4,3s-3.7-2.5-5.4-3l-1,0.3c2,0.9,4.2,3.8,6.4,3.8s4.4-2.9,6.4-3.8 L75.6,57.3z"/><path fill="#e0a825" d="M61.9 70c-.2 0-.3-.1-.3-.3v-2.4c0-.2.1-.3.3-.3s.3.1.3.3v2.4C62.2 69.8 62 70 61.9 70zM78.2 70.4c-.2 0-.3-.1-.3-.3v-2.9c0-.2.1-.3.3-.3s.3.1.3.3v2.9C78.5 70.3 78.3 70.4 78.2 70.4z"/><path fill="#edbc94" d="M77.7,45h-0.2c-0.6,0-0.8,0.2-0.7-0.2c0-0.7,0-3.3,0-3.5c0-2.8-2.9-5-6.5-5.1H70 c-3.6,0.1-6.5,2.4-6.5,5.1c0,0.1-0.1,2.8,0,3.5c0,0.4-0.2,0.1-0.7,0.2h-0.2c-0.6,0-1.1,0.4-1.3,1c0.2,1.1,0.5,2.2,0.9,3.2 c0.3,0.5,0.7,0.6,1.1,0.9c0.2,0.2,0.3,0.4,0.3,0.7c0.3,1,0.9,1.9,1.7,2.5c0.4,0.4,2.8,2.9,4.9,2.8s4.5-2.5,4.9-2.8 c0.8-0.7,1.3-1.5,1.7-2.5c0-0.3,0.1-0.6,0.4-0.7c0.4-0.3,0.8-0.4,1.1-0.9c0.4-1,0.7-2.1,0.9-3.2C78.8,45.4,78.3,45,77.7,45z"/><path fill="#512c2b" d="M70.1 49.9c.4 0 .8-.2 1.1-.5 0 0 0-.1 0-.1l0 0c0 0-.1 0-.1 0-.6.5-1.4.5-2 0 0 0 0 0-.1 0l0 0c0 0 0 .1 0 .1C69.3 49.7 69.7 49.9 70.1 49.9zM68.8 43.6l.3-.5c-1.2-.3-2.4-.2-3.5.1l.3.5C66.8 43.4 67.8 43.4 68.8 43.6zM74.5 43.6l.3-.5c-1.2-.3-2.4-.2-3.5.1l.3.5C72.5 43.4 73.5 43.4 74.5 43.6zM67.2 44.3c-.3 0-.5.2-.7.5 0 0 .1 0 .1 0 .2 0 .5.2.5.5s-.2.5-.5.5c-.1 0-.1 0-.2-.1 0 .4.4.7.7.7.6 0 1-.4 1-1S67.7 44.3 67.2 44.3L67.2 44.3zM73.1 44.3c-.2 0-.5.1-.6.3 0 0 .1 0 .1 0 .2 0 .4.2.4.5 0 .2-.2.4-.4.5-.1 0-.3-.1-.3-.2-.1.4.2.8.6.9.4.1.8-.2.9-.6 0-.1 0-.2 0-.4C73.9 44.9 73.6 44.4 73.1 44.3 73.1 44.3 73.1 44.3 73.1 44.3zM73.4 51.1c0 0 0-.1 0-.1l0 0c0 0-.1 0-.1 0-1.9 1.2-4.4 1.2-6.3 0l0 0c0 0 0 0-.1 0 0 0 0 .1 0 .1C68.9 52.5 71.5 52.5 73.4 51.1L73.4 51.1zM64 42.7c.3-1.3.8-2.6 1.4-3.8-.2-.3-.6-.4-.9-.3-.9 1.6-1.3 3.4-1.3 5.2 0 .8.2 1.7.4 2.5C63.8 45.1 63.8 43.9 64 42.7zM76.3 42.7c-.3-1.3-.8-2.6-1.4-3.8.2-.3.6-.4.9-.3.9 1.6 1.3 3.4 1.3 5.2 0 .8-.2 1.7-.4 2.5C76.4 45.1 76.5 43.9 76.3 42.7z"/><path fill="#472b29" d="M70.8,71.6c-5.5,0-9.1-1.1-13.4-4c-0.1-0.1-0.2-0.2-0.2-0.3c0-2,0.1-3.9,0.4-5.9 c0.3-1.3,1.1-2.3,2.2-2.9c0.4-0.3,0.9-0.5,1.4-0.6l4.4-1.6c0.3-0.1,0.5-0.2,0.6-0.5c0-0.2,0.1-0.7,0.1-1.2c-0.6-0.4-1.1-0.8-1.3-1 c-0.8-0.7-1.4-1.7-1.8-2.7c0-0.2-0.1-0.4-0.2-0.5c-0.1-0.1-0.2-0.2-0.4-0.2c-0.3-0.2-0.6-0.4-0.8-0.8c-0.5-1.1-0.8-2.2-0.9-3.4 c0,0,0-0.1,0-0.1c0.2-0.7,0.9-1.3,1.6-1.3h0.2c0.1,0,0.2,0,0.3,0c0-0.7,0-2.1,0-3.1l0-0.2c0-3,3-5.4,6.8-5.6l0.3,0 c3.9,0.1,6.9,2.6,6.9,5.6v3.3c0.1,0,0.2,0,0.4,0h0.2c0.8,0,1.5,0.5,1.7,1.3c0,0,0,0.1,0,0.1c-0.1,1.2-0.4,2.3-0.9,3.4 c-0.2,0.4-0.6,0.6-0.9,0.8c-0.1,0.1-0.2,0.1-0.4,0.2C77.1,50.7,77,50.9,77,51c-0.3,1.1-0.9,2.1-1.8,2.8c-0.2,0.2-0.7,0.6-1.4,1.1 c0,0.4,0,0.7,0.2,1.1c0.1,0.2,0.3,0.4,0.5,0.4c0.2,0.1,4.6,1.7,5.4,2l0.6,0.2c1.3,0.3,2.2,1.5,2.3,2.8c0,0,0,0,0,0 c0,0,0.2,4.3,0.3,6.9c0,0.1-0.1,0.3-0.2,0.4c-3.1,1.5-6.5,2.5-10,2.8C72.2,71.6,71.5,71.6,70.8,71.6z M58,67.1 c4.6,3.1,8.4,4,14.9,3.7c3.3-0.3,6.5-1.2,9.5-2.7c-0.1-2.6-0.3-6.5-0.3-6.7c-0.1-1-0.8-1.9-1.8-2.1l-0.6-0.2c-0.8-0.3-5.3-2-5.4-2 c-0.4-0.1-0.8-0.4-1-0.9c-0.2-0.5-0.2-1.1-0.2-1.6c0-0.1,0.1-0.2,0.2-0.3c0.7-0.5,1.3-1,1.4-1.1c0.7-0.7,1.3-1.5,1.6-2.4 c0-0.3,0.2-0.6,0.5-0.8c0.2-0.1,0.3-0.2,0.5-0.3c0.2-0.1,0.4-0.2,0.6-0.5c0.5-1,0.7-2,0.8-3.1c-0.1-0.4-0.5-0.7-0.9-0.7h-0.2 c-0.2,0-0.3,0-0.4,0c-0.2,0-0.4,0.1-0.6-0.1c-0.2-0.2-0.2-0.4-0.1-0.5l0-3.5c0-2.6-2.7-4.7-6.1-4.8H70c-3.4,0.1-6.1,2.2-6.1,4.8 l0,0.2c0,1.8,0,2.9,0,3.2c0,0.1,0,0.4-0.2,0.5c-0.2,0.1-0.4,0.1-0.5,0.1c-0.1,0-0.2,0-0.4,0l-0.3,0c-0.4,0-0.8,0.3-0.9,0.7 c0.1,1.1,0.4,2.1,0.8,3c0.1,0.2,0.3,0.3,0.5,0.5c0.1,0.1,0.3,0.2,0.5,0.3c0.3,0.2,0.5,0.6,0.5,0.9c0.3,0.9,0.8,1.7,1.5,2.3 c0.1,0.1,0.6,0.5,1.4,1c0.1,0.1,0.2,0.2,0.2,0.3c0,0.6-0.1,1.3-0.1,1.5c-0.2,0.5-0.6,0.9-1.1,1l-4.3,1.6c-0.5,0.1-0.9,0.3-1.3,0.5 c-1,0.5-1.6,1.3-1.8,2.3C58.1,63.4,58,65.2,58,67.1z"/><path fill="#d3a47d" d="M77.8 48l-.6-.1.1-.9-.4.2-.2-.5.9-.4c.1 0 .2 0 .3 0 .1.1.1.2.1.3L77.8 48zM62.6 47.8l-.2-1.4c0-.1 0-.2.1-.3.1-.1.2-.1.3 0l.9.4L63.5 47l-.4-.2.1.9L62.6 47.8z"/><path fill="#472b29" d="M63.5 50.6C63.5 50.6 63.5 50.6 63.5 50.6c-.1 0-.2-.1-.2-.2l.1-5.4c0-.1.1-.2.2-.2.1 0 .2.1.2.2l-.1 5.4C63.7 50.5 63.6 50.6 63.5 50.6zM76.8 50.6c-.1 0-.2-.1-.2-.2L76.5 45c0-.1.1-.2.2-.2.1 0 .2.1.2.2l.1 5.4C77 50.5 76.9 50.6 76.8 50.6 76.8 50.6 76.8 50.6 76.8 50.6z"/><path fill="#512c2b" d="M71.6 54.6c-.6-.2-1.2-.7-1.4-1.3-.2.6-.7 1.1-1.4 1.3-1.7.3-3.5-1.2-4.7-2.7.2.5.4 1 .8 1.4 1.2 1.2 2.7 2.2 4.2 3 .7.1 1.4.1 2.1 0 1.6-.7 3-1.7 4.2-3 .4-.4.6-.9.8-1.4C75 53.4 73.3 54.9 71.6 54.6zM63.5 43.5c-.4.9 1-.2 1.2-.6s.1-.6.6-1.3c.3.1.9.2 1-.2s-.4-.5-.3-.9c.2-.7 1.9-1.4 2.5-1 .1.1.3.5.2.7s-.5 0-.7 0c-.6.1-1.8.8-.4 1.5-.6-1.3 1.1.1 2.2-.2.8-.2 1.4-.9 1.4-1.7.1.1.3.2.4.3.5.2 2.2-.3 2.3.5.1.5-.7.7.2 1 .2 0 .8 0 .8.1s-.3.5-.3.7c0 .7 1.1.8 1.4.3.1-.2 0-.7 0-.9 0-.1 0-.2 0-.2.4.6.6 1.3.7 2.1.4-1.8.7-3.5.9-5.3-.3-.8-.3-.6-.7-.8-.6-.3-.3-.8-.7-1.2-.5-.5-2.4.1-2.7-.4-.2-.3.3-.5 0-.8-.2-.1-.8 0-1 0-.6-.2-.3-.3-.5-.8-.2-.3-.5-.5-.8-.5-.6-.1-1.2 0-1.7.3-.4.2-.7.7-1 .8s-.9-.2-1.3-.3c-.5-.1-1 0-1.4.2-.6.4-.6 1.2-1.4 1.5-1 .5-2.2.9-2.1 2.1.1 1 .8 4.7 1 5.6"/><path fill="#8889b9" d="M76.2,44.7h-0.2h-0.7H74c-0.6,0-1.2,0-1.8,0.1H72c-0.5,0.1-0.9,0.2-1.4,0.3c-0.3,0.1-0.7,0.1-1,0 h-0.1c-0.1-0.1-0.2-0.1-0.4-0.1h-0.3c-0.5-0.1-1-0.2-1.6-0.3c-0.4,0-0.8,0-1.1,0h-0.5h-0.5h-1.1c-0.3,0-0.5,0.1-0.8,0.2 c0,0,0,0.1,0,0.2c0,0.2,0,0.3,0.1,0.5s0.1,0.3,0.1,0.5s0.2,0.2,0.5,0.4c0.1,0,0.1,0.1,0.2,0.1c0.1,0,0.1,0.1,0.1,0.2l0,0l0.1,0.2 c0.1,0.1,0.1,0.2,0.2,0.3c0.1,0.1,0.2,0.2,0.3,0.2c0.1,0.1,0.2,0.1,0.4,0.1c1,0.2,2,0.3,3,0.2c0.5,0,1-0.4,1.1-0.9 c0.1-0.2,0.1-0.3,0.2-0.4l0.1-0.3c0-0.1,0.1-0.2,0.3-0.2h0.3c0.3,0,0.3,0,0.4,0.3v0.1c0.1,0.3,0.2,0.5,0.3,0.8 c0.1,0.3,0.3,0.4,0.6,0.5c0.1,0,0.3,0.1,0.4,0.1h0.7c0.7,0,1.3-0.1,2-0.2c0.5,0,0.9-0.3,1.1-0.8c0.1-0.1,0.2-0.3,0.3-0.4 c0.1-0.1,0.2-0.1,0.3-0.1c0.2-0.1,0.4-0.2,0.4-0.3l0,0c0,0,0.1,0,0.1-0.1v-0.3c0-0.2,0-0.5,0.1-0.7S76.6,44.7,76.2,44.7z M72.6,45.1l0.7-0.1h1.1c0.3,0,0.6,0,0.9,0.1c0.3,0,0.4,0.2,0.4,0.5c0,0.4-0.1,0.8-0.3,1.2c-0.1,0.1-0.2,0.2-0.3,0.2 c-0.4,0.2-0.8,0.3-1.2,0.3c-0.5,0-1.1,0-1.6,0h-0.3c-0.3,0-0.7-0.2-0.8-0.5c-0.2-0.4-0.3-0.8-0.3-1.2c0-0.1,0.1-0.3,0.2-0.3 c0.4-0.1,0.7-0.2,1.1-0.3L72.6,45.1z M69.2,45.8c0,0.5-0.2,0.9-0.5,1.3c-0.1,0.2-0.4,0.3-0.6,0.3c-0.3,0-0.6,0-0.9,0l0,0 c-0.6,0-1.2-0.1-1.7-0.2c-0.2,0-0.4-0.1-0.5-0.2c-0.1-0.1-0.2-0.1-0.2-0.2c-0.2-0.4-0.3-0.8-0.3-1.3c0-0.3,0.1-0.4,0.4-0.5 s0.7-0.1,1-0.1h0.4c0.8,0,1.6,0.1,2.4,0.3l0.2,0.1C69.1,45.5,69.2,45.5,69.2,45.8z"/><path fill="#fdfcee" d="M57.8,38.6L57.8,38.6c-1-1.3-2.5-1.9-3.2-1.3L39.4,48.7c-0.7,0.5-3,5-3.6,6c-0.1,0.1-0.1,0.2,0,0.3 l0.1,0.2c0.1,0.1,0.3,0.2,0.4,0.1c1.3-0.4,6-1.3,6.6-1.8l15.2-11.5C58.9,41.5,58.7,40,57.8,38.6z"/><path fill="#f48e8f" d="M55.8,43.9l2.7-2c0.8-0.6,0.6-2.1-0.4-3.5l0,0c-1-1.3-2.5-1.9-3.2-1.3L52.3,39 C53.5,40.6,54.6,42.3,55.8,43.9z"/><path fill="#605e60" d="M36.9,52.6c-0.5,0.9-0.9,1.7-1.1,2c-0.1,0.1-0.1,0.2,0,0.3l0.1,0.2c0.1,0.1,0.3,0.2,0.5,0.1 c0.4-0.1,1.3-0.3,2.2-0.5L36.9,52.6z"/><path fill="#fbb821" d="M39.4 43.7H54.7V49.7H39.4z" transform="rotate(-36.98 47.08 46.673)"/><path fill="#beace5" d="M52.9 38.3H55.6V44.3H52.9z" transform="rotate(-36.98 54.281 41.264)"/><path fill="#472b29" d="M36.5,55.5c-0.2,0-0.5-0.1-0.6-0.3L35.8,55c-0.2-0.2-0.2-0.6,0-0.8c0.2-0.3,0.5-0.9,0.9-1.7 c1.2-2.2,2.2-4,2.7-4.4l15.2-11.4c1-0.7,2.6-0.1,3.7,1.4c1.1,1.5,1.3,3.3,0.3,4L43.5,53.6C43,54,41.2,54.4,38.7,55 c-0.9,0.2-1.6,0.4-2,0.5C36.6,55.5,36.6,55.5,36.5,55.5z M36.4,54.6L36.4,54.6c0.5,0,1.3-0.2,2.1-0.4c1.5-0.3,4.1-0.9,4.5-1.2 l15.2-11.4c0.5-0.4,0.5-1.7-0.5-2.9c-0.9-1.1-2.1-1.7-2.7-1.3L39.9,48.8c-0.4,0.3-1.7,2.7-2.5,4.1C36.9,53.7,36.6,54.3,36.4,54.6z M36.4,54.7C36.4,54.7,36.4,54.7,36.4,54.7C36.4,54.7,36.4,54.7,36.4,54.7z"/><path fill="#472b29" d="M55.2 44.6c-.1 0-.2 0-.2-.1l-3.6-4.8c-.1-.1-.1-.3 0-.4.1-.1.3-.1.3 0l3.6 4.8c.1.1.1.3 0 .4C55.3 44.6 55.2 44.6 55.2 44.6zM56.4 41.8c-.1 0-.2 0-.2-.1l-2.6-3.5c-.1-.1-.1-.3 0-.4s.3-.1.4 0l2.6 3.5c.1.1.1.3 0 .4C56.5 41.8 56.4 41.8 56.4 41.8zM56.5 43.5c-.1 0-.2 0-.2-.1l-3.5-4.6c-.1-.1-.1-.3 0-.4.1-.1.3-.1.3 0l3.5 4.6c.1.1.1.3 0 .4C56.6 43.5 56.5 43.5 56.5 43.5zM42.8 53.9c-.1 0-.2 0-.2-.1L39 49c-.1-.1-.1-.3 0-.4.1-.1.3-.1.4 0l3.6 4.8c.1.1.1.3 0 .4C42.9 53.9 42.8 53.9 42.8 53.9zM38.6 54.8c-.1 0-.1 0-.2-.1L37 52.8c-.1-.1-.1-.3 0-.4.1-.1.3-.1.4 0l1.4 1.9c.1.1.1.3 0 .4C38.7 54.8 38.6 54.8 38.6 54.8z"/><path fill="#472b29" d="M40.5 49.6c-.1 0-.2 0-.2-.1-.1-.1-.1-.3 0-.4l11.7-8.8c.1-.1.3-.1.4 0 .1.1.1.3 0 .4l-11.7 8.8C40.6 49.6 40.6 49.6 40.5 49.6zM41.2 50.5c-.1 0-.2 0-.2-.1-.1-.1-.1-.3 0-.4l11.7-8.8c.1-.1.3-.1.3 0 .1.1.1.3 0 .4l-11.7 8.8C41.3 50.5 41.3 50.5 41.2 50.5zM44.3 51.3c-.1 0-.2 0-.2-.1-.1-.1-.1-.3 0-.4l10.1-7.6c.1-.1.3-.1.3 0 .1.1.1.3 0 .4l-10.1 7.6C44.4 51.3 44.4 51.3 44.3 51.3zM43.3 52.1c-.1 0-.2 0-.2-.1-.1-.1-.1-.3 0-.3l.5-.4c.1-.1.3-.1.4 0 .1.1.1.3 0 .3L43.4 52C43.4 52.1 43.3 52.1 43.3 52.1zM42 51.5c-.1 0-.2 0-.2-.1-.1-.1-.1-.3 0-.3L52 43.4c.1-.1.3-.1.3 0 .1.1.1.3 0 .4l-10.1 7.6C42.1 51.5 42 51.5 42 51.5zM52.7 43.5c-.1 0-.2 0-.2-.1-.1-.1-.1-.3 0-.4l1.1-.8c.1-.1.3-.1.3 0s.1.3 0 .4l-1.1.8C52.8 43.5 52.7 43.5 52.7 43.5zM57.3 42.9c-.1 0-.2 0-.2-.1l-.5-.6c-.1-.1-.1-.3 0-.4.1-.1.3-.1.3 0l.5.6c.1.1.1.3 0 .4C57.4 42.9 57.3 42.9 57.3 42.9z"/></svg>