<svg xmlns="http://www.w3.org/2000/svg" viewBox="0 0 80 80"><path fill="#5e9c76" d="M0.5 10.5H79.5V69.5H0.5z"/><path fill="#37774e" d="M79,11v58H1V11h50H79 M80,10H51H0v60h80V10L80,10z"/><path fill="#fff" d="M33.431,24.625c-0.05-0.001-0.125,0.026-0.23,0.089c-0.236,0.158-0.705,0.646-0.719,1.207c-0.014,0.316-0.074,0.315,0.133,0.517c0.15,0.216,0.3,0.195,0.602,0.036c0.174-0.128,0.232-0.209,0.291-0.424c0.072-0.359-0.379,0.17-0.436-0.23c-0.101-0.371,0.187-0.524,0.461-0.884C33.538,24.766,33.541,24.628,33.431,24.625L33.431,24.625z"/><path fill="#fff" d="M37.835,24.649c-0.084,0.011-0.188,0.119-0.331,0.379c-0.103,0.272-0.546,0.684-0.226,1.533c0.262,0.539,0.369,1.414,0.251,2.389c-0.181,0.277-0.223,0.373-0.461,0.65c-0.334,0.359-0.696,0.267-0.974,0.133c-0.259-0.175-0.463-0.264-0.582-0.819c0.021-0.884,0.073-2.332-0.089-2.639c-0.239-0.476-0.632-0.305-0.8-0.161c-0.808,0.738-1.207,1.983-1.451,2.974c-0.224,0.722-0.463,0.513-0.63,0.222c-0.408-0.382-0.437-3.368-0.929-2.877c-0.789,2.252,0.453,4.719,1.313,4.479c0.621,0.257,1.015-0.923,1.269-2.215c0.174-0.363,0.307-0.404,0.396-0.218c-0.023,1.718,0.123,2.101,0.566,2.623c0.987,0.76,1.803,0.096,1.867,0.032c0.064-0.064,0.768-0.767,0.768-0.767c0.171-0.18,0.397-0.191,0.638-0.032c0.235,0.213,0.205,0.58,0.707,0.835c0.423,0.169,1.326,0.041,1.536-0.323c0.282-0.482,0.35-0.648,0.481-0.831c0.201-0.267,0.546-0.149,0.546-0.065c-0.032,0.149-0.234,0.296-0.097,0.565c0.239,0.179,0.295,0.064,0.436,0.024c0.501-0.239,0.877-1.324,0.877-1.324c0.022-0.405-0.208-0.374-0.356-0.291c-0.192,0.117-0.204,0.157-0.396,0.274c-0.245,0.036-0.719,0.198-0.954-0.165c-0.24-0.436-0.241-1.045-0.424-1.485c0-0.032-0.32-0.692-0.024-0.734c0.149,0.028,0.471,0.111,0.521-0.157c0.157-0.261-0.338-1.002-0.675-1.376c-0.292-0.32-0.696-0.359-1.087-0.032c-0.274,0.252-0.233,0.533-0.287,0.799c-0.07,0.306-0.056,0.685,0.255,1.09c0.273,0.538,0.77,1.229,0.606,2.203c0,0-0.289,0.464-0.796,0.404c-0.212-0.046-0.556-0.137-0.74-1.489c-0.139-1.023,0.035-2.456-0.4-3.127C38.061,24.876,37.976,24.63,37.835,24.649L37.835,24.649z"/><path fill="#fff" d="M36.441 24.758c-.132.011-.277.164-.396.46-.102.225-.226 1.4-.206 1.4-.081.35.366.498.57.048.305-.824.307-1.176.327-1.525C36.689 24.875 36.573 24.746 36.441 24.758L36.441 24.758zM41.59 24.851c-.135.012-.243.091-.283.291-.054.469-.026.724.053 1.114.06.26.44.696.626.948.892 1.197 1.75 2.4 2.578 3.644.13.924.226 1.828.287 2.728.134 1.974.175 4.43.053 6.509.37.015.964-.597 1.172-1.493.135-1.239-.048-3.768-.061-4.499-.009-.304-.027-.666-.048-1.045.964 1.573 1.899 3.239 2.817 5.068.335-.159.26-2.04.065-2.304-.735-1.579-1.749-3.137-2.073-3.737-.117-.216-.515-.821-.986-1.517-.087-.994-.181-1.836-.242-2.09-.152-1.051.433.119.352-.492-.19-1.049-.77-1.763-1.455-2.724-.221-.313-.217-.376-.558.077-.204.462-.201.846-.141 1.207-.09-.13-.201-.285-.36-.476-.592-.507-.628-.535-1.119-.948C42.11 24.999 41.815 24.83 41.59 24.851L41.59 24.851zM56.848 25.008c-.066-.01-.137.022-.218.141-.154.135-.32.38-.315.694.038.554.136 1.121.174 1.675.013.074.027.148.04.222-.06-.076-.112-.135-.141-.165-1.081-1.134.497-.185-.206-1.061-.594-.652-.768-.859-1.277-1.251-.255-.165-.409-.479-.493.056-.033.471-.068 1.016-.036 1.412-.002.22.227.636.424.88.721.885 1.458 1.826 2.198 2.809.156 2.004.197 3.84.356 5.847-.022.858-.287 1.998-.537 2.106 0 0-.383.22-.638-.024-.186-.075-.929-1.239-.929-1.239-.381-.348-.634-.249-.905 0-.747.72-1.085 2.069-1.592 2.998-.131.207-.499.384-.909-.016-1.041-1.42-.432-3.441-.562-2.921-.927 1.043-.516 2.772-.307 3.143.306.611.553 1.001 1.148 1.303.542.398.963.15 1.196-.129.545-.564.552-2.007.808-2.292.179-.524.629-.434.849-.202.213.305.464.504.776.67.508.448 1.115.529 1.713.121.409-.229.674-.526.913-1.114.257-.686.13-4.28.073-6.279.384.54.763 1.092 1.14 1.65.165 1.755.24 3.483.186 5.141-.039.33 1.152-.984 1.144-1.606-.005-.544.001-1.038 0-1.497.577.921 1.137 1.857 1.665 2.805.327-.173.215-2.024.008-2.28-.553-.927-1.262-1.929-1.81-2.704-.108-.978-.256-2.132-.323-2.486-.105-.551-.209-1.379-.368-2.034-.043-.255-.174-1.072-.133-1.15.065-.183.308.006.428-.206.18-.196-.623-2.272-1.03-2.865-.146-.266-.411-.174-.74.258-.304.284-.193.933-.077 1.55.302 1.572.571 3.173.784 4.77-.394-.586-.876-1.294-1.35-1.977-.013-.066-.061-.307-.061-.311 0-.028-.065-1.286-.121-1.586-.01-.122-.039-.157.089-.141.135.114.154.12.238.157.137.025.256-.206.174-.42-.423-.779-.846-1.561-1.269-2.34C56.971 25.071 56.914 25.018 56.848 25.008L56.848 25.008zM17.469 25.048c-.234-.007-.493.138-.392.42-.059.153.459.672.55.956.081.203-.081.856.089.916.156.068.371-.452.453-.932.045-.263.011-1.163-.602-1.348C17.535 25.053 17.503 25.049 17.469 25.048L17.469 25.048z"/><path fill="#fff" d="M62.328 25.053c-.053.005-.118.092-.218.303-.24.392-.322 1.095-.226 1.715.577 3.9 1.006 7.676 1.095 11.133-.05.328-.064.503-.218.916-.341.436-.717.983-1.071 1.247-.354.264-1.107.515-1.354.71-.781.451-.785.97-.154.989 1.089-.126 2.377-.215 3.265-1.554.237-.375.517-1.391.529-2.014.083-3.647-.047-7.214-.594-9.85-.035-.257-.149-.847-.105-.924.071-.181.427.018.554-.19.186-.19-.921-1.606-1.309-2.211C62.445 25.172 62.397 25.047 62.328 25.053L62.328 25.053zM50.909 25.114c-.045.008-.111.076-.234.238-.304.993-.411 1.804-.295 2.421.781 4.072 1.582 7.782 1.455 11.658.371.002.799-.846.982-1.687.1-1.157-.067-1.862-.097-2.542-.03-.68-.771-6.2-.921-6.715-.181-.973.721-.128.622-.694-.312-.714-1.09-1.753-1.333-2.373C50.995 25.255 50.984 25.101 50.909 25.114L50.909 25.114zM23.103 25.191c-.096.017-.189.096-.222.226-.021.085.037.227-.04.27-.044.045-.213.015-.206-.222 0-.075-.055-.154-.089-.202-.034-.022-.056-.028-.117-.028-.074.003-.072.023-.113.085-.018.063-.041.125-.041.198-.009.084-.043.113-.105.125-.069 0-.053.008-.109-.028-.033-.036-.073-.051-.073-.113 0-.064-.017-.167-.036-.21-.029-.039-.076-.059-.129-.073-.291.001-.312.334-.295.46-.022.024-.033.615.364.779.532.253 1.529.146 1.487-.71 0-.076-.017-.33-.024-.399C23.298 25.222 23.198 25.174 23.103 25.191L23.103 25.191zM30.239 25.199c-.184.009-.346.062-.485.133-.353.337-.435.878-.158 1.215.27.127.54.399.36.549-.764.815-2.753 2.177-2.853 2.425 0 0-.004.006-.004.008v.008.004c.001.002.003.006.003.006l.005.006h.004l.004.004h.004l.004.004c.101.068 1.345.066 1.483.004l.003-.003.005-.001v-.004c.428-.157 2.457-2.474 2.457-2.474-.105-.09-.202-.156-.307-.246-.113-.097-.101-.193 0-.291.503-.292.343-.935.081-1.227C30.628 25.222 30.423 25.189 30.239 25.199L30.239 25.199zM48.892 25.207c-.053.005-.118.087-.218.299-.24.392-.403 1.075-.384 1.715.52 3.592.679 6.734 1.018 10.326.028.347-.023.852-.255 1.053-.855.892-2.088 1.992-3.431 2.498-.144.162.359.852 1.01.851 1.089-.126 2.046-.737 2.934-2.344.237-.375.655-1.178.667-1.8.083-3.647-.184-6.483-.731-9.12-.035-.257-.011-.561.032-.638.071-.084.31.002.436-.206.186-.19-.497-1.763-.885-2.369C49.009 25.321 48.961 25.2 48.892 25.207L48.892 25.207z"/><path fill="#fff" d="M19.995,25.317c-0.15,0.018-0.292,0.14-0.36,0.303c-0.025,0.576-0.029,1.152,0.036,1.683c0.262,0.931,0.345,1.75,0.473,2.704c0.035,1.277-0.739,0.552-0.703-0.081c0.179-0.822,0.13-2.117-0.028-2.445c-0.126-0.328-0.272-0.409-0.578-0.355c-0.243-0.015-0.871,0.668-1.047,1.8c0,0-0.146,0.581-0.21,1.098c-0.086,0.584-0.473,0.998-0.744-0.081c-0.233-0.784-0.377-2.716-0.768-2.264c-0.112,1.508-0.245,4.162,1.039,4.435c1.552,0.149,0.695-2.621,1.257-3.123c0.106-0.248,0.303-0.253,0.319,0.061v2.353c-0.014,0.765,0.49,0.992,0.881,1.15c0.407-0.031,0.677-0.02,0.836,0.375c0.064,1.356,0.13,2.716,0.194,4.072c0,0,0.941,0.27,0.986-2.288c0.045-1.502-0.3-2.762-0.097-3.055c0.007-0.287,0.376-0.301,0.63-0.161c0.406,0.286,0.586,0.638,1.216,0.496c0.96-0.264,1.538-0.729,1.552-1.465c-0.056-0.699-0.137-1.399-0.44-2.098c0.042-0.127-0.184-0.458-0.141-0.585c0.172,0.27,0.433,0.247,0.493,0c-0.163-0.537-0.418-1.052-0.828-1.275c-0.34-0.299-0.836-0.236-1.018,0.387c-0.084,0.718,0.261,1.569,0.784,2.264c0.111,0.272,0.267,0.723,0.198,1.13c-0.279,0.159-0.555,0.093-0.788-0.153c0,0-0.764-0.571-0.764-0.698c0.203-1.296,0.044-1.444-0.069-1.804c-0.078-0.496-0.314-0.654-0.505-0.993c-0.191-0.202-0.45-0.202-0.574,0c-0.338,0.584-0.179,1.839,0.065,2.401c0.176,0.517,0.446,0.839,0.319,0.839c-0.105,0.292-0.323,0.224-0.481-0.113c-0.225-0.697-0.271-1.735-0.271-2.203c-0.068-0.58-0.143-1.82-0.525-2.135C20.233,25.351,20.112,25.303,19.995,25.317L19.995,25.317z"/><path fill="#fff" d="M25.447 25.325c-.077.01-.162.054-.263.077-.33.105-.639.39-.541.944.39 2.367.644 4.174 1.034 6.541.06.277-.173.643-.473.605-.51-.345-.637-1.043-1.507-1.013-.63.008-1.349.692-1.439 1.352-.105.524-.142 1.092 0 1.55.443.532.973.475 1.439.355.383-.157.697-.534.832-.444l.004-.001 0 .005c.083.146-.008 1.377-1.802 2.328-1.103.494-1.981.613-2.453-.287-.293-.562.021-2.702-.699-2.207-2.13 5.484 4.991 6.249 5.787.226.052-.17.208-.34.319-.299.049.021.093.087.109.21-.165 5.454-5.509 5.828-6.417 4.112-.225-.404-.293-1.305-.315-1.844-.041-.326-.123-.515-.218-.589-.217-.162-.508.261-.57.997-.09.592-.065.754-.065 1.324.285 4.308 7.162 2.457 8.28-1.102.553-1.84-.011-3.227.174-3.398.002-.001.006-.003.008-.004 0 0 .006-.003.008-.004 0 0 .006-.003.008-.004.006-.002.017-.004.024-.004.683.734 1.641.093 1.851-.161.09-.127.315-.209.473-.044.533.382 1.466.202 1.661-.472.113-.659.208-1.338.23-2.042-.347.108-.627.188-.74.307-.027.029-.047.062-.053.097-.03.195-.059.39-.089.585-.003.016-.008.031-.016.044-.015.024-.039.046-.065.061-.123.067-.336.029-.348-.149-.165-.749-.844-.847-1.257.315-.278.225-.784.268-.836-.069.068-.779-.247-.884-.877-.517-.203-1.543-.403-3.017-.606-4.56.263-.008.503.183.744-.117-.26-.807-.81-2.449-1.119-2.603-.002-.001-.006-.003-.008-.004-.014-.017-.031-.032-.044-.044-.006-.005-.015-.012-.02-.016-.006-.004-.015-.009-.02-.012-.012-.007-.028-.012-.04-.016C25.503 25.325 25.476 25.321 25.447 25.325L25.447 25.325zM46.698 25.337c-.273-.008-.574.163-.457.504-.068.186.586.817.691 1.162.19.531-.145 1.037.053 1.11.182.082.434-.548.529-1.13.11-.471-.227-1.435-.703-1.634C46.774 25.34 46.737 25.338 46.698 25.337L46.698 25.337zM30.142 25.918c.124-.013.274.101.348.262.078.172.039.336-.089.367-.128.031-.293-.082-.372-.254-.078-.172-.039-.34.089-.371C30.126 25.92 30.134 25.919 30.142 25.918zM60.853 26.713c-.248-.009-.519.18-.412.549-.062.201.53.885.626 1.259.086.266-.132 1.123.048 1.202.166.089.399-.592.485-1.223.048-.345-.208-1.556-.643-1.771C60.925 26.72 60.889 26.714 60.853 26.713L60.853 26.713zM43.873 27.132c.023.101.045.203.061.307.051.224.095.446.141.666-.196-.27-.359-.488-.428-.565C43.203 27.013 43.657 27.194 43.873 27.132L43.873 27.132zM47.785 29.053c-.096.017-.189.1-.222.23-.021.085.041.223-.036.266-.044.045-.217.019-.21-.218 0-.075-.055-.158-.089-.206-.034-.022-.056-.028-.117-.028-.074.003-.072.023-.113.085-.017.063-.04.126-.04.198-.009.084-.039.113-.101.125-.069 0-.057.008-.113-.028-.033-.036-.073-.051-.073-.113 0-.064-.017-.167-.036-.21-.029-.039-.076-.055-.129-.069-.291.001-.308.33-.291.456-.022.024-.037.619.36.783.532.253 1.533.142 1.491-.714 0-.076-.021-.33-.028-.399C47.981 29.084 47.881 29.037 47.785 29.053L47.785 29.053z"/><path fill="#fff" d="M29.925 29.231c-.066-.007-.152.017-.251.077-.47.254-.653 1.008-.36 1.449.274.388.706.246.764.246.461.058.735-.864.735-.864s.014-.259-.533.23c-.23.043-.262-.04-.319-.169-.048-.24-.038-.483.073-.722C30.085 29.333 30.034 29.242 29.925 29.231L29.925 29.231zM55.173 29.348c-.261-.013-.539.156-.61.512.001.21.095.326.077.517-.027.109-.14.181-.408.052.042-.039-.174-.343-.174-.343-.209-.127-.489.007-.671.125-.1.182-.174.493-.061.811.3.554 1.331 1.5 1.822 1.509.009-.5.058-1.164.085-1.578.012-.156.048-.328.198-.367.15-.039.409.15.412-.012-.027-.318-.091-.787-.271-1.009C55.48 29.429 55.329 29.355 55.173 29.348L55.173 29.348zM34.273 31.087c-.007.003-.014.008-.02.012-.003.002-.009.006-.012.008-.052.039-.113.129-.251.226-.231.263-.273.446-.259.972.013.056.439 1.239.8 2.07.243.864.468 1.854.303 2.788-.57 1.236-1.715 2.344-2.821 2.946-.563.18-1.05.119-1.18-.004 0 0-.003-.003-.004-.004-.323-.217-.331-.604-.311-.67v-.004l.004-.004c.933-.649 1.998-1.174 2.833-2.926.246-.669.322-1.071.077-2.106-.095-.386-.213-.703-.477-.977l.004-.004c.159-.076.571.227.634.036-.097-.494-.433-1.158-.812-1.497-.332-.301-.694-.336-.998-.061-.343.19-.416.874-.251 1.473.183.451.678.53 1.03 1.437v.004c.007.057.121.677-.057.928-.144.449-1.994 1.906-2.126 1.993 0 0-.011.007-.012.008l-.004.004-.004.004-.004.004-.004 0-.004 0-.004-.004v-.004c0 0-.003-.007-.004-.008-.006-.036.004-.129 0-.278-.012-.273.101-.891.093-.997V36.45c-.001-.001-.003-.003-.003-.003l-.001-.005h-.004c-.612.394-.814 1.603-.925 1.961-1.548 1.068-3.307 1.863-4.32 2.946-.527.823 3.634-.945 4.118-1.158.004.003.008.008.012.012.092.101.1.453.376.771.433.585 1.352.946 2.247.722 1.5-.542 2.365-1.563 3.245-2.696.126-.183.323-.327.505-.186.605 1.352 2.348 2.314 4.603 2.413.522-.633.272-.945.061-1.077-.065-.043-1.121-.454-1.285-.864-.103-.381.148-.719.651-.972 1.447-.175 2.87-.369 4.247-.811.014-.462.286-1.153.469-1.453.127-.208.208-.229.238-.258 0 0 .003-.003.004-.004l.004-.004c0 0 .003-.003.004-.004v-.008c.001-.009 0-.025-.004-.04l-.234-.137-4.619-.02c-.057-.022-.099-.044-.125-.065-.002-.002-.006-.006-.008-.008l-.004-.004-.004-.004-.003-.007-.004-.005 0-.004-.004-.004v-.004-.004-.004-.004-.004-.004-.004-.004l.004-.004c0 0 .003-.006.004-.008.023-.03.077-.059.145-.085 1.103-.15 3.062-.471 3.192-2.353-.02-.98-.42-1.622-1.624-1.8-.885.068-1.516.923-1.414 1.864-.042.253.086.751-.174.807-1.698.155-3.55 1.217-3.613 1.977h-.004l-.004.004c-.001.001-.006.003-.008.004l-.007 0c-.004.001-.011.003-.014.004l-.003 0c-.003 0-.008 0-.008 0s-.005 0-.006 0l-.007 0c-.006-.001-.014-.003-.018-.004-.11-.031-.253-.213-.23-.468-.065-1.314-.493-2.801-1.164-3.946-.239-.239-.344-.336-.412-.347-.002 0-.006 0-.008 0-.003 0-.008 0-.012 0h-.004-.004L34.273 31.087 34.273 31.087z"/><path fill="#fff" d="M38.694 31.781c-.096.017-.189.096-.222.226-.021.085.041.227-.036.27-.044.045-.217.019-.21-.218 0-.075-.055-.158-.089-.206-.034-.022-.052-.028-.113-.028-.074.003-.077.023-.117.085-.017.063-.04.126-.04.198-.009.084-.039.113-.101.125-.069 0-.053.008-.109-.028-.033-.036-.077-.051-.077-.113 0-.064-.013-.167-.032-.21-.029-.039-.08-.055-.133-.069-.291.001-.308.33-.291.456-.022.024-.037.619.36.783.532.253 1.799.104 1.491-.714 0-.076-.021-.33-.028-.399C38.89 31.812 38.79 31.764 38.694 31.781L38.694 31.781zM56.535 32.511c-.013-.002-.029-.001-.044.004 0 0-2.465 1.751-2.526 1.812-.244.217-.122.98 0 .892.177.068 2.658-1.611 2.611-1.808C56.684 33.417 56.736 32.547 56.535 32.511L56.535 32.511zM41.023 32.771c.101-.011.233.023.36.097.184.106.297.267.283.383 0 0 .001.009 0 .012-.001.003-.007.009-.007.009-.002.006-.004.012-.005.015l-.004.008c0 0-.003.006-.004.008-.006.01-.016.02-.024.028-.088.082-.293.071-.485-.04-.182-.105-.295-.267-.283-.383l.004-.012c.003-.014.009-.028.016-.04.003-.005.005-.012.008-.016l.004-.004c.005-.006.014-.015.02-.02C40.935 32.792 40.977 32.776 41.023 32.771L41.023 32.771zM19.44 33.215c-1.277.023-3.147 1.672-3.196 2.587 1.348-.646 2.671-1.268 4.041-1.937C20.063 33.535 20.271 33.238 19.44 33.215L19.44 33.215zM23.578 33.788c.125.001.257.063.327.238.063.16.003.328-.073.412v.004c0 0-.003.006-.004.008-.054.069-.242.04-.376.04-.162-.007-.242-.034-.339-.165-.047-.146.095-.29.158-.399.001-.001.003-.003.003-.003.007-.011.018-.023.029-.033.048-.044.132-.086.222-.097C23.543 33.79 23.56 33.788 23.578 33.788L23.578 33.788zM56.055 34.295c-.227.028-.443.242-.343.585-.062.201.308.905.404 1.279.086.266-.111 1.018.069 1.098.166.089.601-.447.586-1.118.048-.345-.123-1.616-.558-1.832C56.163 34.293 56.108 34.289 56.055 34.295L56.055 34.295zM28.832 34.641c-.199.014-.376.12-.296.399-.012.203.561.449.596.919.082.194-.123.813.048.871.157.064.374-.428.456-.887.045-.251-.197-1.129-.608-1.286C28.965 34.643 28.899 34.636 28.832 34.641L28.832 34.641zM37.004 35.755c.015-.001.028 0 .044 0 .003 0 .005 0 .008 0 .509.138 1.26.153 1.912.22.531.034.793.449.296.623-.491.168-.962.299-.964 1.007.064.351.051.535-.004.619-.004.006-.011.015-.016.02l-.004.004-.004.004-.004.004-.004.004c0 0-.007.003-.008.004-.007.004-.016.009-.024.012-.007.002-.017.003-.024.004-.117.017-.286-.094-.412-.16-.302-.217-1.151-.742-1.272-1.869C36.507 35.996 36.698 35.777 37.004 35.755L37.004 35.755zM17.044 36.622c-.032.001-.095.096-.18.204-.752 1.196-.819 2.982-.404 3.515.22.252.584.362.852.284.472-.205.68-1.16.568-1.51-.158-.246-.283-.286-.44-.076-.332.674-.471.213-.5-.164-.051-.714.018-1.372.096-1.893C17.077 36.715 17.076 36.621 17.044 36.622L17.044 36.622zM42.665 38.193c-.056-.003-.116.006-.176.036-.012 0-.538.356-.708.603-.103.079-.092.147-.06.284.081.185.223.127.384.04.214-.029.318.111.3.367-.099.32.044.439.044.459 0 .02.206.197.448.056.511-.195.829-.384 1.544-.539.188-.004.177-.505-.12-.523-.387.019-.745.039-1.132.344-.238.055-.279-.09-.332-.22-.061-.322.136-.549.096-.791C42.963 38.319 42.832 38.202 42.665 38.193L42.665 38.193zM59.069 38.804c-.095.003-.195.016-.34.028-.157.033-.211.102-.24.292.011.288.188.274.368.387.105.133.172.253-.008.471-.171.157-.293.243-.464.399-.081.138-.131.349.116.415.456.128 1.512-.557 1.512-.571.171-.128.114-.371.1-.371-.1-.114-.325-.045-.476-.064-.072 0-.308-.035-.196-.244.094-.13.128-.207.192-.367.071-.157.009-.262-.248-.348C59.254 38.808 59.164 38.801 59.069 38.804L59.069 38.804zM51.082 50.806l-.003.003c-.752.195-.729.982-.247 1.327-7.934 0-20.11-.136-22.721-.136-1.461 0-6.083-.176-6.171-.176.991 1.462 2.427 1.76 4.306 1.789 3.524 0 19.852-.044 24.499-.044-.33.591.03 1.543.289 1.718.006.004.014.009.02.012.01.005.022.01.032.012.003.001.009 0 .012 0 .308.073.443-.151.547-.316.499.044 3.308.085 3.565-.004 0 0 .003-.004.004-.004.174.258.346.502.677.459.579-.125 1.035-.189 1.05-1.374 0 0-.059-2.02-1.375-1.893-.311.047-1.184.136-1.184.136-1.01-.121-1.752-.134-2.888-.176.105-.134.29-.678.063-.875-.059-.05-.147-.077-.269-.068l-.003 0c-.003 0-.007 0-.007 0l-.006-.004c-.003-.001-.009-.002-.012-.004-.006-.004-.014-.013-.02-.02 0 0-.007-.006-.008-.008-.057-.084-.089-.291-.127-.344l-.004-.003-.004-.004c-.002-.001-.007-.004-.008-.004h-.004L51.082 50.806 51.082 50.806z"/><path fill="#fff" d="M50.467,54.922c0,0,0.003,0.001,0.004,0c1.169,0.057,2.267,0.011,3.436,0.068c0.185,0.157,0.093,0.517-0.028,0.583c-0.005,0.003-0.015,0.007-0.02,0.008c-0.004,0.001-0.012,0-0.016,0c-0.004,0-0.012,0.001-0.016,0c-0.38-0.01-0.6-0.018-0.98-0.028c-0.001-0.019-0.003-0.039-0.008-0.056c-0.09-0.267-0.743-0.249-0.896-0.04c-0.002,0.003-0.006,0.009-0.008,0.012c-0.002,0.004-0.006,0.012-0.008,0.016c-0.002,0.005-0.006,0.014-0.008,0.02c-0.002,0.008-0.003,0.02-0.003,0.02c-0.002,0.018-0.006,0.03-0.005,0.04c-0.513,0.062-0.975-0.017-1.488-0.036C50.273,55.342,50.29,55.004,50.467,54.922L50.467,54.922z"/></svg>