<svg xmlns="http://www.w3.org/2000/svg" width="81" height="18.521" viewBox="0 0 81 18.521">
  <g id="Group_46729" data-name="Group 46729" transform="translate(-965.321 -543)">
    <g id="mastercard-icon" transform="translate(1017.216 543)">
      <path id="Path_78834" data-name="Path 78834" d="M27.26,10a9.261,9.261,0,1,0,9.257,9.259A9.261,9.261,0,0,0,27.26,10Z" transform="translate(-7.412 -10)" fill="#ff9800"/>
      <path id="Path_78835" data-name="Path 78835" d="M11.26,10a9.261,9.261,0,1,0,9.257,9.259A9.261,9.261,0,0,0,11.26,10Z" transform="translate(-1.996 -10)" fill="#d50000"/>
      <path id="Path_78836" data-name="Path 78836" d="M18,20.114a9.244,9.244,0,0,0,3.969,7.6,9.249,9.249,0,0,0,0-15.187A9.244,9.244,0,0,0,18,20.114Z" transform="translate(-7.413 -10.854)" fill="#ff3d00"/>
    </g>
    <g id="icons8_visa_1" transform="translate(965.321 545.216)">
      <path id="Path_78832" data-name="Path 78832" d="M16.888,19l-3.259,9.719s-.828-4.111-.91-4.624c-1.856-4.233-4.592-4-4.592-4l3.227,12.556h3.923L20.7,19Zm3.106,13.651h3.563L25.708,19H22.1ZM45.208,19H41.46L35.615,32.651h3.54l.73-1.95h4.463l.38,1.95h3.243Zm-4.337,9.094,1.939-5.157,1.015,5.157ZM30.765,22.979c0-.752.622-1.311,2.39-1.311a5.622,5.622,0,0,1,2.471.837l.578-2.866A10.877,10.877,0,0,0,32.865,19c-3.747,0-5.679,1.792-5.679,4.061,0,4.1,4.937,3.541,4.937,5.648,0,.361-.286,1.2-2.343,1.2a7.628,7.628,0,0,1-3.424-.756l-.614,2.75a8.371,8.371,0,0,0,3.868.752c2.555,0,6.1-1.911,6.1-4.656C35.71,24.69,30.765,24.453,30.765,22.979Z" transform="translate(-4.529 -19)" fill="#1a1f71"/>
      <path id="Path_78833" data-name="Path 78833" d="M13.893,26.337l-1.2-5.9a2.2,2.2,0,0,0-1.956-1.277H5.225S12.257,21.241,13.893,26.337Z" transform="translate(-5.225 -18.959)" fill="#1a1f71"/>
    </g>
  </g>
</svg>
